<mxfile host="65bd71144e">
    <diagram id="HIP3nbAZw_EuaXWnEj3U" name="Page-1">
        <mxGraphModel dx="537" dy="384" grid="1" gridSize="10" guides="1" tooltips="1" connect="1" arrows="1" fold="1" page="1" pageScale="1" pageWidth="850" pageHeight="1100" math="0" shadow="0">
            <root>
                <mxCell id="0"/>
                <mxCell id="1" parent="0"/>
                <mxCell id="7" value="http://ics2o.mths.ca" style="swimlane;whiteSpace=wrap;html=1;" parent="1" vertex="1">
                    <mxGeometry x="40" y="40" width="760" height="480" as="geometry"/>
                </mxCell>
                <mxCell id="8" value="&lt;font style=&quot;font-size: 20px;&quot;&gt;Sum of Natural Numbers Program&lt;/font&gt;" style="text;html=1;align=center;verticalAlign=middle;resizable=0;points=[];autosize=1;strokeColor=none;fillColor=none;" vertex="1" parent="7">
                    <mxGeometry y="30" width="330" height="40" as="geometry"/>
                </mxCell>
                <mxCell id="9" value="" style="edgeStyle=none;orthogonalLoop=1;jettySize=auto;html=1;endArrow=none;endFill=0;" edge="1" parent="7">
                    <mxGeometry width="100" relative="1" as="geometry">
                        <mxPoint y="70" as="sourcePoint"/>
                        <mxPoint x="760" y="70" as="targetPoint"/>
                        <Array as="points"/>
                    </mxGeometry>
                </mxCell>
                <mxCell id="10" value="&lt;font style=&quot;font-size: 15px;&quot;&gt;Enter your number of choice&lt;/font&gt;" style="text;html=1;align=center;verticalAlign=middle;resizable=0;points=[];autosize=1;strokeColor=none;fillColor=none;" vertex="1" parent="7">
                    <mxGeometry x="5" y="90" width="210" height="30" as="geometry"/>
                </mxCell>
                <mxCell id="11" value="&lt;font style=&quot;font-size: 15px;&quot;&gt;&lt;u&gt;Number...&amp;nbsp; &amp;nbsp; &amp;nbsp; &amp;nbsp; &amp;nbsp; &amp;nbsp; &amp;nbsp; &amp;nbsp; &amp;nbsp; &amp;nbsp; &amp;nbsp;&amp;nbsp;&lt;/u&gt;&lt;/font&gt;" style="text;html=1;align=center;verticalAlign=middle;resizable=0;points=[];autosize=1;strokeColor=none;fillColor=none;" vertex="1" parent="7">
                    <mxGeometry x="20" y="130" width="180" height="30" as="geometry"/>
                </mxCell>
                <mxCell id="12" value="&lt;font style=&quot;font-size: 15px;&quot;&gt;The answer is:&lt;/font&gt;" style="text;html=1;align=center;verticalAlign=middle;resizable=0;points=[];autosize=1;strokeColor=none;fillColor=none;" vertex="1" parent="7">
                    <mxGeometry x="5" y="240" width="120" height="30" as="geometry"/>
                </mxCell>
                <mxCell id="13" value="&lt;font style=&quot;font-size: 15px;&quot;&gt;Answer&lt;/font&gt;" style="rounded=1;whiteSpace=wrap;html=1;" vertex="1" parent="7">
                    <mxGeometry x="20" y="180" width="80" height="40" as="geometry"/>
                </mxCell>
                <mxCell id="14" value="" style="shape=image;verticalLabelPosition=bottom;labelBackgroundColor=default;verticalAlign=top;aspect=fixed;imageAspect=0;image=data:image/png,iVBORw0KGgoAAAANSUhEUgAAAgUAAAFDCAIAAAAlF+q2AAAAAXNSR0IArs4c6QAAIABJREFUeJzsvXmcHlWV8H/OubfqWXpPp5MO2ROykYQ1IWwhECbRIMkosggoIKKC6AADor4OoCMfUYSZOCqCDCiICEFwQAOElxgUspJ9T7qzdbZOL+n9eZ6quvec94/bKdpOiMwMjP5+U9/P80mefurWrbtUnXPvOefeQhGBhISEhIT/9dBfuwAJCQkJCX8TJPogISEhIQESfZCQkJCQ0E2iDxISEhISINEHCQkJCQndJPogISEhIQESfZCQkJCQ0E2iDxISEhISINEHCQkJCQndJPogISEhIQESfZCQkJCQ0E2iDxISEhISINEHCQkJCQndJPogISEhIQESfZCQkJCQ0E2iDxISEhISINEHCQkJCQndJPogISEhIQESfZCQkJCQ0E2iDxISEhISINEHCQkJCQndJPogISEhIQESfZCQkJCQ0E2iDxISEhISINEHCQkJCQndJPogISEhIQESfZCQkJCQ0M3x9IG1VkSY2Vob/xv/4r4wMwDEXxzu0Nq1a3O5nPsuIkfn7353fDi1++9ynML/jRD3gjGmUCi8/fbbq1evFpG4s1yyXt0X//k/U7u//WZMSEj4C/oAEePvc+fO/fSnP93Y2MjMiCgixphYssTKwyVm5v3793/yk5+85557Wlpa3NFj5u+UQc8L/U0R66pjlv9vAdd0Thn/5je/ufzyy6+77rpt27a9l5ZdunTpzJkzH3jgAfen0xwfdiETTZCQ8P8N5L2JosgNPF944YXy8vJUKvWFL3yhsbHRDS2jKLLW7t+//2c/+9nhw4eDIIhPDMPwS1/6EhFls9nHH3/cGBNF0dH5G2OstU6vHKcYHxLv56LW2iAIgiD4q5Tw/eA6yFq7Z8+eAQMGEBERKaVuu+22XC4XF9u1c2dn57XXXouIiHjXXXd1dXW5cz/sQkZR9D9zoYSEhP8O6lvf+tbxVUVDQ8N99923ceNGa21NTc348eNPOukkESGiQ4cOfelLX/rJT37S0NAwadKkkpISd8rOnTvvvPPOfD5vjMnlcp/85CcBIJ/P+77fc9phjHn55ZdTqVSfPn3ii+bz+SVLlqRSqeLi4jixm0OIyN69e/fv39/a2rp79+6ampr169evX79+x44dZWVlRUVFLocoilpaWvbs2bNz586Ojo7y8nIiYub6+vrt27dv3rx5y5Ytq1evrq2t7erq6t+/f1ye+Es8ni0UCq+++urChQvLy8srKyuPTuZKBQB1dXWHDh0qKSlRSrlfjs6tra1t0aJFBw8eHDBgQHwiAOzZs2fHjh2lpaWe58WXeP/TJhHp6uq6+eabV65cGWdbX18/adKkYcOGxckOHTr00EMPPfbYYy7npUuXjhgx4pRTTulZEtd669at830/nU7HP/ZKY63dvn17S0tLY2Pjrl27tm7dun79+g0bNhw4cKC8vDyTyfQsnrX2pZdeEpG+ffv2rJHLMJfL7dixY8uWLevXr9+6devBgwf79++vte7V1AkJCf8D6L+YYv369WvWrHHfi4qKKioqnHSIoujnP//566+/XigUnn322bFjx375y19WSgHAf/zHf3R0dLhTtmzZ4lJqrW+44QbP8+KHfPXq1TfffPNXvvKVu+66SymFiMaYH/3oR48++uhdd9114403btq0aePGjWEYdnV1NTU37dm9Z+/evZ2dnb7vt7W1dXZ2trW1BUGQSqU++clPfv7zn9+9e/eGDRtqa2s7OjoaGxvb29v79u378Y9/PJ1Ov/POOwcOHDh48ODhw4ejKGpvb89kMoMGDfr4xz9+++23O00WiyFnfjl06NDDDz/81FNPNTQ0/OlPf7r//vtHjhzZK5lripaWlq985StNTU0TJkz49re/3bdvX1ednrl1dXV97Wtfe/nll4uKiq688sp7772XiFyaJ5544qWXXjrjjDM+8YlPTJ8+PZ1Ou2xdY74fXnzxxfnz5ztl7MRoS0vLjh07zj//fCf9a2tr77vvvmeffbanp+f555+/7LLLstms0+4u5XPPPffQQw8NGTLk6quvvvzyy53gXrhwYX19fRRFrmH37dtXU1OjtbbWtre3t7e3d3Z2RlFUXl5+3XXXffWrXy0uLo712fr162+66aZrrrnmu9/9ru/78bW2b9++cOHCJUuW7Nq1q7Gxsa2tTURKS0vvuuuuL3zhC//ZFkhISPgAOM7cwRjT1dV17733uscSEadNm1ZTU2OMMca8/fbb48eP9zzP2ShuueWWXC5njDl48ODMmTOdQCSiWbNmNTU1VVVVjR49etmyZcaYOP9HHnmEiM4555zNmzc7u0dNTc3kyZPdherq6q699try8vLS0tLi4uJ0Ok1EnucppdwXl7+Tqul0urq6uqKiwglT96M7WlRUVFJSorWOE7tDWmulVDabvfPOO4Mg6GnNsNa2trbeeOONmUzGnZVOp7/3ve8VCoWeyZwZpLm5+YorrnD5a61fffXVXhYwY0wQBDfddJPv+67w6XT69ttvdzYca+3tt9/uatS3b9/x48f/9Kc/bW9v79lQx4GZ9+3bd/755/ccShNRcXHxww8/7Cx1NTU1F198cVwXlwYRb731Vmf0s9a6Ly+99FJZWZnru4suusgYE4ZhfX39lClTXEcUFRWlUqm4bVUP3J+DBg165ZVXrLVhGLr75MknnySiiRMnrlixwjm9FyxYcPnllw8ZMqSkpKRnT7lM+vbtu3PnTnfu+5vjJiQkfDD8BX9yR0fHH//4Rzem01pPnDhx4MCBiNjV1fXMM89s2bIlHmyOGzfOyZGVK1du3rw5FtPXXXfd9u3bm5qaampqHnjggTAM4/zXrl1LRMuXL583b14URW7GUFdXh4j19fUNDQ0jR450Y8+urq4gCIjIiVpEzGazVVVVJ5xwQv/+/QEgCILGxsbW1tYgCJx8yWazZWVlffr0CYKgs7PTCRff9wcNGjR79uyrr766b9++zFwoFJYtW3bgwIGezvDa2topU6Y88cQTYRi6ca61tqioKB7RO3K53N133z1u3LgXXnghjrNyRpu4Way1HR0dzz777K9+9as4wscY8+yzz7766qsuTaFQcOe2tLRs3rz5H/7hH2655ZZ9+/a9HzesG7xv2rSp1+9aa2Zubm6eP3/+nDlzXnvtNVeXOE9EdP4Gl8mSJUvOOuusyy+/vKOjw3X3unXrrLVKqYqKitLSUtcRzgYYN4JSqqSkpLKy8oQTTqiqqhKRAwcOzJ07t6GhweWMiJs3b0bETZs2PfPMM01NTZ/73OcuvvjiF1544cCBA52dnUSUyWTKyspKSkpKSkrKysqMMQsWLHBq+y9WPyEh4QPkePYiZ3bYsGGD+7OkpGTq1KnpdJqZly1b9pvf/CaeXpSVlQ0dOlRr3dXV9dZbb9XX1zupPXny5NNOO23lypVKKWb+4x//WCgUUqmUy3DTpk1OPtbW1hKRtXbLli3Nzc2I2NnZeeDAgUsvvfSNN95ob29HxLKysvXr17e3tzPz8OHDv/Od71RXVw8bNqy+vv6cc85xIlgpNXTo0IqKigkTJkycOHHw4MElJSXf+c53Vq5c6SxC/fv3//GPf9y/f/9//dd/ddkiohvzOtltrV28ePEdd9xRU1MTN4KT47W1tYVCIZvNxu2zfPnyn/zkJ52dnU4DOR2wbdu2njE/a9asmTt37pIlS3K5nFJq7NixTU1NjY2NTU1NCxYsmDZtWjqd3rt3LwAMHz78pJNO2rp16549e5555plVq1b98Ic/nDZtmhs49+oaNzNAxObm5gULFhw+fLiXib+jo+Pf/u3fnnvuucWLF/f0wcSGeyKaMGGCS5zP5x944IFVq1Y5hef6tLW1taGhobq6Wmt90003tbS0RFGktS4pKXn77bdd7S666KIbbrhh4MCBQ4cOffPNN6+99loAeOedd1paWvr16+fyqampcV9279790ksv/frXv45VbCqVmjp16kUXXTR27Ni2tjbXC2EYzp49+2856iwh4f+v/AX/wdatW13AKAD06dPn3HPPtdY6I1JTU5OTwoh4wgknVFdXA8DBgwdfeeUVJ+VTqdQFF1wwZMiQF1980VqLiIMHD3bWBmeTaWpqco99Z2eniBQKhaamJidJS0pKhgwZMnbs2Mcff7y9vd3J5ZkzZzoJfs0111xxxRWuVFVVVaNGjaqpqUHE008//Rvf+EYqlaqsrBw9enRRUREzl5aWvvTSS9XV1XPnzt21a9c999xjrV21apWLs8xms5/5zGf69u3rSrJ69eqvfvWrGzZscIUcNGjQkCFDtm7d2tzc/Nvf/vbGG28cN26cK0yhUPje977X2dnZK55y2bJlTlY6K/nLL7/861//2uV23nnn3Xfffc8///zDDz8cRdGqVavq6urGjBkzceLE+fPnjxkz5ic/+cmuXbtee+21X/ziF1u2bLnjjjseffTRyZMnH7NrXJ7btm37wx/+cHRMp9OytbW1rl6xvowVFQA4xy8ivv7664sWLXKHXLFdBy1duvQTn/iEiFxyySXDhw+31mqtd+zY8fbbb7vTb7nlllmzZsVOFHfdAQMGFBUVuesaYw4fPuy+53K52trauHhO3EdRVFFRMX369Gw2G3vR3U3137irExIS/kscx5Zkrb3jjjti2+7111/vrLp33nmnM/XGFuSPfOQjdXV11trvfe97zmqklBoyZMjy5cujKLrqqqucSJozZ47zMVhrDx06VFxc7DK57LLLCoVCbW3t2Wef7X654oornGnCjdmNMQ899JC76JAhQ5YuXRrHqkZRdMMNN7iziouLBw0aNGjQoAEDBnzpS19y9n0XZ7l8+XKttSuG8xwgoud5Tz31VC6Xi6IoiqLDhw9PnTrVuSiUUrNmzVq5cmV9fb27tNb6rrvuisuzaNGi2CcxbNiwefPmOVeKUso1hZtVTJ8+3eU2YMCALVu2/PKXv5w4caJLNmHChOXLlxtjfvKTnxDRGWec0dbWFkVRZ2fnk08+WVRU5HnezTff3N7efnTXxGGmt956a+yqifs0tsX39JdUV1c/9thjcSiX53k7duxwdTn33HNjp8t9993nRDwi3nLLLW59iWsf50647LLLXM4XXnjh3r17nePBGHPLLbfEjoeDBw+66jc2Np544oku54svvviJJ57o6fVx5SwtLZ07d27sTYlbOPEfJCT8D3M8fcDMTlK45/zpp58Ow/DZZ58tLS3tOXxDxKuuuqqlpWXLli19+vRxz7nneZdffnkYhkEQDB8+3OVw++23Hzp06NChQ2vXrr399tudgCaiBx98MIqipUuXlpWVObnmwiIdURS1trZeeOGFTnxcccUVhw4diku4Z88eZ9mPcddCxI9//ONOkFlr77nnntjnGfs/+/Tps3z5cqd4oii6++67XQ5a69mzZx8+fNhJqIMHD44bN85Zuvfs2RNFUaFQuOSSS1wmJSUl8+fP37Nnz+jRo13O3/rWt1asWNHR0dHe3t7TvlRVVeXkoNMul1566d69e40xP/7xj4lo8ODB8RWjKLrtttuIaMqUKZs2bTq6a5zQbG1traqqivM/99xzb7nllnQ6HWsId7mSkpKLL75406ZNv/3tb/EIEyZMcM6Y119/PVbhs2fPLhQK3/nOd9y5w4cP/9Of/rRv3754AcGGDRuGDRumlPJ9/7vf/W686CSKorPOOsvlfN1119XV1dXX12/cuPHee+91dwsR3XXXXZ2dnQsWLPjsZz87ceLEIUOGVFdXFxUVKaVGjRq1Z8+eePn0B32TJyQkvC+Opw86OjpKSkriaJxNmzY9//zzo0eP7hmm4kajf/d3f/f000+7kW8ckLNw4UJr7dq1a10YCRGdd955n/rUp6ZMmVJcXOwG185iM3/+fGPMvHnznEBRSm3dujUuhjHmjTfeGDZsGCJWVlY++eSTcZBPoVD4xje+4cRrT3FfXl5+0UUXuWyjKArDcOrUqa4MpaWlJ5100kUXXXT++ef379+/qqrqkUceaW9v37lzp5NcWuuPfOQjzlzuxG4QBA8++KDv+4j4ox/9KIqiV199tbKy0rXMpEmTfvSjH/3gBz8YOXJkLO4HDBjw4x//+LXXXuvVUO5oRUXF7Nmz33zzTReEc8MNNyilJk6c6OYHDQ0N8+bNGzp0KBGdfvrp69atO7pr3Pzg+9//fs/8n3jiia1bt15zzTUVFRVa63Q6PWLEiDlz5vz85z9vamoyxtx8883xvOG8884zxrS2tn7iE5+Inf/f+MY3HnvssU9/+tOuGbXW2Wz24osv3rFjRxiGURT9y7/8iwvWcpObuDxbt251HUREkydPvuKKK6ZMmeJWY7grZjKZJ554IggCp1rcbGz9+vXf//73x4wZo5S65ppr3PrHD/T2TkhI+E9wPP+BC+R3Vt1sNjtv3rynn3569+7dvZIh4jvvvLNu3brm5uZ4DdGsWbPOPfdcAHjrrbfCMHQ/Ll261JmG4+mFGxdXV1crpXK5nPuxT58+Q4cOjfM3xixdurS+vh4ARo0aNX369Pj0rVu3zp8/31m9pk+fPnv2bKcS+vTpM3ny5CFDhrjy7N27d9WqVS4e5mtf+9r06dOrq6s7Ojq+/vWvv/baaw899NCYMWPWrVvnnAHDhg275557ysrKnIMBEV3cvVLKGPOb3/zm6quvfuGFF9rb250Y3bRp02233eZaM66aC3NatmxZT7O+1nrUqFEzZsw4++yzp0yZMnDgQJfyD3/4AzO7eKcFCxY89dRTixcvPnTokHMy95wB9KSzs/Phhx/uuWjrwgsvHDJkyP3333/ZZZc1Njam0+nBgwdPmDDBLRlh5qVLl8anjx8/HhEXL168fPnyeEHJ3LlzgyCIu9V5d51TQSnV1NS0dOnSXC7n1Mn48eNjN8DKlSudm8eFja1atSpeCeEyr6qqGjx4cByg5WIQSktLXZO6sLR8Pl9cXOwud5zbMiEh4cPiOLpi48aNsbHIDfGwB6NHj/7pT39aXl4em9HjwWBFRcWmTZvc4uSrr746/r2ntSQ27Hz6059ubm5m5vvvv9/lfMopp/S0HdfX18c26+9+97s9o/v//d//vaysDBEHDhz4wgsvuOG2E98rV65csmSJM0P/0z/9k8t54sSJ27dvZ+a6urrbb7+9srJSKeV53v333//lL3/ZXeLOO+/s6uqKDdmLFy+eNWtWvILh5JNPfvPNN0eNGuXmTM7i0TOIHhGLi4t/8IMfdHR0XH/99XFzEVF5efncuXNbW1tjz4cx5q233nInjhw5cvLkyZWVlbEZbciQIW+88UYcJ9oTZyhLpVLxRf/5n/+559qIeK+6+M8oik444YS4I1555ZW2trabb77Z+UtKS0v79esXd5ADEadOnbpz505X1DVr1kycONFVcMGCBa4jwjAsFAq33Xabmz+5CVYcbBo7My6++OKDBw+6WscrHp599tlTTjnF1eKMM874W94XJCHhfwPHmx+MHTt2xowZb7zxhos8yefzsddx1KhRc+fOvfDCC3fu3PnQQw/13LzB9/0vf/nLznqwe/fubdu2uaPO3zt+/PjbbrvNGHPHHXccPHiwvLx82rRp5eXlzvjjBIoT8XExCoWCG3sqpa688sqeh+K92Iwxv/vd7954443m5ubGxsbNmzc3NTVlMpmnn3566tSpr7/+uiveySefvH///n/913+dN29eS0uLWwHreV5xcXEc1vLyyy+3tbX5vt/Q0LBx40YXLumqoLWePn3622+/vWPHDhEZOHDgQw899OSTT27cuHHixInDhw//3e9+t2vXLicxReStt97quci2vb39m9/85qJFiz772c+OHz++tLQ0lUo999xzTnTu2rXL2dARMZPJDB069JFHHjnvvPPeaxVC3OCI2KdPn1tvvbXnsLpXfI4zu7W1tbn8R4wYMX369M2bNy9atMjl//nPf37AgAE/+9nPMpnMBRdcUFNTs3DhwjAMfd93bn8RyefzXV1diDhkyBC3As6N5fft27dx40ZjjLtWNpsdN27cV77ylaqqqi996Uu7du3yPO/CCy907pP9+/cfPHhw3bp1jz/++IoVK9wpvu//4z/+o9uuI5kfJCT81TiOrrDW/uEPf+jbt2+c2Em6GTNmuJXGURQ1NjY6t0HsRr7kkktqa2vdiPKVV14ZMmSIG2wOHDjwkUcecfFFzzzzK2d/Ly0tdctorbWvvPJKNpsloqFDh/bc/66urm7WrFlEVFZW5hyw8SjyxRdf7N+/f+wO7TkYd8PSz3zmM2vWrHHDeSeq4tF37E744he/WFdX9/zzz7sl0HFMTq+s+vfv/7nPfa6mpmbGjBnux6uuuso1QhAEDQ0NX//616uqqlylHn/88fr6eucDyGaz06ZNGzBggGtAl39RUdGZZ555yy23XHvttT1d3JlMZvLkyXfffXd9fX08jThm1zQ3N1dWVrrcvvrVrx4/GseNx8eMGePqcs899xhjnnnmGd/3XQnXrl3rKhIEwfz5888++2xXnpkzZzY1Nbkoo+XLl48ePRoRP/axj7W3t8eRRYsXLx49erSrXVVV1QMPPODmQK+99ppb8pbJZO677z7XcXfeeWdPt79Sqrq6+v/8n//jJgdu6vDfGN8kJCT81zneQExEJk2adPfddw8bNszJ+lNPPfXb3/72z372s8mTJ7tHurKy8t5773VhRQBwzjnn3HvvvS49EVVWVpaUlLih/fTp0z/xiU+49QdjxowdMGCAiFRUVIwZM8ZdbtiwYU7ctLW19dyEubKy0m271tXVNXfu3J4vWjj55JMHDRoUb4njfnSiXyl14YUX3nTTTRUVFfF2OoVCIT69uLh49uzZjzzyyL333jto0KBLLrnk5ptvdjvu9Rpf9+vX7/rrr//hD3/4gx/8oF+/fv3793e5zZkzJw6adEtz3fqJMWPGTJ06taKi4tRTT3XTrO9973uPPvronDlz3ETErW1+5513nnzyyTFjxjj1ls1mZ86c+dBDDz3++OPf/OY3+/XrF2d+zN4pLS2dOXOmiPTr189FiB6nK11WX/ziFzOZzJw5cz71qU+JSHFxsds0cMSIEbGqQMT29va6ujpm9jzv7//+78vLy10OgwYNGjt2rLP1z58/P14BV1ZWVlFR4dJMnjz56quvdtUcOnToiBEj3EoF1xTd9xyRm1v4vn/eeec98MADX//61+No4GRykJDwV+M4uiIO3t+2bdv8+fNXrlx54MCBQqHQa+/izs7OZ5555vbbb3/ggQcOHTrUc/xeKBSeeOKJoUOHXnXVVWvWrAnDMAxDt7nN73//+5tvvnn16tVxuGd7e/uDDz44Y8aMRx55pOdo1xizcePGOXPmEJHbcifO3xizdu3az3/+8zNmzDj33HPnzJnzhS984dZbb33qqafWr1/f0NAQBEEYhvPmzfN9/7TTTnMD9pEjRz744INr1qxpbGzsOfpub29/7rnnrrjiio985COTJk2aNm3abbfd9utf/3rXrl1tbW1xyZcvX37jjTc+8sgjHR0d8ZDWeQLmzJlz/fXX19bWBkHgDO6XXnrp008/7erY3Nz81ltv3XTTTU5cujnT9u3br7322htuuGHx4sVNTU3HnA0cjYsvqq2tveCCC771rW+5TfqOn97tnLF9+/bm5mbnaGltbX3wwQc/97nPxfsFufDchoaGf/qnf5o1a9avfvUr90YjRxRFCxYsmDhxYjabffHFF+Mg1Hw+//zzz48bN27OnDkrVqxwkUgut0WLFt12221xUK/zx4wdO3bMmDFXXnnlq6++eujQoaPvqISEhL8KeJxNcpwccSZdNwR21nBng47HcU52u2FsvBdCvGeD2wMnXhbba+FCPFp3ucU7hvYMaTXGuN0gcrmcW8XaM0yluxqIPTfHjv+NjdFBEGitnbwrKSlxF3IhQ/Eu09banvOM2KPQ85e4Xr3G48aYeNe/eIefePuHXq0ahuE777yzdevWc889d+zYsXGTunZ+P0tze75uLJ4eHWc30DiuP97HNK5C/L1XUeNwqbgj3KTN6ZJ4V1S380TPkvTsiJ5Tt9jb0evf+FCym2lCwl+X4+mDRYsWtba29hQNPQVHz/2ce+1rH8vNWFgfvQlBvE9OnKBnSXrGpB4tT3uaFHrqg951O+LwjDVEz4Idndtf3CbhaIl59HsOejVFvP1DzwvFv/eMvu2l1Y5PXOtYSf/F9PGXnt3Xs3fiBPErHGLtHrdPz2r2eg9EL00Z59krWa80PVujqqrq1FNPLSoqSjarSEj4q3A8ffDRj3505cqV8SwhIeHDw8W2/vCHPxw8eHAyUUhI+KtwPH2wdevWXC6XDNYS/gdwUbaDBg1y72n4axcnIeF/I8fTBz2NLQkJHzaxfSnRBwkJfxWOpw8SEhISEv73kAzEEhISEhIg0QcJCQkJCd0k+iAhISEhARJ9kJCQkJDQTaIPEhISEhIg0QcJCQkJCd0k+iAhISEhARJ9kJCQkJDQTaIPEhISEhIg0QcJCQkJCd0k+iAhISEhARJ9kJCQkJDQTaIPEhISEhIg0QcJCQkJCd3oD/sCAiwgCEdemggAR+2wjeCOo0spAu4lvAAigCCAKADQfRRAhAVEgBEQkBAQofutPdL9D8KRHAFAUAAQQVhEgAGQIC7RUWWBHkfcBQUFBV1GeOQiIAKA4HJ2/7sS9laxAgIAKAggriRHziXsrpTLWcBdCqj7St2Jj25S1xrcnbJHOumuuwAIAL1XJd8nAnyk2QkEjvSje+3lfyLnI/m4gjIAuddx9kpGgIKIcXsJAUp352Pcs+7OEOm+tVye3bVGIFdG7G4E/PNidHemAKMQ4DHK4PJ3F+zRre58hPfsk3cv8G7x3ctAXf++ezE8kl93Tu7lpfHdDwDY4wlBIUFGeK8G765T3OMAPV9fJQyMQAKCICgk+O5rU49Rbdetx3757DGo1GKeAAAgAElEQVQbsvu+djXid4sBLIJA+O7LUt3N3Z0auquJTji4Mncfeo9qSneTypFnB92fR+4NRiHpfgBdTbsvcazSd0sD6K5DfMeRkzfv8c5ad6z7aYUjJZXuHozTdEuq7mI60YTY43aMn1Qn6nrVC45cxYm+o0Rl96OH+G55Psj3lX24+kAst8qBQ3hAc0qJRIQArI6qJAkJWgbfkmhIV8KAIkh7iAIYEREjYqRYhapTEDu4rdHsb8FDnXCYERRni6WsD1b1peoSVaZEIZPVliDFAL4lQDSUF/DE5g9KfQHahPy0JUH3ElAR7C4Qg1GY1uJlKV0EpUpSnk0LWSERUNoCsjae5KS1wx4uQGegTdaAL9m+akjK+tYzjBZtMSjRwgAKxIIoS8YiKEsttq5dtaKQgDVaD+PRHqYshSBog+ig3iOWIgz7quqMKk1HPnoFwQxBrNcYGQApwrCdWw7Lfs1ZJVKFg3zKICgB7sCWruhwSB2gqI8MLaU+9H5eb9ctUq0AIRMACFgRW2d2WMgbbdJcWo1DUGkC0sICzJImZMT3Nb8sQKGdG9psZ5qDwO9UpgJBLP7ZbYACWigk8BhElOfrvnagr0gkqwRYbKQAwBIAo2VbaIWmA7K/XZoNdwmwRr+ISsukqh8NKaY+2npAESORECIwkpNRaKELW/dKbZEtYbJOLwFyt0RwDyIgAnqIxViS5nIPshYVqYJImkQpa40GQqI/fw5ZWKywMgd4h5VAsTYEwtboSDFqIQQVEgIogtCzwOAFRBpsynKeQInuC2Vp3ZdJcra51TYzRCkq6SfDxStkOA3gAfXuSjZBhKoR9uW5FSFfTMMrqI8nHhCT5XZp3S97PfEtoof5lE11eaFiT0lkjzYMoBHRnqTK4IQSXaRAAwnAUS8uZREKgNOMomwE4EUkgrmcdDTywRZuzEmbgdCgzWJ5JfSrov5ZVexDCbJCRM8QoI68QEArVu2wt8E2M/oZ8AbCYCKtyDtKJYgFY8T6gVevd3dJhwGuwP79oF+gjG80Km6RvbkwyPkmIptmrrQnpLxyX1KKjlF+QxZBI4dKol2804IOKVDAFWZgFfVFhUygjq64GIuaQXxmYBJEJkYGRgEIAulsk67WqLFZHSpAV0QFLaqU+/bhE/r41cVSnALPgiZAAiukLUTa+KwjKygm2k91KIEhRsEICcD6bAxpxUeLSmFIV6r+ZVBiQYtiLfoDfIXlh6sPAsqtyC1caF9gFTEEBrVn1dGFtwRMoRbWxisLBt7U9z7i4oCYhPwQjRcYS8xyWPavDN5ciysOSF0OmtpVe6DClNWltqyU+pwAI8/A809LnVfCgzUrwkhbv6CBQFgEIToA23/f/uwB2hZ4IQEw6u7pypFiIAYkjCqDWNrXDhyDp41XZw6mfkSEXCyI1jcksBO2vNH1VIPak9eSNrqUK64v+mY/b6jPSosXKiZAYBBkBAtAKKARC9TxfPDTXcH2vN9FKNVtIz+T/coJ3onIfkSmFle+0vVYuzRplZ5Bnzo9O5uQGLQbgvV4QBBEBHlD4e0F0S8EsTocOav080NxnBZiKuyJNi3MP9pIDRkon+5fPyX1UR+8v9hN8XDnyMBaDEa7aetjnd831C7GZKKq64rvGmUnAIooFCFE+/5HJhGbt9pfX0FvGNVaoEIqKiLmI/r4SBkAI9IsYcqGaVN6YuG0WUVf7AcDAK1B1JY9URFghK11ZvOywp+2qs0NcrCLmwy1FXRXKsoWQf8i6juGx59J08f5pxVhXxImQQACtBY0YRBpu6Frye/Dx4zORUqUpLorf2TOZ0GUGB/BqlQaKwaaUaPU6eNTp1RKmWBOcREoQcSjq05AhkyAuRdaH6/XtVaFoTbKFosRwJAgQmAQzeKhAFFgEKz1CFiDQasozFyoPjbd+4wFWZL/03IzjzGoNqMvKf3cIBgGVrM+hu6NdNTI9b/LPb6Tl3iAE+hjHy2+ppwridFitDG35PVwXqfXzpiyupNEQrDKeoDGs15voYtskTKdRbOKr5vsn5/mEjR0tHgwhFqMoUCZFKMIShfXbwiXv8N/2MOb27GtRR0ueGFRlDJ+VBUOGh6NGqEnnOl/dLgdJz5FXk5LEQArViBmdfjWwsJvQ9IVpvyGPt+slCoF+ugpgjABqmb/0O/bH9slG1nhOLjg8pLPK/BBq8DmVhYW/zH6bRu2M6qSQtEEOPuj+jPl0O8Yr+FmBCICNhDuxl1PtD3Iur2g25U1Z+DHPlbyhSIosyDHOFE8zW44jqxCRrCACtlCfj/WrOj60xZeuV/v6cT2Aucshlq8UltZYfsN5pNOUWef7p9TIv1BLAhEVADwgQwBWtH7sObFroebqDavLQoYFBZMW48J9FFDZyOQkaKZqSunpD7qsfIiD9R/aq7+F/hw9YEFsw9r1/p/BB0BGOBUhr3OTFevZMIpi+xx5IlXqYeizSsABiVoQYGOVMHrXIGL5uce28s7OvyGCCPWKcZQuJDzqQUOa7OnljesCRYPjSbMKbruNJlWbLNATAAMSnFGRTZHXdv0qlpvbd7LiQgTgCDKu09Z2pImLSARMVLmndzvRthTr6q4eWJ0htVGSBMwgh9Gndtg+QFdm1cRIRUHfU8PL5qWHaSFtGiCyAJ5biqKBkCREItpkF1L7StNdCBQAVmMOIg4r1jAECuvhVo36rWHcGdKFY+DKWcwCllG0tLTPIGAKMAMtoEb19CavN8xxraeJ5dqZoWM7HVFwTrcUJ/ZX2RKTpYZAAzvAwZAYAEgZ5QhYy1vzK3YRAtNOhJLyKlxuYknFo8lIQOoQSGGFpSAel+3onTul83r9Vt53RkqU2TJeix/Pi4QACPIZDSGWSj1TMaIAVZCFsEwhWT8Nr9hUfTCwq4X9qV35ajLciReQF5EJhN4Uac0+eLtxzXLo1cmmamXlNw8lMdp8lHETUmVTQGGzfbQJr26LdUopAQMAJIgHLGl+IxaUJAY0LJKk1/Omcnts68suakKRxjFCKKEAam3MQrFYsQcbpZ39nkbWRUsWQKfrG/JCJpQF7TJCKJnCcgYZdBqErQqTFlfUdlJfDIxA5nduGFZ5i3B4MRcfqq0DTUpsGS9Y/j6fE5jBHW4a31qlWYqNSNYAgQDnIoU7sN961PLDqcOeMARILMm9EihUECe7SVElPFYdJEqmRzOkCwwEIHBo+QDA4AoLcLKiHAz1b2Qf/id6NUW3dqcziGFnqCosF1SgQSdqnGv2rACXlvbvvjS4i+cTNPSjMyiUTMwY3jA7l/p/cl42D/XPxKjOQ1Hq1oRipCQCn6wTW3doJaIAhUVhXhtljMIFKrCbr1jHb7dpXKRggynuwqdF8olmvsfo8mOGAGZeGnHq8szr7DOGcWKbUU4NGJWCMLHmB5YBCUCgkIAKIo9AMhDx+LC/BeiJw56e0LdWFCRKCaLWjQBdniNdbhpPS9ZEr58em7anNIbR6nxHisAJCGrGIEQsVUdXO/9Yb/anfdsyqACBlQpSFkdRsr2KgbZsrRRk/gCBj8i9BiE+Ggb9X+ZD1cfoCgkzRoNoJDOcIoUZExFr2SeAUFUrJFTxKWsIOIuz2QNmZAotF1vBs89F/5sX+lqKPgavQyosqCvllJFKbG2gIdbdUtA4eHi/fW4/XDn3jav/iL/Ko+ySkLNwCikhcXm/c4uvxPAlkWVxWERgQeiCAhBAMRSgcXL6y7gLivhweyeetjf1nT4H/p8ZyScqgXJegUledXakenIY0E8U0CIqGlJYcE5MDtNvmWjrbKaAZSgJRQQYJAAu9YW3jrs7Q38vFGRkOryO7t0GCnxjGhhsYqpyFCGkAqYBlQW8gRpEBKyCKrbsNht2BHAAHQuTHUFphXwMFGnkGfEMEWRUgXs9D0POML3pw+c4ZpECQMQG4ga1d5V0R/C0vY2HWillCeL2l48Ty4ZgiOsKC0a3jWj/mXalelM5SLVTjrviSrj/kG3SO15q0DGKoMKQbR4PmjSnYABBinUEiLl1KHXcr/4bfSLzlQ9MqRIMlxSWhheTH0RbF66Or2GFu8gaOnyOhaGDXsP77ys9Gun8HklmAb2kAJGDZBHlQ8wB5p9SxWFfop8ZRWCQkRGJmGwOqe4PdNgdVdOOjrRNNOvKZ+6OnNrHxhowShQR/kmAERERINfqsuLuUQgzSw5r9PnNLFGgEOpOohs6BU8KCm11VZCNKjECyBEJp/LPMwUVM4HLCJhFbGyVjMAkEUgMRB6kOrVsJZYUWSpvaBCDX6kIyUeggKEEISVjUzOKhOQLQ77+OKnWAGI5SKLplf5tfUEdBEUpyhL4FkR0Hj0MNkTsJRSHDFzM9Y/3fHd/+u9HKTaFHtplJKoX5npS6DBFgIM8rq9S3e0Y8s7JQvbwo6bdNGpOAUB0XiR1wUQip8PKW91zkZpghZW/RGz2FvRAmkBBuCIEawWSzllWAAUIEYQpowBG6ggUoWAJMrkd/P6rbK8nxrsQ2mv8jMIgrWi2qR9rVmARV2RRoueQIY97aFiCYXSR9/DFkGpADBlkFVEYqA9dfC16Jnfyr8fKKrzUGUCqjR9M2F5VhVp9CMM26il02+JbK6L6haV/PJAx55rM3dM8M/0bR9FwqAYQKElNhqQyYYQlkKfYpMKyAJpEqVN78m9HxVnmIp1OiVKnFA44vP4QPiQ/QegRVK+ISFTGlWfg5eOwJGe7X1RIbYICL5V6PmpjKnS6AkaFMlT+1v8++ejR/emN0uhqISzo+H0M9RFo/XEQf7IlC0JKTxg9mwyy1bBoq12bV6bndkNL+UfTVHZJD29yBb7wIxkFbNJCaQs+mmDZ8BFF+rZhD6xh6ARBMAWBFlF7Xy41q7erP50kPfldbi1bPELuce/WPTtfqYaSAQjCwZAAWaJcwoNEGyTVfth+xg5nVVENq0ABdGiG2Qgk22BppXRm5xC7pbQzhWlrLDymDFEE2kWhRYIPeuBZougY19Zj+GKIAgwkxEyCEjsAaQtZAR8hrwhI2IQLLHH4L/PO4WAqdvXiRatAbPTbNivtzN6GU4Viwq4sz5zaLX5Y3+/WnMJInB3ox3Hu/ouJRZ9BlY6AqjKD7qSbklJuufMzDUJKTDoEZMRqfIrK+1gpYR1JISt0PFy/t9f48faUx2gvJKw4pRo0mQ6f3TxmRVqsC86D627wl3rcovXqtfrcEte59d6b0s+lUp7E/VZGj0Qy8oXURZBEIlVKsp8Vt+bVcWKtBIPEC2xAbAgRLY+2LMF397Iy5pVe7tuexNeOMmeeqF8UmsyoNTRo1gUBcqz2Y9kruiCi7RVBkUMEfok2AWNvwrmWi5kQnWKmXYmfFQRErHiVAjMij0/exJM0JACiIjJl8iy1SwCxqpQC+ljtXMIXqitWGtJyOoIPQYNRxzIBJEHJm0pY4rO56uGwMSMJavzIp7io3JDjJBVCsfrSb71BIHhGONkZGAFRCJsV4VvLqRn21NhOkwPtaPOp4+dhJP6ZYeUYGUI7Q3RwRq7aVn42mb9TrvfVqNWv9L5y8FlwyvtCYCEwAwkgCgeiC/GMyAF5OzRehZEiJGYpaCZlbChULMmNzZCYVCKFRFqEWQAUYHuXBG8OaVojn9Ui1klxMwI26KNdaltShQJAASafQIBMiHYYxiLAAgMgBUUQBaA1kzzgvwv/sP+rCV1yDd+v7BiLJ19sj5jQmpqhddXSyoHXbXhpq3Bms2yfJe3JuS2Temlvwwf/DTeOlFPV+gRe4zIKCyE1ve1V84yyUw7HS4g8EVSKIak9/xAlGLNJ+JZxNooNtrSBzg7+LD1AVPIlEMWg1IEVed6s6bwWSbWvu9a7i2AIGcNsoD1JcUAFhEt7oa1vyv8fF9qtyXum+s7w79shnfZQBqNlFLiaySGoFRXjPEmTLLnvho+88fwPw5nDuz0d/42+NmAdPVJfLZVoAQFIxLURkmKFauBduiZ2ZkaMygeikYRBGtEiYqITQ5mL43eeC76aZ3aKBjW2JW7zeYqHGBUoJh89hWDUQygFGtCzvut67sWj/ZPI2UjHbnHSQAFEAUN8aHCwR24ucuPImIl6Bnfs4qAFSAwWUWIosUIWkZKS5dgJJB1U0EAiqVuHLLCiALKY/SN7+m0UgrAauMBCEGBBLUhVCjvz9FE4rJGcbMZCGqDbR3qMEswPDqtFFO1vL7Db9uQWzZNfawCS0DAglbQ+2Z9L9zkQ9ki9rr6QOX5mUsrpG/v2xgBMLLge9YzIlbnU7bYgPI4DKWw3Pzudf5lU6YpFaWH5UbPSl13lndRpeqPkGJJa+IUlJ6RGnKqf+bJdtKrhV+t4D8VVFudWrGo8KuqohMGm5Hsa82GRQGQoGFE4aLTUheVe+XEvhZPEBnZhYYQMSDvg5m/M0+/Gv061I3GdqwKlp5eflElVzCaYz44yESszkt9TAMReyFxyoJVQIINsHte56ORVyBQQ3H0zMzVHnhABW3TRpFIgOJlg0wkGGJnXoMBD9kXyQagIoU6jOdkf0bWigKlbBqZfBt6aJgC5oAkpVijKEsSEVaEFZP8mZNoRoYg8NuRs4RHYhTehRkIgH2bJWFAhmMNPIUEgRm8Fty3Jr+Is9aPvBODU67MfuFs+mgGSi2IACnoV5YaOlJOH2UnPlf48TvhwkibVeb/rjEXXwizUGkNZFiToCeRBVDgo2S0ZI6+YRFIBC0gQkqxQvGNZCMVuagHIEbwBMEoQSKPfWGvoPKrzYoWaS2Gyu5MjuRrAUkIINjGa1r8TkNRCKzRKmYEFCAAX/Ex4vAVADAhEKANVbQ2WPFq8MuWbBNy9oSw/0fVZy/QH+/jV3uoSDxhVYLQxxt0qnfurmjmy4VfLPFeDnWw3Vs5P//kuOLTLFR6rJQo61GoMO8HEaIn/jA5+e8yV6UoJeIhMGDvR0xbL1BIVhFYJSTdYXjv+ej9Z/lw9UGGtc8SeBZIK2YffVJF/hFvzbt9z8JkmTAFqBgFwaIYCHOq49X8vL3Z1UBhSb765uiBceWnVkl1mouBickKhQooG2UBYKiaOCf7uer6E38p3wqzQQ2ueTn/i4Hp8UWYVeJF4DOKByZt0RMNigA9DT6JB86sA9qPmDltVVAWVJ+nLz1E+38t20LV1Z7Zu483neZdYDGdYgTyQChSpsTqE6Jhe72dBdW+hl+doS/rK4MRkVWBIUUgaFSkxTKsg0W5oibFXplJd1He6kJEwhQq9AhRCQF4EUaIoYJUpBSASokCioh9AXQxmkfUgSYkkgjAoECkrMEIUAC0KINsBD2rKBILaN/f8B2YFVDACGhSXqQPYe1qb+Fh05wyqdFwysCof52utXSw1l+zmdadI1WWPAZAVvQ+4k5FxIDHKrR+K1lPsZcV7WMaoPfoTVh8AFY2bbUVjQjIYDTu592L6MUmv9FjNSIYcXnq+rP0p4qDYslEEWoPSLHV4AOSJW8inddPhtvg/nWyoMs7/A6/cZKdMoiGWPA1KosFEkuihCLsdh/5PmYQgZGVaECDUQo0gNh+3ohL6aZ1ds0+05JPN23OL2OTZ6qUd4N934VAkSIgzEI5AgChdvkLAUQKyjzwQy/vRWnFKQ91BtIiaVHKExBIAYrNgGJA589AraDL50ABMBpQiAysjhFtYhQYFQnqyLdoCigMmDKoNARadKQ8ixJpEMIUeIp0llNMLGB6ZaUEwPqgIquYxSOwiv2jzeghgh9pULZe9tf5NQWNYOkMNe0snK7AE/IEAgEFrHzwlGTH4hlzsrfsa9m5r2RnQbdvKSw9OzuzmDlSaRTDwAxEIobAKqvlGI56BEAgAiHQhixjzgN24aWIPiibFg8x9CKvy8OMyVTZfvWqrkEfeCdc2N+r9k0GPGGgCMRn8hEJqJ731vDyEGzaUAmUdlKrVYG1qMT64h1z1otWh8poZhTbhs0vyo8PZfYGKAPz5dcV3T0FZ6HKZiyS8gHRSTgNxRkoHudXFetyvyn/RsUrRnetN4tezS+8uOiTClvJlgWgyWZIpKALFGW18n30U7YkUIDAPvfuAEuBDwpJAwZKFLIGtMcIA/uv8uGuR7MoBWIG0pGXinwvIhQStO7D0P0BRjJKMyjuDsgmNsrQXlO7KrekgDnFeiJMOblqSjlUepDuLjaKAAkoQAEEn7w+0P/M6ukj5QyyiijY2LmkLqoB0fFYCIHdmUxgQTN4jGgAjJuhUESMKF4hVfBRBuMAn/yIPbaZDgkZQg84IuMmNooxFWWqZVDGFkcUNoYH9gU7kZ2DGgEQRQMiim2DQ3uCbZ22q0QyA2CU6hmW3V2qI+sTuoOyj0Sj946OFxfZ/Ge3Kkp3HHgciPRuwMz7te8jgEXjYiEZg4N2R0O429eYsZXjceq41Lml0ifD2GLqa6LVeQhIhECod1HeE0ZGIc0WQQxiAUssKkHT8wNgyCJIdwyoEiXIRAUjvDPYfDCqAUj5pmyMf9aozLSUFINSDCkUj7p9JN0TKA1+lV89NTWnyPax4HeotmW5BaHkve6ptxxxlzCCMDGDMKJ1VjgEYA8E82QtAUAhRWqcObFAgibTwV2GLACiYO+eiRuyO0Ir7g08Mgont3jh3SAufHepiltA8+5sGcCiNeikHilQgGxRUNB9CLo/rCwxakvaomKPUbklOQzvrnZAId/4HhvBKNTWECMYxWll/+zDkDKKGFIkKRIlCELHmP9pAVaRUEGMYvF8k0rrwKYxxEoypWSIOAMChsBCXjBQkqmikYO84UUmpcVvLXTlKLAkAKAl6NGKR+7h97pB42VFID0mNtjdHSCMBoVLbMUQfRKylxLcWFiSp05WjBGByJE1AYGI2Rdtb7D7FHtZc0I/GQLw7sqMI4sKjoGAAYysyJbcqn3BFiFIm9QpqQvG6bOLqCzFvlgdL2DCI92qUYaqoTOrPtcnrGbEvJI/5p9ow3pQGpRoJ5RYK6sQWMgyCgB4Fn2rmGyvjxIiMdA9NXfC7INcf/Dh6gMGZFCMwhgxREYVLIYk2OtjtGUVAVhAsQgCSEzAvKawuLl0vyUushXn+xeXQIXPWWLf3RkMAKBRtJAFCpEhCxX9eNg56TlZUyYStJXUbwiXRhICxKu4gJEtMYBVECgIiVmLURBpMYHiwDOArEF5NhOwLgAKeQQaJANoFLOgRQEE9I1Om+JBduQAGcEIHaqtxqwxECIAgiZBBQBEALSHt+3HWqNM/+CEE9Up3asIwIj0nrH/tUAMBAiEAGyntK+3y3LUYm3UNxx2mnfmCHXyyGiCMpmC17UheqtZDgCQZiDg93pyeiHI2mrPEgAz5RkjEiShnh8EtDqwKhIUIRZnmxDJS+MGXtyimhXYculzup7Vx45SoMBDC1oAUWwsSUjIk1QWis9Uf3einQySDv1ok17RIDvpXdd6/PyIYlAASkSJKEElwsgFXwrAIDptygkwB+2htgIeEjKKi0f6YBcBHavFIotsUQiBgBhtRIFgJBgBRgLGfUIMBRmQGSNht7jrWAvNhNzMIwIwQCCKESz92YfRAoaIETpZI+qYxkbqHmRQWnzfWouRsdgQ7miRnQQWMG8x8APwI9DiCxChruL+s9Q119tv3ID3XJy9qjwqcdLXUPgBtpglRpFiUzaaJmehHNnUqLX7opoII0BwN5ggENgc5mtg/WG932NvjD27LOj7fsZOgkBAAFDArjX2zUKmhcX0s/3P0h/rZwaTKJ8Jj17uAEAMfpg+kU87y/97stnQ79pbvHp7fmUkZEi0AGGE4GlWmgVFBEQoYBUwWbe67s8+xiMBwBDcatYP1pv8YesDElSiEC2rkEkAAa1yhvU//7CAAvbZ+TUJGXWXbqmFdQYDAOpvh47A8Rkp8iXdY7Vq99o/IARUJF7KZkqk9CQ4vR8PMiR5jGpxXR4PuxWg6CzvYJnAgpAoFAUCIIRCIJQOPU9CgAAjbvT3bLKLGXPI+ZTkq7A/IloSzS5AnxHE48wJOOxEPsXnTE53boPVh/EQgBEmEAtiraiCRNt5Y6Paq0WNlbMHQH/FWQAgNEdmEgA91hgca93o++S/cVugEKQFFYA0qv2r+O1QB0T+yeqcSqwsxrIz/RloiyIyu2DrVlwdgSCLHFlb/RfyRvREA/iCyADaYEoMCfS6BxhQAJXx0WiL/P/Ye9Mgu67jTPDLzHPuve+92gAUdpAEQRIgCIIgSII7KZGSRVGt1assu2V7HDOOmLF7pmeJnq1/9vyZ6bCj3dHt7p4ZO9xeZMmLbMvmIovUQnNfQBIECYAAAWIliMJSVW+755zM+XHfqypUPVAlinD3RNQXL4AC6t3t3LPkyfzyS2UlY7N82o7v45daUnqkcVu51d86BMesic3ImAzme6YYQARn3mu+DKMfqz1Ui7VoYcpdeKXzbBdpJr15ZicFaD8iU3EpTaJkgTJEda3A0yfCW29jt6MQubPGVjSoMKhRvEyrAfUTdJ2pJGYlgrIxqxc4VsfqyByZVB+2zCwZAESGOuVB41mTdAByMcsN3hIpLxyCouQiSFURlQP6mYnzEEk5etPacj+2itZ2stak6G5890/L/+Ml+v4knw/oBAdwhDolShxqWuzKP/+5xq89XPulncVdGTkiJQDkZrN6f2wYPMxlJNfZ1vV0ZfThnDuzL+5WSh3fgZJXAZmaP5cu7EmvdP1kEYfuye+pW31GzmDOW1hwflJGAfA5PXYo29OipkE30LXX0BZvxAkqMblBETUmZRnG8G3uY2NxlVHZpnJ/eKmDWFJiU0YCWAhOxSfvUkbqFZzIesILRDOZ34mhyEgZxoYqqfajtCovM9+UVAyiwurZvCF0rW0L4pAEVSOi3FnmzClQcjqTTk3I8VydMa/GVSO8nKvISfW2yKjHWOzRb2YEAVbRmrW84QBeNstPy7HJ9N5y3tBXcVAQlC1o6KDN5FikIvWDuOvRUGcUzvuTj3X/8Pn0V7DmaMjXdNdsHUv7hM8AACAASURBVLsByEtQTRkwRUqcEuIQj23nO16Ij19w7x9O+w/pW+OyAlYQqSJFK87ye2/GF9s8OdJadUv9U2fSbrHMyFWW5ofdIAzosT/ODKVgUkqMFqZean/vuD9kHMc66+4a/oyzYWbent+xenLd0azZ9NM/6Dx2Z+OTjBVQcovzW7IWgRDYErFp44ydc6jPO9RgbDC4wCnXRuTg2ZnxpE2/R8eUS9bhq3H9CDVImrAM8ILAAMyDZ8QnKh0FNim30U0jnWWt7AIZ3rDdD6Cdo3bR4CENsBLJoEzUk4VwZbLIZsFaB+21P5v+/bO143miLNZvd3c2bMgqks3l2h703BVshMSJuxNy9DgtH8aYQiPP7y5Oa+f5vYRubkYUBY4HpFIRadFy5QW5YIhAUiG/gIgcSUykoIaoy4jJCIPC5gYAJZCN0Nqd+edemnr2fH1i2p16nP70+fDqlqnrNrtbNzbuvp43Nmg0A5gKdUYpo+rOmJUJYK68c9T3k/7YYPPBWCVtkA3XlDe+KS+W6O7DK/falwoaKlBnhQm6nE7ziQN4kxJfo9s2y7Uv0hMzcwo+wAVKScwn2ISeOEfvKYFN1uLqUV6uEjiwUrfabc47TmHJkTO/zlasoysn0zEyPoHDXWrmaBgSLCnHSJqE2+hM8ZloYwFeEGakHGZefNOVw2k8VwFD6cPPIJfC5dYvUgK5lJXcPSnv/k3r95+jp9AM1e9mNt0EjojDOrZr5MEttouj56zbDJMdnQrSzuPQcr+2cENzgmAMg/TMnH5rMQwJpDUML8MKp1xKasepqTBtRS/7tAobRgsTevpVeSZPhTOvZEogo5ZwLCfeCXtfoaePuN1T9bM+5cMXrrp/9Kur7UqCZwqAGJlR6royuVKJtma3LJtcfb52/oQdfQdv7bQdXnLr8VjSe/TmO/oSCdaGHVv8zROdN8hKNa/E1Q7wMrf/okDqlKOonONzT3W+qUNdl9xWu/squk5ixhpG3MoH6AtfC79V+vRm67kjjZevp/tECqNFJSkrdaJ0lcgkTWSn/rT5W400uiA4akRKxhKHfn78N3IbTUZGNIlu2zpeLVnaSNcDZBAQs1b7w2DsKwUYq/xXRAQxdTVescKvPqXvEHdO6htEXVzkTTFAX3ffH8IKbzW2Kp+c2LjDnRPh+NHyjb3h1YPF/phN1bpDV3duu3/4s6K1yOzog0SMPhpYXnJrf/bqv5r+30qymjIh6oJ8gFiEGG06n4RjTpqsRQNIX3bBH3+k+TvP2l8BYKXI0WmxQNzJ52F418hP7CjuzUPDgOi6fsH84JOz7ILCvBZ35Z+abp761tk/PDP6TkA8lu953x3YHb7Lzf+3Dr6R7r6Zb9lU7BjC6lFZW7PMW1EFQZhgSGkBoeDHASEYRyXUbPg62zkSv9V0778b3jpmR7ZhV5Ig6sko0fQr5Xcu8PsuFnf5B0ZsXZxN8J1RvRpEMAKDoBou6IWUAhNnGBnntUJjyXLH5pAiBiQuEJzTKKbOlo3oclGezjrny4m2nh3h1UqAkSIY9II0n+18e6p7TGwsWT1Dh/t6FTMBx2t52y3DP5mlgtmURExo0WG8xeAy5x9QJTxHXUktOfUUHjN27OdzG1wSiViONSts1bW608H5HocjBg5FspoUgqI/lmmurlNfAKoXMzYw4ItU9+RLaanGCCjAYIaoEZOpxd3lU8/rIz6KmKiZkcBcmbe8cRRcKFp11eFuo4HVHxv9mbvqP+XTCBMICmIzEDGTKmsEj/Paze7Gd3R/lPY73T1l8UW2yFoYLHG5r/viBT7Jqbh16N4hHTHKYQGVfwysMKFZDbzEcD3FPe3p+M3RyyLAUImoVJpj3N9ps5Lyj7HpNiIjNYsHy9ePuQMM1OLYzvzBhjVAgQ2CYlfx8Le6v3s2OxuKc9+b/PbVQ7vq7DFIXWAhknSNg4EE8YI/9kz5tbIQnadfBHMJADfS2i/iV2o2bgpmLalrlEQ9SGs2BOSKGsGYKhKgGht6Dv1qmiYD2Fy0+pCNklnpQ5IJ6amGMZlU+YdRwv/V/m+zVPeawdTIlMQQwSqkIStTlkky6dTWY/unh7+ynrYSeSJefKD+R0ElnqSAGaEkTWzRdeBPN6U9HDMPCwuaOjAxw5NK4rZZoBzker7UWdU4tLh8zT8HcgqRlBk3TebvD9hktL1sNAzdkO8kFDBRGsSpNQRUc1B3mY5+fuxXfDn6/fKvj9n+UJxUs7abjPlkW9MzYeJZ+3bRqm3C5tv9Z3a6+1e5a+pGhAwEmKp5RUVNcIRKAGIAVWZGKJJ7UXjTakfPapWQHUUjMgQjk1Rjql1T27F8ek3THT9tR47E/TfZHclFYsCsa1MvpO84H5alK7fmNzsdBfn+4Oo7rweq2YFgCqQINSMnGYcs45omYWJjI8s8ZNBoIIkCTsKNjGuAC5ICYtdabFCCkRkpWCPFt7NXTsXXlIpIeWbd0LeAZ+7oS9O/dCt9VrgOxL4l/FH6/C+zvwjsEoiiUioisRFSqQs0DoIvXawnroRxnGaJIilHmIl5I3URnAvPk+KhOX/1vMdCgECzVFOXsbWUEiiClM0JBOZhphRLaXeoEzIVMgWUJREpt33KSrLc6ivaa3fg9u3FnXfLF0fLVSkzp6TkjBWJxPIiElSE6pnV7sw/9f3O461i4u30yhk7sx7LmWMya+rZFzo/iIWujOtvc7dllIO9qQi1q+6XiARQGJsxENjyVCliapWF3JvczMgSjMAxkSaQAmKu0qIkVCnYH96JEbjMQz7JE99Pj56vNRNkg27eTDfU1HVdcCHPIKvcuuvibc/bI5GnX4lPf1JPbLYtEL7IUr6E2czqfcqYxdTAEZINCOAZRTCDIyubQzVzU8cMahJZaokSgjOSWSoVARnNdgGe6RHGgQmNVGfPbXJqmZkzMsAxXNW8wXUjGbSTtAtE5RhIoyMJmaiUvl2UtiluuxF33lT/5O12L4knE2cVIeAjG4Q9RVcjhsHUqo2PkmdHJiNhWRFHvHmvtkDcDMkHAyZlsuQYE4lVsqy926t0NQ2qpomRaUEgMi9GSecnvnLKSL1wxlRTCZygg+x3I0gagnQIYOQF1T5dfGV7uPlYPLC7/fR+2f2eHQso1U2WWaeD7iSfmg7v7417Xul+95P1/+IeuTOzQjkROHArgRVE5tgSkHo7vPkbFzMYKwtBoRGJKGdlhSrUlM3FyqQ3Ih8LB79a1l/D207qvqY7t19f6NBnCiwzihG2v3zrEB/MjLfRrlW8sbS2aC+tslKCxSV9RhExgzMgRU7JkCgGTUzJcTBztCB7vIICTERABmIpkpEzgDjC2JStItgjUco1EyNYDuOYNynxwiHdIWTqEjGTd4bIi4rhLR6XPT85kU8kovmKuOIGvXfc1hSd2ryvtbJQoF5Q/UrbziSKUiiAuiBQqgUGEzu1RY5BZxYpRFCCEDFBgcDgGWeBmBu3teNhNRESpzaaU3ahmaZKpybm2O8Kd3xp6Nc32NZlNF6E0QDyUDJiozTHdOjLdOMaf/u66av349xZOvlmfGEDbwF3gXTEXj+G/UxuE92ykq/9gHsm9GLLbCRWOVmrSKcpQETKxspEno1AQZEqhzsZsXFfT/dDwjAdpHMqvn2AXoVRro212TVDvnEhnTcjlU4bbePWDdlte+xJo+lJ986r3b/fWN883+lwCSgxqSdjEI2l8Xv0041yvBJLm+X6EHWExOA5r9uIowRoImIUokXgaTPxSY3aGLQrnweGMVptTKqpMwk2kmhGu9AIRGAyuabcWXAhRim1kmue75xr0fnoo1q2LC57oPjMg/yVMXftqjTuEyeJlQnJs2LVlwuOkyRcEbZ8ofjlq/nGPI0yx8jzN9Z5Gj5FB77e+e092XPORNIAhWQ2WhHH7+AHr7QbErxK3VVBE6BneBIAOHOF8FZ/12gYZilNkmFAdolKUESDiGacQJIyya6SHetk803Zx6d54qS+e7B5YG946nDzwPn8TFkEIJ90k3/vHjk1dW546H+8hR8GgVQFICRAjdQIBK4o2oNbhCyxJg5QNjYx3w8fVgPHBHBGkUuDFRi6Ob/v2fB421/Yn16a9qfrcRiODfZM+bfsomh9S3ZngbESp0DdxbwRhgMlNSaYUAek7NRF582ZKScyVqUoC+QjGaZMoo7NLAGuK0By5nTYQU16qeI5hlyZXRN3XK+3iEoHnTxlWV/KYUaffEuxK0OeXAKcKGbW/o8Klzk/GRpcaaSs+fKw6RP1X96Oe4bqC/YHZFlZkFOxjI0iFCCnubMcrMmFZnleF50NGzRM0wWlrrFlKc+kDlSZidHIoOJR21Hc/cv8T8kykAR0upg8OXn436V/+a68WXLrFXpx2dTjPze8OZK08+msOywxmUuKeJHRRKgITivjqlv8PYf05U4++XTrO/dnP8OoB5TPld+Zys64UNzkd43a+MIJpOcyMe4R0yvjpPrZQJVoGllFggGBzbGScoooKyu12vfMCv5/KBTTI7He2qPPncZhxyUs7sMz/2H6f1aWlCQDtyl4Cxf8+ZZvl4jTtck3m8/di4+vw2aC/NAeadQyKgkpJRrrXvVTw//T6toG6bGnZylWSYkIyqleDkMAomSpRoUnE9XSyinX4ZRjYP7ofEgwnaD3jcglathYpC6qEhTQysXmkv9fit8c4mUOORAjWq1i6ruTf/uY/cGZ/NB5mv5B9wcbslseSjeqRCXhmCVvgLo5CQ+XCUpGiEUa2ph27OB7iTOTxAsIPyapYUNDtDwQZSbGQSnO6wYEHkorbufP3pN/WuESOa8849eYqUdCRISO0zoCKl3dgb4PiV7IKRlxqqgZMJerz7hoYGyFrr+Ct+4ceaCFrzbtxKvdF3e3v7sPz7879G6y8uDQc3/Q+VdrG9tXYz0RZUnEEkGVkpIqCINSbQkEI6MUOJZogkUApzU2mRkx1bIghsRBkXI0dvr7VjQ3HMnOnqJDb9LulXYtG79vh1/B00phJW+6mrbUbWha/SKHDSkDpZIUlBdGhhRSp0RTKRIJFMqWaEH+GECVTj1z0E4rnaWMROFR1HgMKqhqeIAsdcSwU277yaHfGNZhlchaR18DeGY9KFkl+pJUrNoY6yJjeIvE5V0P2FRQOuokKoknR+FW6HByC2gS6IiDERunRGzIjXhZtm7F9Oojbk+i7gk78r6ebtDYJUpV9GBmBnsvnT6R3kXe4kTjtmosW0dwACkMDGbh4HJq1LCioCGnBRmMu1eObM7j8j9o/+YefK/l2k+Vf1abcp8b/q/W0gYwwIREkIuby6CmZsgFt+f3P9H5/bP5uf2y77AevIZ2nLYzu/UFEqzGuqv5mqJKebtIr7TygxqBqi5VxZYq21+tciUQg1QtsYHAChgC2h1MqyUCO7hcCjI2UxrINlwEuoU/i8lX8NIFd1a4ZPPv67uns7dLFpiQkjG56rbAzBxQHnIvHSjfWJ1fQ+BK1ns2lWfB+/FKYsRwIHbGy3W4hsYMN7L/dXMSyLyCyiwaiCGAjGp9GYqmkYrtS4c6pg0zIjUzGqC31kOweAbnTtGpKgR6vb9W+rWNQCAzMSfJj2l9hJdlNkImiTQgfGH4qrHOmj/u/uZ7xTsT/uhfTv2H4Xp2B33a0TIDuCK1/ej8oh91xEaQiSoTwZNBxSLUL6h/EBFMAUtkROaCabyoSVHxW5pOmZYVOgqL6komVarP84okxAgK3GUHD5j5fIC8KaLrmLICHUwGnraSahgWX2d4MBRJ1PlYeBka19H12Za780+80X3+m5O/96Z/qszLd/TNg3H3Cl5JKKJrubKK5WhijQiKxAuLPFRLFluJMnLHwLBU44ZDFXXoFVIys6oaARFYeVyvuLl213v2VuDyyfbjO+ufGbJiT/jBmfyMBr1aN68t1oqKQx2Lq+EBBYRAPGqrR+Nq599XDsfDkfN0ZlVaWe2yBgtHGIxim+KEnThD72oSZloV1hZZHQSiiuxORlRKymxkGCsz5IpI5GZcQTM/ZKlKf+6poA2s+/Tj4DLnoxFKViUxcKQANaiyYd5HkutvGyu5eqfEYzS+QTc5LZy64zh4lN8aWNRpHszsqBw4SUdNtaYja9MVQzTKJhUTsVKhFmNWsWrlrpJ7NWOt36x3fjb7yhVhaxGGur79Xfnms+XflKltUkYiUmFzAxVDI+Eq2nxdupnMTfiTL4YnA02+lV4+Te868xvT9WvcxsonPhDUi3xIxYLvoBm4NJ61W3g25ZiI0cFkx5pKSiCBODjoj5Xcxtw9Zm8dSW94kIfzyHxq1Mrxoc7aRjk2VK4Y7Yw0uuN5KGrd5RyWAf5sdvQNe7qZLlC1Cn+gkRVspMsUKQmr19wnT0azHaCfbcsqZExGDCXEqi7bmI5fadcQCREfsJdP8SGzVMXbP+CiJbde7T4x5S8YxzwMbXd3FRipND+ARAAZs/rEpkhGCoMoOfMjafyB7IufdV9d3lpPkBPFod8t/899nRcDddUbJ3CCLk419seBganXQZGkZDNRtzA7iXoV4pg0MzIaIFNXVXzqJqbABuSwmmKETcR47selvFaOZakh5lhzQ8U3nQ9WLzG7oBOPXvij32n+7/+2+c+fiH+uFgyRlV3MCFz6tleKYkZuma69y33+ofwrw7aS1YjLk+kQUFbqSA1pOHMAKaVmOa0cF77TiieQLJVWtuMkiMnMWcHWr0VnBKiSwXp0TwYyznb5e4bayyH8Bj19Cu80aeJ1fa5LrYY2ttBNYxgHkQ0qZTEYhEREwGp39fKwiaOYxcO674QdJqtyuc0tiMpUYTAi6lL3EL3+Pr0r5pGyzbytTj4RlFjMAUKwyKlK1OtVCoQx0Pv0B4sSlKxKNDFCj1fx0eFy612zqBMtINQRaTo0kRoLzTrzQaAUHMCpF+nPkV1ZXMepkbR8n04cbL50b+Nzva9femEw6P7pV877CWiexWUbaldnSkyzTN2qeznlTB2zgToQSkACZexvlrvfTQe/zr/V5DYRHi//4zV++018j6LBjETmBk0FHZNhW7Elv/0F/UFwk6+1f/Bw9vD+8rlIU2K00W9r8ErEDNK+1E0zV0wnTSlOh+nSl7U+2bynb923k4y0o9PTnQs2BACOJPc5KWPR/rSFCDy1v/naBL2XYEVnxa/y/3pt/Ua2nOOwuvOi4qyjNESgk/L2H53/N4eHnkaMr+rrn8P5MVn+Q+0TsabStFqEWUlpyk8IhnPMhJFm6lFW1ClzPVUWJJJhjF/nb/k+PZ2ldN4dPNB+ZmNxHf+wUqCteOHFyb8oV5RMadit3JTdntvY3Bav4i5Ja8o1g5gpkTpiY2nQ8gfzn363fPvJ9HVzetwf/LPOvx+3jWuwxUOUu4noo5QQGwRR9iqSBFBFcMpOewSsi7+WKVmUkCiIkFOWBRYeG4oIlqTUBTm2Sr1w/hKuAkUlvENQKKtxOWCDABDQ1Mk34nPP5n8puWeVB/mLOTwbmVS6Tq7rKKsEeLXIyNbIumVp9QS92yomp/U0QQ1UhHrONYoCQkScak/FrMyQD+pNlJBCCt3YAogNjXyIIZhTqDJxVfDSVRrzCfFqbF7trp7QlydrJ96Zei2rbT2qR0w7o1i1qXZjEUfVI1K5sFzjQBghAQQaoVVra1s8/V1J7ePp8LHOkZ3+dpVEYKRBWqOmBklW7p18rtm44LRgrm1u3OCBRMyoEjMoiy5A2BgUAtQgDjpjE874RCJ1HTKOAtbI3NO8/uhwefcHZpYZM0WiVq5FQ61R7avmfRw8IYcXeAjDwQTOGjuzn7i6fRV7bUnrcfqTA+Wec3QupEgpEbUjdTpWBnQIbUqWNJ2jibc6L32H/nrKT8PR6s6ym+ThWhyDUZc7bJ7NQRE5seWJiZAj1WC5IM8sRyqX6+rPuq/c3v5Uodx1nWP50T+f+p1z6T2zFKUl2ukisgkbOTNBIiKj3FFOzm/km8ftiiLJ8fzQE+HRg3iti+lRbNrBty3TGgvYmKGgRABb5Q9hcFMkrfMbl+n6ZK6d2VHZO1WeoJhKhA6XXbSVJhOCTyG6cwg2lc7vkzcMJFqsxIblGI9oG+UJJeBJSqaknEONLNnFH6hZ1IQmAhBTaSjRnUgXXgx/1/HnEniDbr67+NxWum8b3bXV37iN7r1e7rrWPbBZbruWt96hP7GD78rLla08HeM3XsBTrdjl6NW4EpzUBYqMADLUCh1iSQbnLDobya22sBtUuyRXyZeRB1GJWEu1LXr3pvZ1LQmT1vku/mQv/r4bHIKZTpl2A0q1TrSuRiBosMkpTDwRvrG/ti9IOdQd+3j50Hh3nVKbTIkSAFNPCGQsFDwcG5EzEwci4uBVNtiWL+Rf3dreQcm6rruHX3mq801os5S2QqFeFzkIKRmpkTpYnshFRyq9aHfFhwOgiaqqi8bGRiBJrhYBKhJ3MzOndZPSXCCSeR9lUZiChcmVJsEZLJGwwdSikUSnyJKEQru51oJoh3sqrkbVp7fZcEqOyEeQklHIktKgHW1i62RhjFbU6kV0Kmr73e43us+EqFG1S8HQIWOfEEkkSSmTSClyp8MttkLCiE8NwIi6hMYYbxjmEY2aXPMl9/22tTSZajIrFd2A2AHaoC53kWqvdB6ZaJwutFtrj9wa704crQoEwUS9i0xE9UgEEVJhWiZX7dB7PCRpetb/yRt46aS8XdPaprjjSroRTKxs5iKpS05S5hMpR+WIBWJ/AAIjS84be5I7+cHVzXUUh1v5ucfK//stfklLVmOjbiWBYBY1dc1SSjZNsYnm9/Ct7+ffNuo41a3lx67BTmMRE6cESk6pZKulghTJvDNiNHuusIs/OWoCgSMwu8pd8NGJ2V329QAEI02cqo9W/N5FQVXaa+mKLzR+dai9UtW/547/u8l//ro+Mc1nArUTIForUk7IA1lAu4kze8ITv3vhX0y6E6Y20lnxxfqvrpcNoWgbW2UTGVVCqtVbXwCXJZIiG/3MyM+tb29T41Lau/33Hkt/mGzaAC4LR6IUE1tkRKpYaim3hOTX+k2raDUcpmzi2fi3p/GuelkbN27ItyjVAVQB7URIBCU1iqJscAlphJZt0q2eGJT2877v8qNtPZ8FhrFPNU4jTgsjhhbnshNPp8fP+GNKpkrXyhandTBLBKv3QVzZSOYSt1WS0ay2QfWpqEwEU1em6geLh/Hqu/yWUdsb3cGfHNMx12MrzgVbGgI1bqk/4OOQGYK0n28/Ou1OROka1JkpR06DRA64kqWSKsk+0WI5cg6dmNk1+c6d/GC9bIC7b2PvI50/OkyvdqQZ2RKYYwZyDAcuE3XO0MTfdb/xaPh69LFIsj5s2lH/WJ4VEnuyhsqWWKOkJAP0c8zQlU6gsMlvv6/4XI1HM3VTtTNP8F++ps9FCxId26L9RVZVI6AERLLEVZXQGVblzGdhi8UoIVVXMoFmsAG+CIIylJF6RB1UDteKjaCgaBSIoqhPkAiDlUBZadNScpQcq1QfI0qoNFQtMSdipAF8UwIxfJ2KK/ymhtZL0WPyzt/gGydwkDQ6GClLFEISNePk4Zt07qXw/Bl7ryWtRhzeJFud1cQ4SFxhV6y2zbnlhs479sKR7t6utdQMIeNu7oMrNORombXfkhefLR9R0oR8OVavbKx3ljHYDApWssQhchk5KREgQJ5heGNxfUNHxXif7X2S/+Y8zkjiW+ofZ64xIikqD1UQjWza66KOBpWYdQaVRFQa6RXZlvvlpxqxUOoecm/+Qee397qnQ5pOKrBKXYqVJEKNSouTL3ce/2b73wduN8KyVZ21P1v79YIbHp6JjKBISilJTFRqVYbWiFAM1Au53LjM+clGpExU+ceIjKG8mPWMjCVlPvl7sk+8hJef0D/P3Pl9Q9//49bERHb8TvfweFoPKqMzpzCls3Li6fCtx8uvHRt5wzktyvrt/Kk78ocKLbSqcccOxjCiiqM9aFVKJAb1VtuR7v9U8TN/UP7r6Xxisj755PS3rrc7b3b3grgnrKBswhUXSBRKTZbhcay7Dtvfthc63Hyz9rImJavd6u4bSeNKpkjU8/n2DDNSJkjkBCDX+q3uvidb3zhde/esO/Z4/JoLjU8WPzlsjSAZUh6sE6l1IZ15rPONx/lPO1nTm6ztXnlr40GBTyihUEmltIOVpaYRoxLtSXrP00Wj2lDdcwC5iLyO4Wk69+z0X54vzitly7vjtxcfy3XIiAeE7RlEbqvcsglbz+mJ5MpD8vJefeEebHCWgzQh8aAYLxmTMmnFixWqVNEWsyRYYZAxjDxYfP7ghT37ak83pft9e/Rkee4L7hd2uju9wVE9aQBKg56Ud5/o/sWz3UdOucNGPFauvCt/eCNvb0lruKzBWCCzXN6BFyQ4eFJXp/G7ss+/3nzh+drfKOkJ2vd45xtXN26sU916foFFPEA/mUpJE6coUWIl3WNzVgJeWNa0JzNHWhkxVacZ6EippFt6ChfkKg3FnjQLElGsMpan5dyUnfaGRKktzUGcDDMyESi7hi3HJVxipEwMYtmJ+15of/vlxtMJ9qI+KW35pP/cDbilhmFlixJNtUPNc/H0d9t//Xj2jaY7n0W3OezYPHwzk2OVJO1xWruVbjwYn25m2JO/8rv2L79c/uq19RsbvCLXYQIitduY3Nd96Vvx62839kROPvhd/nNDtsKnAmyRSIkUqpVIPmuipOhVQL2St6yzTQfj6TPF6dP0HFxc3lp9U/1eh0blimfTfqSEqCcJhNkE0TlgxBKSmSMLwxj+ZOPLh9tvPp8ebeaTz6fHWt0LD7mfvZnvr3OR2ZCzoQi7QGfP0smXuo89Gb92MtsfOLk4/PHii1vlllxrbM4AZVWyRBphiaBIleOXBysTXnZc5vWArCcJqdKr27BAg+VSB4J9YgzZ6l+Q/7rsTL2Ev+4WZ490X/397vEnO49s97vW0oYRLR+UtgAAIABJREFUGZoKzeN29PX43HHZ18nOdF2raDdu1wd+vvYb41gLcq6ye2D9EALNkGHmxSG4iuNAHJZ9LP/s682Xn4vfNrNTtXcfjX98JV07zlckSkYCglkiGPUUZz0basi3050/6P5Zuzh9gcuMsbq59s76xz28kSnDVHoC1VAi0p7CBmfJKcIWf/O9rX/0OH3tfO30aXn7T9O/eHHyL672Ny13q2vk2910BHtP2MEj9ROT2el6Nx/trPpC/R9fadvAzsFUYAhK7JPUom9n5/8q/T/PTz0hF+/6FSCKoBJaX1Nu/Fz9lwsfXsH3AgLMbaM71ssmjZcwTKR0kCEMPzD08L7us1NyvpVNfL/zyK31T9UtJwKDbdA6AlOQKgdlAyIsLZIUUcmjE2pbcOfPL//vfm/i/PHs0IXs3Evu0ZOdt67t3LzZ3bCcNwy7kckw8XZ8cw+ePp29PZ03A3VH0qq708/8o+JXVqcNZX9XXdUpmslkJCKFVXKH/X7HPkoSRNI1uPYL+S8fnHr17NAxQniWHr0u3foZ/rkaDS86CKkGA1IlYwNV6mkh9jLoLtUKZICiJ8/FCotGRAO0caKRKaqkdlGiXpQRVYYFkUKUp3Duz5r/+jH74yql3Yx7QstzT0WmHFySq+KNX17+T8Z1LZgWzg9UScWTv9Zueij/hWPNd9+vnZh2772Ab+6N310zfdUm3LRWr3Su6HSah/yeo3rgeHb4XPF+rWxcOb35iyu+OpZWmpiSOXNjccX98vnXwg/20N5E5d741L/p7tvYvX6Lv2ssrSupc1reORzfPkr7p+VkkiBa2xRuur/xUzUahc4SvQjCJtzTQlIgVO641XLldbrzKF5tYaKE5irb3H2reI1o3SiB23lFSIIBVnn2YFW7L6D2UlfQgIoDg7CKNv5k49cuTF/Yje/Ad/bq00fCmzfozTeFT6yor/XcmNT330m7D5TPvefePu86RK5Qvhuf/mT2KzU4tgwG6scHyERATNV/JFAEAgblh19uXOb8A1KlRCZsIiZGiJTcIi5aVRYzso6kK3DVLzT+ST5Nz/Lfdml6qnF0Dx97M/59FjMfUXLoSkq16NRcyMbK1TvTJ3966L+50rZ0pJunGhkSp4RgrFXTk8og2S+QgcmUTKlcqZt+Iv/Sifb+o/5As3bmpfKx58Ndn/BfJmUjkHGPs0RInLwOQSHMm/NdK6c3T7hzGaRh2E63rLENxkLGRBS5NAIbO3VkZJyMUrVMEaHBy39yxX959vT51/DU+dqpicbEucbfv5FejYSiy1Qr2tlZs9hGUdf6ytb6+4qf/kT+FV+ygiRliYNQShJVEwuVVh70B07KIbm4LKUS9SRudPjKdPI2un9i+p0zxRlnIe+O3lE81NBxRur7LueBYWxEt8g9G8Pmt/BylO7r6bkj8fWtfKeRd8bVq5vfDUQNSsaVHouSLjKrUpSVjEyc6Xbs/PLYP/3W9J8cDM9M0+lTxcH37J0f4M9raDQ6rkOuU0xHmWKVzNyazpV3pV/82ZFfW47VwccsEUgip4RopGQi6lyacQvMBuVIBYTEXbYM7K7Pd31q+it/Yf+2JeeTP/f16d+5YWjbFuxamHY0GKQgYpA38SnLU+5SzpWeLs35zgJkScRQldAiZZBcosVKhok6SV4UYooqaxcME9LMpUK4Pe2n92e7ydiZJ2OlOMBtaw6kbKCmGgIbLyzOVb07tsQpA9Xuzj7b0fafT/3emfrBlkx3fHuCj76O57JUyzpOcjddTKlZMivK4au613+p8as3pjsyLhJIufShgO9cZ7d+2f7Z75/77XdGXjCxY8OnT+DMM+kpccIgZnSyTktahYlAtnRu/cXsv7+Wt/Wbz0DKMJd8Di9sPjGjWvwFhhoN3cR3P6d/0cS0aN7Q0V31hzxEEpIwQ8XIpUxSQXAwp6DIPTffPCR4pwAnqMAKkXiD7vrHtV8fafs9eGZawsnixDmeeLbzPNREFRaIY8pLOC0pH+2uesge/vTQr63rbOpxmghGEJCo+OR9zLIojqr7J4V8lGGBReNy5x+IT3kR6wyppaHcF+IHprnMB8GUDAQPMYpX6dZfHPpnm9rbXrWn39HXLvBUgiUrE0dW8bGWRYzZ6NVh+01yz93DD63Ta8iMrR45OiNR8uJ8zPJQK9BwOpRRg4rZBOM51wUZGYtots3feW/74ce6rQk9SVGfbz1x8+gDa/mqLEoRao2wrF4uy7O6FA5mHQlCGNZV1/uPn2gdcdmFke7YLSM/IVTAfCJymowkD7V6GItKeWg4702UzJcSssDBxTW25atj/8P3ute90P27Q7yXzWBUZs2OY5fguhk4b6SxrWnH3cVDN9c+NRxXwFWEMxWlhIZLuYsjDqO5dYfhlHWBa8ycGswZJEN9Ws+9Gl8u0phq90rdflVte2a5cmkYmMvgIhlbMZqu2C4fOxpOtW0aCXuar2yr3x04GZnXAe+X1GWxMaTLQFwLo07zRadKCFOpxIZYhLHb5LMrGte+0vn27vKRA/xWSzpVwcg2SuXSK2fl+Bq76jq6/vb8Ezvd58bD8uRD6k1tJpo5yrJYFKnOFhudEQzPv1mTZAZnDKgqROoPj/3Sgcl9r/mnDDBr/eDsX60b2bjcX7GYOiRVuVMy71KRh3pRDpN5oooWWSXH2UAGcx6GE6kPDZGcfE8Nd8D7gHOpyOJQYSM+pRw5Wd8rqV6scNpwsWvmqwLLdWVFamXBJzf/dCZsiQBOTs0FRjYonszmteLxGA+l0QeLnx/jdU/Hv9qnz09qs0PN0iVCWdZbRSi4AyG/Vjdcr7vuLD65M7u3US6HObhYZT9oykHhLvfpxujI4+V/3BdeOZMdLa1jBEU3wZjEJ7emu2qFLttiH7u3+NIt7g4P00rgiwmIbOqTz9Ows5DFhrOC+lslhm3Jbl4xtXayPOfi8DVx59WjN0CrRE8lrUVGUWYNDEeiArnPnBDZIB8GgaEpsSQps+CEYuDGdnxiVX3jM1OPPM/fOeze6mgTMmlc0dgpGTkeWqbj1+jt9/FDt+X3NLAqZklShkypMp4AUe9TUYQRH3IvdVYPSKL4Qyh0lwe0GFL/h0a07ttx9+H0RrLuMFZu9btWyFqmxegamkEVLEowNVgi0th9Tw69pa+8q2+faB/r8KRS4pTXdHRtbf2Vcu0Wvmm1XeVdQcZQI+IkqaoFqJQuxDNvhOfP82mCXI3tm/OdAndRcl9PFM/UiIwSh2PxwFvx9Q5NO0OehrbX7x6j8fPx5N74YtvOZtbY4naty65yVkRShin0SHr7YOflKK1ch7bW71yF9WJ5lWUcEN+New+kl0vuDuuKm7L7ltEqQIySJI6cxJyl1MKFd/TNfXjhdDw+Ec9M82SUUJS1ERodz9duoE1bsH21bHLScGBQzwcFUJfCqXhkf3i1SRdAnWr0DihAqFVYRxsY3cAbT4ZjLZkws2VYf31+yzIsNxCTG+BDNSQCAWqdw2nf22FvB9M58vV0zTZ/G4SrQkALe3EL0/vLV47pPoON2aqdtY/XMcyL4jIYkAxciUxV8rRtTB6Nb75tbx6LR86G4x2e7FKnpsWIrFzjrr4G129224ZkJVvhql1gzxyLMEkoT8S398YXlbs+FvfUv5hRo3JyVfsaRVWij6vspsiBlPamF47G/dVrGqMV1xe3jvGahd6bgbdvBEA72nym+7dNvsBJNmLb5mKnZ185T3suDquSTDRaPFi+fgi7FTqsy270ty+XNQCDBhROj2g3dWpv94XTOOlAa3njDdntBQ0rzFAeDfv3p90l2mZSFRZxalW6DC9QSjYyIJHxMl29o3F/gSFnvd614IkqNhQpJZgYlefi8QP62lE+fLx76Fw6G7nddu1Gd2SYlq3O122iG67nm5fJWmFPyRHIRA1UFQdPlBgU0DmjJ4+HQ/uyF09OHim1HSwYgaUY4dGr5apVvH5TtmuMVjmQM6dMrA6sBi21e7i796DuUaejuuq24oEa1XoFQNEOVr5aPjmBU2z5ONZvy+8pkBGcwdioRVP72s+f5IMGXotNO/LbxepgGuAvgpKRgbRHA9HIIkoJoeTmMXvrnfjW+51Th8OrSskAQV7Q6KqhDVfRli3YuZLWOjijSjVHqZIdJADpTDrxRvnCJM56uGtl+6bsRrHsIy+MvEhc3vVATSOCUVXgjRgZwy+kSC8SUUtiRHRL6wS0g5UVPybnukORUeHhAfBCHS6ram+HRBGkChWIR/2HXjEhpp7Mlvb5gURKyqHSFyRkBOfMoadOGRXBEAzKYMAxPMNTTydLE0qlYDA2YcuE5gu2GEwtGcWAsmutYJ1kQYkY7JBnVGRUCJzALYzLRzMjNUS1AIoGZfgPdtNTL00vEZggAs/Wj/QM0njsRUcRFGqAoqw8Sw6ZwM+4xRe8uKhVbS8YwQs8w3046ychGpKB1GKp7YB2tE4iFohDXkjdIycTgSzMY6/SEdWiUjAkQHOMLuaiEV1DAlIvKdrEUTaIar4APb0kjegmRMAEIuYIDBJa0Mozg7FL0wQQRODY3KXeSOy1f9JeFRB2vepAlhAUZSXOsTjlryqQKr1uoNxT1VrEgQkpIUaEbmoF6miVPQ52yAuuO2RiTkguZQFYz/hTQKN2OtoK3IkUzCDmHHtPnpF71By8VElo7HoNBoUpiCK6CQlgByfIq1CCmholo6hIBhDYozbT8arWjlQmdAnC/f6PxYqRGCr+F6GLTol2Fy1KKVJKiIAUaNTQ8FYTchVFb8DxlpQUMENpMIYwnCC71FC63Li864FZVcNPq0z/qp7VIvPDFyJaYjDULEGYLYIogQBmq6hilBTmFq4HF+3Izagi5C1uPBvMtF+4igAkg5FWgXEy5tmqVlCoQWdkGgnM1RLSO9W8Xb9hQXakzdiKil7tI+sbK2JKmpCU1EEGuLB7d1vZftXB8kF9qp+hZ5SoUo+Z+c9L02f6FzEDGKFvfssHTR6x0hytss24x9/4UH09IiaoM0eRKRkJaQpMvjqhiSYkEGTg/VjvDSi0Sm5dqO8/GNrryz0nxMyeY7HoaZhXlJGK9Tu3R81eR7WaOJJVybDcy0asvrXgimbVpGbV6cyIaaYrpmrwESC6iB05WRXjuehKixoipoiVncSVksIMeYphpAERRA4/ZD3oXbAkJTNBsiTMYqLQQMoQGDmuol+KXuev9B5hZuDeGaj36nuWS8WQVfQ4wm7BAtyr1AeG0ez7WOx6EGFSyS4pqSJK9ICqWDIlEksQ4QUV0+c+eE/CzBD79gEvioJ5eXB514O+h7SKnlS55bqojfZAJANXJUNNoQpTSwQTcqRVbyMywwI9bUB783Ov8Rc7nq0nxjAL6lE4Zp+o15n6J545sPf1OcxKqzIcMSO3bgstRBhMlZgUs48Jkqqz8gyhiQa4rxWzmacEg2Fmtbro/HOLwpgREc80yMyK9YGNo/1vsc1p20v707WfuNk/btCDLw5qpn2hGEVKCEaJtQZAiKvadXwpWr/1JU6p1xKL81nN7Qa9J+Af1agxnTm0t2eovFM9LFy6bLaxLq3ZNZsWZ9YvCTL7zZ6aw+LUk8h6psTsY9Li5sX+tAtCsuo5K+uWmIj7GUc8+IX3pAErOR4CFKFyERKIibmiaKGXRMxSHaIzho71LKZKBdIWdEXr5/X3Hmcgz3aW5rXIR549uVYs9v5zGLgLIzMmCJiTKdFA7vb8Byfr6xD0inzhR7qVjwqXfT3A3CE4qxnx4U42R62rJ1reMwR6mOFzXwzFjK4LXaI86qXuXvvN0xsnRH1ysl3yiebdzpzbmHvrbINnLUNVIN76PbR6QxUvrt+/MSgvUU37J+w3AdkgGvOCiEK1iNBs8vsHze5zHpMu9ajzH9zm1CyeadAP0w1mR83s5sZI+/VlKzUSq2aOhVP2QmHSxdqB8zZ2P/LNz30J8zuLDeyymOldNPjI/veoT1wd/DIM8zfIA0Ho9wDMNDMW5do1hcXZ26h+YOo/2gf1WJvnFjEoRfReJFd5QjT71qpeOXPmi0fP4BbWwYPs4puYbb0PaurBh/a6hypDQehQYhCjRym81FAy6EUm0YJX9+NNlB8el9lfhDlD9wMJ14s6W28yUAXQczhS5fiufEY9o3uA7dY3E/Cj7gj7U9nMeai3KZ+djy56idXGc/Z55/bIOQZfFc0afA/VY1YFIK3ncnME9KQfrW9pXcrmmPnV3PVjFgOSg2dKlS1mGZhzoz/iu1zc4vFDT1K5fAxaUe8VJn2nXH/RHOxt//DX/+FL6keMmVH5AWq+QC8QPfe4+T2j10sXk1BNc3YrP8rj9cvJ9CQAUA2bmcmbegmJA/1d1YXn/mPG3TR30pCqwi71/Yy0qIl+zkI+Z4QO3CEssrUHXEDJqshH5W9Nms1uQwg8gH19iQf/h5/7B+GyrwcG4348thLp+9BZ2Dp3CZ/jV7Xenz0lgPll1DDTy+ZiAIVg0P0n65lv1NseoqqxpXOGGvfHT78v26x53u+4PLNNmXnv/TGzYHZe8Jjom0d98qgNPBBqfRPNLj33DRxF/bJ8s23ywYNN5zzC3AsNblIFCEq99mEF/2gLzxxYzyfWd1JVmb69Bq/UzazvGZhnJpthvvznol2X6eKIyqImoznQuc6mxURpE1Lf2J4RsBxwRUPERVOkUk/o5uKI2aJusu94wdxe88Pbp+exqcp16EUTbqWP1D/tgB47OxP2JQ177iVKfd86z2Rc0/y59aIGqfrYzC/6I25uJnkClBZUeK1C2X3PwsyrWWRw0aryJJXZyCBKbKTG1TmZQDwoVrbwwednhPynIBf9A/iLlrCEJSxhCf//wH8CyaQlLGEJS1jCf4ZYWg+WsIQlLGEJWFoPlrCEJSxhCT0srQdLWMISlrAELK0HS1jCEpawhB6W1oMlLGEJS1gCltaDJSxhCUtYQg9L68ESlrCEJSwBS+vBEpawhCUsoYel9WAJS1jCEpaApfVgCUtYwhKW0MPlrZ+8hCVcjIWqgnN/N1d5dVbQj+YfaFXBr1lt5g8pjreEJSzhIiytB0v4h8SMnGNfEfMiKeKLhdExsz7MVe02s6q6Sb+a29J6sIQlfERY0jddwj8QLu5nOkjGeWG9sPn1G/oC4rNywGYDKtMuYQlL+BBY2h8s4R8AavPrZRoMKaaUUlIzsPdenPSrdvbqav1/7L13fF3Vlff9W3ufc27RVbW6LcmSLfeKC8am92YgBAKBhJKekEkyk/IkmSfPJG/KpDDJJDNJgDQIJCQhgSSYGEIHA8bG2Ni4ybZs2eq9XF3dcvZa7x/nShZYBhtsSYbz9ce27tUtp+619yq/5T0yzK7rMrMIQSllO7aGp1wPKCbWY9dv1sfnnYRvD3xGBwGIDWsSMql4PL7/QP32HTt37d7T2NSitXXysmWLT1lRUlSgFUgMgSFuMmWamppranbV7Np9oL4+Hk8UFJcuWHjS/AXzC/MnKE2KRNh4fXV9fHzeJr6/yGcUMAIFkBijJNnVVP/YU8/89nd/3LO3tq2ts6evn5SurJp6xTUf+MTHPjKxOE8jRZxsb21as2b9n//yly2vbm1t6+jq7k4ZzszMLiktP//iSz728Y9VVZbZmhWntA6O9Q76+LwT8NcHPqMHiWmpr7vz9p/+9t4/761vdg2EIKTFSE3Nrt//4S8LFy68/JLzIKZ+35677/zlXXff19zcmjQMKAYE1Ncbjfbtqj3wa9aBL37+M6X5EX2E7SB9fHzeDL/+wOe4k3JBqZS40b37d9z6/Vt/9PPf7GzokFBGRlZeVsh2CAzWkuzsaH1x5/6YSTTv23THT//n5z+9Z19LvwlnlVZMLaksjzicKVBKg2NurPuhhx7cvr+VGVChsd4/H593CP76wOe4oxTEYO+uHT/8r+///t5/xBKonDL9yqsumz9jZs3WdXffc19tcxuxiBvrbG1t3Lv33tvu+PU9f4u6etGyRRdeePZJM+Yo5a6+/3er/vpwfzQBQJi7u7vr6urcOeW20spPL/LxORb49sDnuKOUuC61NtRvXr8untRTZy+85VMfveLy84vzMrdtKnzqqadrm1sgIEn2NO//3R2333P3X/pV3sVXXvqRj7x/4YJZE0IRQnJORd7+mj0t6ze7EK8MIZFIMPvOIh+fY4ZvD3xGAaO0M3fuvJtv+nDeEzsue9/1l196bk62Vibu2LA1IAKoRDK+cc3jL/d2dMb1+ddd86XPfWLe9DJlg5gAVVVVOXlSqf3SZkMKIGYWES8/1cfH55jg2wOf4w+TAiITSt7/kU8tPb+7vHJKMAiohCTdzrb2aF8fEQB246n6un2WDpyx8sovfO6T82ZWOMQsBqSYAAIzEwjCIGilg8Eg4BsEH59jhm8PfI47BCXMKRXUmaGZ0/NASSYhuMKppsbGro4ur+7MAtiOTFl82mc+99lF1UWaXBARiRIF0X19/Y1t7QljBBCRUChUWFhoaT1U5Obj4/M28e2Bz/GHNGkoIgBKg6BIwKQlEa3bs7e9N0ZiMVJCVl7JpOtvvvH0ZfOCNgkBJAILMEpS9ftqOjvbDNmWGKaUnTOpOD9bWeSbAx+fY4VvD3yOP0SgQU0JIsBSAgb6entr9+ztiyVFbAYFQlmnrDj1PSvPDQc0mAgsAgUCMUxy947tHV1d8EIGwuVTZk3IyVREwr5F8PE5Nvj2wGdMEGLp7mzdt78eIIgoZeXkF1580cWleRkuSAmIRKAVXIZCMr711a1NHX2AhlIGgQXzZ2VmBBUR/GxTH59jhF+P5jMGCFhJsqmxrmZPHYsiMHSwctrM+fPmZFggT0glrX3HAHe3tezesz+aEIIYZtiROTOnhR0bwiz85t/n4+NzBPj2wGcsIGOSA3trazq6+wAiiLLCU6bPLi2ZoCEaALEAisGkIKm9u2v21NYDJGAhFSksr6ooCdqaIL7WtY/PscK3Bz5jAAHx/v6dO15NpESEFMQORsqqpuZkBwiWZsNkIICRpFjsxmt27txb1wQISAvR7IXLSgonWCTwFwc+PscO3x74jAGGTW93+6aNmwy8ELPKyc2rrKwK2tqIACwQQIFdIfT3dtfuqe2LxRUgAgHNO2lRdnZEgbzHh7Th9PHxeSv49sBnDFDC7U21e3e3DWgoCqaUU1yaM3NyHqAUuVDaQoBIxOEgS19z256dtTGlFSwNheyyqbOKI+GkSwoKipTAiLAMY6z3z8fnhMTPL/IZZQRAKjGwa1tNZ18MhoxKQlR+UXXZxFJCeo4iAEEMSME0NTXU1NYaFgEYqmTSpKmVFRGyNQtrr9WaBoEEfuNMH5+3g78+8BlNvEaYnByIvrJhU8yIhs2UDAQyJ1fNzc3OTDuEBi9LUcqYRHtLY2df1LAwQWBNq66eVJxvM5Swl7fKRAIS8t1GPj5vC3994DNqCLMBMYD+3s7NW3bEXGEROCqSUzBzzuyAQ1pEkWKIlzdkGEhF25sb+hNJAAaidLCyYnJhdlgEQkYSqX21+1PBrImlRbZFWovyVwk+Pm8Vf33gM3qIGADGuE2NdXUtbSwQCFzKyJkwf16lEhkcyL3/hUDkxtsb6wcSKRIFghPOnDhpYlbAIqXcRHzDM89/7jP/8n++8n/XbXg56bree3x8fN4a/vrAZ/QgIiJx3eSe3Ts7YzFARLEt4QmFJZMrcskTsxiWLkQgMSmkEiKkACMQ2yHbsl032j+w7vlnb//hD59+YS1nlM6YOW3WzKnBQBYBvnyFj89bw7cHY4vnT3/tKk04XZkrJEQiApAiQEREiIggLEKeKhCRCKfT8NXBs0k0GJQdD4iBaFZsFMgoiQ3UbKnp7ksRiSWWygpWzFxYnBmyKN3OYFCBQhOlXFA8ECaAKQRIsrdt3ROPPFOVu3fH5rt++9vtNfUxk7Fo7pyzzjwrMxyxRIHAAI2XPffxOZHw7cGY83qXnQxK+oukJT4FzAzPGABgEYBASgQAE0CkX5uEL+NsSPRqBAiAAvV2d9TW1sUSMRYAHMnIWrr0JGukrpfMsAOR8qrpGRnh9miMQOSmnlr913VPPuiaRDxuVCB72fLTv/Wtry05aZ6jBb4t8PF5G/j2YGwZGrmGD+YEIoCF3VQqFR8YiPbHevui8UTcGBZAKW3bTjAQCIXDwUAwGAxatmVbNlkAhGTIiz5ehkUhJoESIlJi3M72pqb2LkCEtFIUycibO7Ni5DpjpXQgY+7CZXPnz2155vlkwlUMSqW6k9DBjMKKynPOPv9Tn/j0/DmVAYuIXZAaP3vt43PC4duDcYHAq6JiAgmDRQZi/fX1DVtf3fz8c8/v2VfXH4slEkljjABaa60txwkEHCc7N2/mzJkzZsycXFk5oWBCXm5OMGhZSqUn5OMj00bSitciAgXEk8lwdt7kynKDoFY8bfbcqknZh+ljQKKC0+csvOXTn3bBW7bsYAPSNpyMWQsWrVx52YXnnF0xsdjWAjEgOU6Fyq8rcBsnR9XndafG+1kpP0fmrUN+Med4QMQIGBASSfTHa3btWvXQqgce+Fvd/v3RaDRhRJgh7I1EJAwiCDFEazsQCgVDGeFwxqy5C2+55eNnnnFKRtABiLxYwziA4Sq2QIZhwNod6Oju6R9IuK4VUGKUnVdUGLK0Yx2ysQZCAgVOJvob6g/sqNnd3tljByOlZRXlk6tyszIzAtqCCBHAQyO1AHRME+eGap4pHc7xAuPj4ti+y/HaaL/ujPin5i3jrw/GBQIRYSJ0dXWu/uvffvqzn23a/KprIKSglOUEc3NzSooKsyIZJKa7s6O5uaW3N5pIpdikYv0m1h/r4Na2rtTixUtWrDiFodT4qs1SGJQsFVJ2KCc/FFEcSNnQLEyWxTED69BQihIIgUG2HaysmlZROd0lJUQkoom8w2bS8XjvL3kBlWMeS2dmYwwRaa19YzCuICJjDDMrpbyzM9ZbdALj24NP/vK4AAAgAElEQVSxhMUo1iAWYg23u6Ptzl/fc8dtd9TtP+AyRNnBcPaMOTNOPeWU+fPnz5w+bUJuNsQ0NTRs2rzx6UceeeapNV2JBEQErEnCkayi8imBgEMQAgv0OLkzyBuooQAmIpBNRIAicYm0AoNFjdTWxht3BURkeTVq2uu6Kay83SYlitTrvu1t2UIDgEWDBAICgU1fb09rc9P2mj37Gtsvu+KykqIcG0QndqCCkQ4z0fAUhlFn+JlKt7tgYoKGEOACJKQBKPGUDL31MYEEIPE+waTq9+5Z88JLBSUTq6unFuQXZGSE06eHBEKAEBGEQAaDbfp8RsS3B2ONJ+ep0N/d+vd77/rZT26vbWohtlghq7D0ivdce/017zl5/oxIJKKU8uY+1dNnLj315LOXLv7P1NcfePaZRAoEVpD8ovziyVNsDYIhGUedASj9V2vowQc2NCzY6d/YGW+wrQRAKQy/lZX2cmpHurnfVn6RCIm4BkmCQ4Job1fNjm1PP/7U0088tvtAe6eJZBZXXnXpqfYJ76M2EABaMOg0JoyFUfDsweD3ijCzqCSg4VJPb3tX30A4qygvN2wLIAxNIjRoCzz7YeAOvPDkwz/48c9TKlxeVnXxxSvPOOO0KdUVgYClYIgdQLRyQSJ+L703w7cHYwmxhkqAlEkk1j735P/87I4Dje1EokiJlXnxle/7ty98enZJKVniRcmGUk4dOzhj3uLPf+nfth/Y9eqeFmFxKVxQWFwxsTg9gSb/0j9aGICIElg2RBIDdft3rVq96if/+8vWls54LGpUuHjyvIb9B9wkYJ3oeUy2F6/yRmQlnkNvtDdCBj2EQ2WIirQI4rHena/uWPXwwxt3HDj/4is/cO0ltn2YkYqQSLr1jc3xWKy2ft+unTXPP//cgpMWX/eBD1500cUFhVmOghYFuEASHPEFGd4Y3x6MJUQQBQHam/bdf999u3a3sCglcC299IxzP/HJW6aUl1iuEWUx82vc1qIomDnvpLkXn3Pa7roHBhIsVqSwuKRkQpY34xKMm9XBiYGX78qiksTEsfhLax/735/d9uA/n++JJckOl0+etvzU0y+85L0rViwPOfZYb+3bRgAQEyidoDw2PqNh1SLieXdMIt7SduCRh1f/5le/W//yJtfKK6tckGIG0aCD6OA+EAjQgXDGdTfcVDix4tFHH3t2zTMt7e3PPfv42rXrrv/Apg/e9IGTFlRnhgOAVhLAYZLYfIbw7cGYIsaIYjexY8v69es2D7iWUEqLzp1Ydt1NN86dWhFCChpeGHP4+4i0IehQcEpVVcCyYknXCgQqp1TnZjje+oBBWljgRz6PBBERFkMkkGR3V/Pqvz5w16/uXr9hdzTpRLJLlyw75brr33vOOWeUlBRqQJMhnJCFDszpMg8lIuQVwCsSKBkbgyAiXsWMYVfYtLe2vrR27Z/+cu8za15saOgwQtpSEIgQCxSUiPEKawYXygKC0vakyVNvuKn0/HPPeHj1P+/9w583btna1dv9h9//fM/enTff/JGVl52TFXG0WArsVW76HA7fHowlrASkUwM9WzZsaGruZgURuMqZMWvB0sXzQg4UAyNewSIEAyeQN6E0pJ12SuVHgjNnzwmqdBhZQDKYn+rzpgiYSAD0drX//q5f337Hb/fUtiWNlJRXXP6em99/3RWz504NBclCSo1p+PWYwMyx3o7oQNIlS8jKzIhkZoTGxL2oIAQhSDIW3bTx5b8+8MDDjzxeU7szkQIk4AmYC0lazFyGu7TSWQNEJFAgEmQWV1Rfd2PBrLlT77nnD3++/x9tnX0vrHmirbUvJfTe954fCWh7XOXcjUt8ezCWCCmGxKLtu7fv6e1NuDAkWpxgRdHk8qI8orgoi0aq3CWCEpe1NWPWguuuvXbfQKK0oHT+goUWcYoJKt1PZgx26UQmFouu+uuqX/38nl37mhKkS8qrP/rJT9904zUF+fnQDEkoCIkGnBPUG+dNqwcGBp56bPUjjz1jdFg5kQsvuvCC884cmyoudkX4QF3dg3974L4//XHrli1dAzCAglKAEWbFTJC0p2jomDOghnKTiDRDUgRSys7IXXrK6aWTKoKRrN/ceXdPj7tzx8vf+d4Ps3LzLzpnkRPwcpNPyHM3Ovj2YCzR4hLZqX609cT7RYFYlCEm23aURYQgAVDuCLLkREoHFYLVS1Z8bc5J3nPhcEgAmwjQzmvl7XxGJClwJAEhKBsmvn3tU/f84rYd9c0JtiM5ky/7wMduvPGa8rx8aK+2IYQ3CrqOWB196Ch7hC875riAUkoTUpJo277+0V/88t4klJM/OWPSinMvgCMMOo6b4Umbe04qglHCbirV09e15pkn/vyHex/5x+O9/SloSyvKNKZHK1cURCzpAzsEZQsbGAWbGKxZvTaLTIGCxMyAcmBZ5ZOnf/nfPpvoar33/ke7exNNNS/c+pMflhZ/f9m8ctsmkSSREDSxBhh0mCX4uxJ/yBhjxPOiikC8TGlA3LjrplxNYBJ547tUKRUOh4ce+g6io0IIYBGlDLj7wK7bb/vl+i17TdKQDi8/67ybrrmseEK2IdFHNKM88iM/ns4RYTDPdFS2SkBgEu7v63l188ZVD/x51eqnduzaz7ZVNr2qamo1+ntr1r0QTbhGRMAC+2jTpgVkhPJLyj5xy2cbGzr+8fT6uEm++uKau+66u/DzH5tSXqTg+Z5kqDmrzxC+PRhThNLpHV4vSPFmUan65sam5t7S7CwAjCNNdveNwdFiCaA0CKm+jnt/++vHnnyuZ0BI7IKyqhtvvmHu1IlaMx/F7PHYmo3RQkbFsXjQ4yNkzDNPPPZfP/ju9q21HbF4QXn1slPPufLKS2fNnJRsbfrOFz/X+vJWMcaQAPqojphXAA9lM6vqWfM/cM2VNbv3bK1rSUW7Vv/j73MWzr7pmkszQsryytPG4bkYa3zzOKaQIiiQEIkiKFKKlCLe9urGF9euT6SEQe6b3aw0yCht8zsIbZJJsdhNbnr+8bvvva+xMypg0bnv++CHzzhldoZjCcF+M4EvGYSZPTkd719jzPDXeE96P3hB3aEXH/8dfQ1EaqSrZZSiTV55eTKZ2LdvX2dKlpx+4Ve/8e1vf+/rl1101pzJ1XNnzFi2ZJ5j68EK6iOesBIpBfJW06RF2VYo64xzz7741JMybBswzY01f7nvbwca212xxK9SPgz++mDsCQYCeXl5ltbiMhOzJHuaa3/7q9tnTStetmTuiV8KO44hIUWxjrZHH3pw656mFCxSNHfJsg9ee3VBjiUgQEPMEd8mXh5keqGm1GsGHaXUoHZkOl0y/fDdFPUnIhFF2jrz7HMvvGSlXTDtvVe9Z87smWFH2UbICBy7aGIBKa+CjI7CHiBdxc4QlT6ulF08ceVllz767MYtdQ1u0t3y0trHn1gzaeLVdtBb88mgLrw/l0rj24OxxJPNzM7JnjdvTs6ja9s6OkiISJTp3/TSmh/89y8//8WPnDJ3XiDg24TjQkLZNsf3bN/y/NoNSSMgIJBx9oVnTC/L1+CUguNaolJvPFowc09PT2dn18BAXGtdUFCQm5urtRIWGqYgxczRaNR7GTNHIpGC/PxQOPQuKSSnwaozIRJSWXn5X/n3/9AZEybkZljasDFCtrGViRMUCSlJh82ONiojakiMFoDOmLnitKXzq+r2N/QK9Xc3/+m+v1568QWZE7MBA+JB9ZR3xSk4Enx7MJYIAWAdyFy6bPmsKQ+v6exMkg2Jk8DEe5959EHbiuNfPrts8ZywgsUMAivlCbydQP6hIU318bbRCiYR73315Rd31jYrwEBKyysXLJ4XztBDdQastJIhCaah2bwxTCTob29b88zTT72wbnddQ293ZyCgqmfMv+rq6xctmm5bDozrKtFAsr37yUcff/HVTTX79vV1x4zr5hblz1t86mUrr6yuyCfl6bcJSA0mCh+3A+X13AMpKC+H33glAHK8B0U6+B9pIjWxoipdRSDQmoWEQKR0ujZuuEjR0X3PkNSgMOlQbul5F5z26NMvdvcY4YE9W19+dmPNxKJFtsUQmwkEM74uyjHFtwdjildl6YSnzZl30UXnbnhlSyrpMpQhQDje0/rPB//ecODA1778pXPPOT1kkRZFTKLe6q0ypoxOp42jMjkWo7O9df2LL3X3JUQA0lXVM6dVV4smEtLkpRaNsDgTownRhoaaO37yq7/95Z97GxsSSMFoS/OTz66vq+/6j298Yea0KQK2WWq3b73ztjv+8tcHD3R2JowhYykIW+Yfjz77/Not3/nm16ZUFpISxUx6dBaCJCBPLUUIXibDqHzvkE0YNiVP/6gI0INi5YPP8tFf5K9JlRJSjhNasnx5flFeXU8bRPp6Wh5++PFLTpsXyvL2mvwY6nD8YzGWKCIiMqBw3oTL33f1ykvPD9tGyGsuqQBJRbs2P//kF2755A9u/fHOA60DQoCI4bTj0+cQjsrqMNDZuP+VbbtjSRYVsJyMsqrq4oJ8GvYhrzvQnpY4cWz/7q3f//a3fvbrX25vOCAWOcTCiURSBmKxtS89v37DjoSbgElsXvPc17/w5dt+e9f21sYUSIGMSSRN0qRSfa2Nj65e9Zs//LFvYMArwfU5hninUBMKJk6dN2dqyLZEOJHo371lQ31zjwEJuVregsl5J+OvD8YUSc+CWDvl1dP/9fOfNSbx4GPP9/fHGUKkCRB299XV/vQn/7tx87ZPfPIjpy9flKEDJAfndOPNCTMiDQ0NW7ZscV33uG5tRkbG8uXLHcc54m+J12x5uaWzmyEsKjsnd878eRlBB2ntT3gGQAb938ICMm4quXXTmv++9UcPrX42oXKXnLbonBUL9+/Y/PBjT7b3pCCcSMQ6uvrdVHzbS89951u3PvH8BsktOGX5zGVzZg10tT/5xFO19U2uKIs5Ge14+JGHrr9mZdaUChuSrrwdjbXfO9/6kLcGErLDectOXrzqnxsHUimjuHX/7pdf2T5j6ilBi2EApXyLMIRvD8YSUQoimoihYYfnnrTkC1/8fCiS8/cHV3f3xozxmkBqoWB3W9PjD93f1tbyqU9/5rLzz8oO2zQ4Fx7/9sB13XXr1n31q1/t6uo6rl9UVla2evXqCRMmHOFhEbfvlc1b2rp6BQawM/IKplVXBWylvb4UlE6OBCkRobQCnGlqPHD7bT998KEnSE+8/PL3ffyWGxZML9q64bnde/e2bdihIAQYTm1+ad0vvvHtx9duzK2adf2HP3LFJRdU5EfceM+qBXO+9q3vNXRGhUSZeLS7rbt/wECc0asKg/C7I6uJCFCwnekzZucErY5+GKHejpZtO7b3J5eFNPFxj5qcYPj2YCwxAIE1s4jFyoKTMeekk7/0fybkZGbfc8+9PdEBV5QrBHEJbmqgb8OaZ7/Z1tXd3XHdVZflZYROCGPgbWQikWhrazve9iAcDg/P+n9TBnradtQ2RQcMAQQVyi0uLsi108mOHgKIwICUZw8EEnD0hPwCsTLOv+y9X/zyZ2ZNywuQyc7KDzoOabGMsUS3tuy76/YHHnp+S1FV9b9++YuXXXJpUXamJiMSueKyi/94zz2tPTuZmUTETXX09LjiuQDfHcP0KMKiyaL8orLCnIx9ndGUi0Qi1tRc192fLAiGoBSR6w+DQ/gHYixJOwZEtEAAA9sORqbOmP2Vr31t7pw5v/jlr1/Zuj2eMkQuI8BMimO1W9f+4NaEMXLT1ZfmZGYOS0YZnpkiBwtCB3OsvULo4XFokcEO8UTDxe+OrHfCmzo1ZEiEcqiNz/EOKQ+1kDuCDQMgPW0tbd0DLoNIE+mC4vLsSFgpEcOvU38abNgiSlFRYdEnP/7lKXNOX7hi+bTJRQFxIQZqQISFjdbU291z3x/u5rY6Kqz+1Oe/9J6VFxZkBRW7LJbRgUDQ0akkuSkRAMrSdlZ2Ng1rwPkW3EVeW0gI3uTUDRU80NDlAcKbFMQNFU0czLI6QSARr+YzJ6+oYlLJ+r2tmjRDWlsbO3v6KS8TCsNsv49vD8YUGwBpaE3ezyDAYaVzCydd/cEPVU6f9atf3P70U08eaOsDEtCkGLZI655dv/7tXZWVVRefugyBJMGymKDiih2wBRLQABMnkhSLpWKxnqByQpkTnDBAsFiRuG4qlYjH++LGVVZm0A6EI44FgiuktLiGQiOqBDCzEgG0USyU0OIQDpH2EUmPHGIYIKR7MGitg8FgKBQ6rsczFAp5JmFEqyACIhcQsAVAkOhqbIpGWwVsRJEyxaX5mY4OQEEHDr6NrHTShYJSFmBBBfIrQ1eXFoeckCItJCTS39WejPYqsVh0MpVsPdBamD/xY5/88GUrL83JyvbmqSDRcBPkhnSEyFGScq2wY+VmOwEHimSwP/ARD7kMowQiOgFjS0ziOqVtRSMaXQW4YBfE/QmXjYl7iZnMSHVI3I1RyjqkapdESCSlHBF2OGaUo+2QVhBiElE03pNzlIgoJjhWOCNvYpHSZJBUFOhuj/X3JpPEAVZM1thou45LfHswLiEEw6HlK1aUlBRVT6v+3W/u3N3UzgIRTsDhVHLnppf+9Mc/Lpg9Y1Jxlpe37bW/FQURglBfZ+fzz6559MkXWjo7nEh46SkXrlx5cVEei+jOluZnH3/46bUvdcdShpy8SVOvvfLS2XPmhLQ3i/dujhEmqUQAjLCXC+g13R0hU5EEgNfRihhKIIowd+7cr33ta8lk8rgetqysrIyMjDcLqwzO9UnaWzqjPf2eAjKLKS0uDBxZ7zNLaSsY9Bq7kwDMTU3NvT29DCvBpCWOYObpF156w7VXlRTkaph05gAgok1/rCcWN0IgC1Dh7JKczExFYGENLYO590eyGUMzdpsQ7Wh/fNUTLbGEN9s/xCgSQGAGTHd3xyPPbgIZYSDW+9KaR27PGAhaUCMM7kqJMWQLgFQ8q6ji7DNPLy7MocGV3zhnaBMDgUBuXq7SShmwMa0tre1tbaBJXinP2G7kuMK3B+MOIkUkENKWXTW1+lO3fKaqMP+b//U/ew40iNLMSklKYn2PP/rYi1ddXTxhWdBWTKKghAAYRdLZ1vmL2+64+8679jW3SgrJAL34SlNmUeX7z598YPve22+/7YEH/76vtdcwAFgZOeuef/5Ht90xv6rQghJiSmeBjyBxY0wi2ttnSAsllVgYySAQRIFT5BC7xgpmhENBJVOnTq2srByFe09rfQRqTumsruaG1p7OXgUwoAnFhXlB54juCPJalnrONog7ENu5o6a1vQtkAyTgafMWvv+GG6ZUlFgwCkzwyq1EQO3NDa3RLsMGohztlJRXZUXCRCBSg7L+RzrUegaZBJpMtL3tnjtuW1e7PznyuwniCfwws9vV0wOwBiHWt/aph7esfzIgwoeccYa2JcWwBBpKzVl23syZM4sLcgTe4mDcM+hI1ZaVlZmVXq8Csf7+vt6+dIreCbEjo4VvD8Yd6bGMAG0prXMLit73wZv7EwPf/e+f7Wvq0nA1GSNWV3vno48/fc4pSxxLwxPyEiNuvLmx4ec/+8XP77grKy9/5uxZPXV1e9u76nbvXr/plRVT+Aff+t4/nns+nFt60sSKrraWuv1Nqa6WF19c/9z6V2dOOt0KOQaWAo84QzVuas+u7bf9/M6uvoSQq9J6rK9BABLWYuJWxOZEIL/8YzfduHjuVACWNcYX2+CNryCAEtfEY70xN2m8divMqUhGyDqyijACHdSZYB7oj9Xu3d8TMxbYJTuUW3TWRZcsXjArqNXgSovSkWl3YMf2bR0DXQRmBRUMnnLaklDQIREi77jLwWjQmyHD5ukibjTa297Wljh0xebVf4nSRCwuIKIsbwmhgXgi0T0Q1SLm0OgO2VpSAg2yhHRff8w1PDjIngBd4kgphiFAaaW09pK0PSFhSadYifhLhGH49mB84pmEdIdYRLIvv/LyV17dfM99/4jFDEMLwInkhhc3dkUHciKOJTBEJGRMatOmjb/5zd0z5sz/5Gf/bcGM0rt/9N0f3vnngAy0Nez5r1sfe/T5DWdees1NH7pxbnn2mkf+/u/f+O6euhY27oHGVpNMUchhkD7c9FS4o6P1H6tX7a/vEjJKeKSpLBHBkVRUZwdNLHfqSVesvOK4H62jYOjOH9x2byxQdLAXxZF/igDCEG5rbqyv2+dJT2mgfOqM884+Iy8z8NoILAPC8ej6Tdt7BuJEFgA7t2DJoulBWxMJM5PWEKSbtBzRZqSjwixiSNnhSCQ7OzByLqmXjM8gJrBJxPqSlginlKWDkbBOKvChuy7QlqQMLBAprTJCWiukwxwnVIE8i9dVkwhHtQB71+Hbg3HLwbvNJeSVll126flrX1i7sabNQBFSMNLd2h2NJxkghngF/1agctrMj97ymUVLVpx25qnoa3TCJqmg+zueXv1AmDvOfs8HP/nxT06ZPsWm1LyTlsyYXLq/voWZiSwS86YqGE7AysvLjidsASsYxghTSiIJcCpo5YU4FskrtOzAyJ819jBIAGESIwKlUq45irz8tDUhCNft27t/7x6CSpFjaTpp8UkzqyZZad0jr8uRCIEEPe0tr+44EItDiw1NE6fOKSvNs7QiGKSTvI5i2j0k+2BI5RYXf/TT/3JxT/8I43pai0nARmmJDfQ98+CfVj23F5JEKOP0cy+7/KyFpMyhcWiBssR1YTHYJsktmzpxYvGJYwUODvvMnEymRITkxDJko41vD0YRSUFsV7kMttkhSSssCgSw0r5jYnpNmgcBcEiJkzlj/rxpU6s372pgWApEHOuL17f29s3iPBFNMFCOReHq6jmf/Vx1IBAIBlRXe2dfczdcx7iJxqaO895z+S2fvGXGtEqbIKSUrQMICizRidxMYidAlNLQAAlGUN1Ulj1z9qm/uetPxrieA11Gcq54wxGTIoF2nImlpcfzmB4NLEIKYKgUkVFiW2J7Q4QighHHDhyp60CYiVyQjZQkow27tta0JpNQQkkEq2bMWTRpQlAJgYwSBiwRCLnkqgN7dzU3N6cb3zmRk05eWJyRaRPwmkytI20Co5HOU7VgZ2aXXXrN9S7zoUscwmCtCyzA7etsSDbveHRNTYrEzsw56bSVH/zY+aE3FjHyXE5K2Zat1HHUuRFhRQLy6sN5eKH4W4CYRClAaaW11gC5pGyBZmJyAWJifYTt794d+PZgVJG06LpJe949BzAJ0aAS+8hvExDl5uUVFhWlH6dzaAJKiUqX0Wovx0grKyvTAYyYZEdz2+atO4kMkz1j5sJPffwT06dVWsrLy5bO9pb9DU3JlIGdMbGkRFvpmSylQ9Ovh4hCoYxp06cTeTkw6g2qO7356KjJ2B0NCpTOwWFJj54iopQShhxlcxoR7u3u2Fmzy01rSqkJRSVTp0wJOLYnPiHpHngMMLupbdu2NjY2AVrIOMGM+bNmOIFDM5qOenwiEJSlbbFGtGcCkAtRAkWwUsGgpS1vMcIiUNoJOEEaWblvcDdHQxzlNZfKwdXKsbh+aEj2lAaFawcbto23y3NM8e3BaKKExBI3lUr0xV0CadsKBB0aViY24sRcmGFpx3Fyc3Mty0q67OUfhTOK8nKylFIChtGwPM8osYhWMG7ywN79O+qaoCicV3zJZVecsXiuUkLe5EtM497a1u4eQzo7p3zyxImWVoCQHDZ8gHQTF8+QqcO5kL18fBIScQEFknGXpS7kSWwqS0GTpBgQZkkZ9wi79QqIhIk0MXo6O7ds3+Xl+YgKTJ1eXVlemrYuIEVqUDhb4rGevXX7+2MJwIFyJxSXTSsr0fYxG2EP9th5/eaKZ+i8sybDjJ5AmL16ROHB59+B8VUR8gpjABxUUfV5Pb49GD28QZITsZ2vbl795HqlQ4WlZSsvvyQSUm+cdU6kBEilUj3dPcaYdGaHdpxAlqNBICZOmxGiodYjiYH+2r27O2ICHZg0deY5556aHdAMeJViyiRrtu3oTSSNCi5YetqkogmW8pqVDM2eXr8xwkLKJVIiXkYTH/oyAYlw2pdEwqINu7aScTHEUPqPp1KqlJVXkBvOCCEe9Q5ya1tnMuUieAQlCEQE0hBh01K/f0vN3sFppjNxcllJYa6C9o6OQIEMBEpUZ3tjze59iaSABY41ZcbsytJC8jTsjtUuHnqcZUhfmgalrl9bl3DI3P/QDxnFRZ6IHO4CPHooXYttUm58IOYti4UAS9mWTSKkTkDh+OOJbw9GDxFASbyv5+G/3v///eROUOikpactP/2scCiTYAB92DRDAgSxWKy7p1tk8CU6NHVmdWbEIQgDRDzYJVBBGGKivd1bd+52CVpnVEybUVlZpNLZ6sKKpK/z5Q2be2IDUAVLTls+ITOg06MAD/vW120FR/u6dtbsiic0oIRSQ8vuYSiQCyEltlgpZeVWTqssyho3l9nBlFMmsnIm5AYzguiIen0ce6L9rjkih5FASERBkolE3Z5dzR0DgCISHc4pr5qcEwl4U1ESEAkgRpgEDfX7X926OyFawYidWTW1ekJuRB/v0YiG/hs8Wa8Z7g+O9G9gs0fNnHtLHK/G/Fh8XDqtK5VMdHd2ELOXhBrJy5mQk6tJifjNcF7DuLlR3xUohhvv79u47sVYrB9K9fUnk4ZFPNWdg0P9oYjw3r176+rq0o8JkcwJF192blYklA5DUIJgD7lHwdLV0fbyllomRDKDs+fOy8vKYtak4iIWs3Tu37t/f0sqZXRO/sx50zJDKh3CECNq5DHKmMTGTetvuPFDdXVdgA1KjJBeBA0yEAU4sN2JFQv+9xc/u/yMxcfyKB4bCEBBcX5WdiaonRlK0d59dQPxOJDxpm9O65QLYtH+Xdt3JMVrLoPCoonTZk4P2IOdjoQhImQUKRE6UH+gozuaYNhI2uEJkydPDkUCig1GqQ3OCYCIMLPrGjmmDdtSyWR3V5dhz2mGzNyczKPRS0oAACAASURBVEgEzNAHxbV8fHswqhCJuG57W9PWHbuFIJzs6OrctaeusixXABEDsg7GYQdF6bx/B2K9Lzz3wu7afUYAUrDsqTOrly+dG1CWoqF2sRBRnj6dcROtjftb27qIEczKqayqyHAcIZCw1yfypfUvtHZFBXry1OrKsiKyPLcCgyRtmA7xGZAS27IzwpGsrBTEEgpCXi8mKlBeVgfEYcuEMsKWM27yTWnYT0QQnV9SmpmdSV6JGlF3S2tsIGkEmkREiA4r3QFhw6LBvZ2tG7ZsNUQEsLKKJpVNn1quRdIlzzRYAStkmDtbWlIpV8hAkJc/YVJZqaU0iWFOmST3dMey8rItx9u+UeuqPLwg4/giB1coB9cknk9naCbkpuINTY1iWEgRmMgQKRCMJ4MFBqnhseY3Dr6LQKAg6O/raGruYBEFEq1LiwoL8vJA4hICfgLqMHx7MHoQibippob9rb1JgQKSzc37V/3976csnp2VoSwvNXqYasBQ6ouW2LZNLz309yc6exMCDWVlFpReftXFUwrzgiCANQAEACNCxAZau8mBxn27YrFeG052UWVxcb6jhFigNIEl2fPs+hebe3tYBRYsWjA5L5OhFYSREgjEItChawQCFeSXXn3VtT29/RDywuOve41XX6sEgDKgjNz8koKccTP/GrYZpEGIFJfk5mbZUAYsxvQ2Nbd19ydYQoqHFeCOUMJKYFbKuPGOpro99V0CTRBywoWTJk4tzrFAooxACxTBFSgCizvQ0dCQSiVJkobs7JxQQUGuTRqIJxMDr7y45b4/P3Hx1e9dtHx2WGuLjkxk9m0diqG6LEorXxxPhn26iPBgeo8SKAZJWhWLySRbO7uJRUgpUVq7wmyEXbJsCIgHYyFDW/7GXyrCBHajXU0NrT1JFgti7EBBTm52xGFlXFgBMSB/fZbGtwejieHUwO5de1IpF0xKkOzrfOKRB5866+QLzj9XBSyVrpBKC64pMCBuKrll/TP/fetP12/ckUoREexw5NwLLrji4vPCdrqe1WsDK57rn8Awbry/pqY22j+QIru8onxiYb4i8tS7BDIQ7dqztzGWSIg1obKqKjvTCRj09rQklRXOneCA9AgJp6QoMLmi+vOf/9Kg0s4ITbYEECIlQgJXRJRlH2dN07dDMCNremVFJLiua8BoSE93e31TizunihWpN+kgRhB2k4kDB+p7o1HPeASC4arJZZFIOB3DFXghd08j0GXu7ek2xls7cEYwmJMR0SLMyU2bX/j+D37w2JM7X9xb/+OffGdBRSm9USrvCYpnXr1ovh4MUxF5KqRgJQw2fb0DjS3dLrMiBSCVSrS3NvT29UeC2ULpdykM2Zehi/+w2oUKcCW5f/f+lo5OEbgKQTs8aVJVVsQWEltGLrV51+Lbg9FDjDvQ17Nt246ka7QAEC2J2p2vfP+734sPJM4667TczKDjKJBFEGGTjMdaW1qefOKxX/7455u2bUsCxtKiQ0uWn/mxD390+uSJjiXEBgdFSRWlfSHS191eu69+IOEahCvKJhXkRABRWglpEbe/u7M/mjCEcEZ2wYQcx5LO9t1/vPdPe1siN3zqw9PLwgQ9UtKLrW0rYjkYlFQeIREl3fLRU8Ym9gLY43VsEx1cMn/+/RP+2XWgU5Eb7W3ftn3n+WcuDWrrTcO8RJSKx17dtq03OgAAUNk5E2ZMn+KljzLIG/Y8hx8zizAzExGUJpLujtYDe3ZV59uvvPLMj3906xNPrbUyKiaVlzk2DFJEevyrAx09nsfIWxuoQYcoswinEsa4nW0tf/rDn9esfSXFDBGBETbr1j716KNLLrv4wuyMQEBTurvl4NLNWyscvjODKIjrJrdt2tHvGpBi4vz8onlz54eCikBahEW9Xub7XYxvD0YPIdXb3bV3f32cDUEBLCAN2bj+xW994xuPPbJk2cknlZWXZoQiWlFvd9euXTUvPLdm3Ytrm5u7WWAIgez8xSvO+pd/+dSyxbODFgEGargGvbcGgIJpb25oampPsSAju7xsUl5m0Ot5I1AiKhaNppJxAYybaD6w5+WNa55c/Zc//O4xJ2fRlTdeAwlCRrowVFpVG2r43fgaBhMbCSTCZpjq23hEEJgxfc6kkvzahk5mMxDt3LlzR1dvLC+ULXKwFGFkfxdxrLendk9tLJEkFRAxuRMKpkyepNJBdi+TcXBGrBRIB8Nh5YmiMupqd/3o+/95f1Fk976dO7fuihRUXnHVDbd84ubq8lzgndmxS4QJCuIlxJlkYmDXnn3RWH8ymezr6W7YX7dh/YtPPfpUd5QNecKtBJa6Pdt+/F+3btmwbvHCeSVFhZFIRsBxMnPzJ5YUZYRsT05JMGJMWMAQMdHWlnUvb+pPugwCnMJJZTNmlFsK8CzzuL5CR5t34GU3bnEZfX298aRhTTBCBCYFFubE7h1b9u3Z8dg/V0ciGbaliCiZSPT0dHd2drqugdJOMDxtxpwzzr3wmuuunT9rSoajxBv5X99Xi4UgYur37a5vamGorIKSyeVlYXswmZRIGR3JyM7NdBRUYqDj97/56WMPBjvb2ysmL/rQx2+unlyg5HC1Zun0bUqHAUf2cA+Nol7oDyOKWowPRNlFk6bMnztzw5bd3QNGUgN1e3Y1NLdUFWV7GaWH0xMikDHc0dbc2NTsMglY2VZ+fvHE0iIF9nziOm1SFACGWIHg3IUn5ax6pqu5XUQnYv0vrX3mZU6ybU+cVH3tDe+/+YM3Tysv1hxzyXrnrQ0GKwG8BwykGprq/v2rX6k7UO8aTiYTA9FoV2e7xF1XaVFGuywgiJZU/87NLx/Ys+PB3NxwOGRblrbUvFPO+T+f/+z0yjKCl9EwYswfABsxjTtrtu3Zl3JFhIKB3NlLlkwsyYRYanBt8Y472G8d3x6MHkrbJaUTb/rwh6cs3dXV2NbQuHf3/ramA/WaXYLLrmlubGJAkSEiZhYQKVVYUrpwzqKZCxedfcF5ixbMKsgKW2SzAXS67vdgi8zBSbtht6mhvrOzG1ClZZXTplVbxJDB+gZRRUWlKy857/ntbS2dba0Nezubiy56z6U3f+xDK5bPz3QcxSwqRTgkL4i8e2/o9jmMNILXE4AAUhB1NPpso42IRHILFi9a+LdVT3THewF3V82ObTt2LZ87zVGDGp4jJz6KiHS0t3V2dBgIiAKBYGXV1JysDIiRtPs/XcjNAIgt2z7jrLMvf2XXb//4l87OONiAjG07i04/58rrrr/q0tMnTsi3hARh9ToJq3cMMljgIgbkssR37txZs7tW0moSIIgDgbJBRqU1jEiDwWagt+dAb2968kPImDSzP2G8SP0b5xfFk/G1TzzV3hslUkKUnVV0zsUXZIYBUcR4g2L8dye+PRg9LKXyy2a+7+aZlycSnZ2dLS0tBw7sr284EOuP9fb2RqPR/lh/fCBhDEQkEAjkZGcXFBZOmTJl3rw5FRUVgcBBtTWFQ4ZjSncsU0KKQ/POu/FbhQtc1y0rK5tTlkVie/otNsCakTnpkg/9O4oW7Nu3TylVXFRxxumnTa4qtzwflMU04oVB1ptZg7SsMg3NuQ6vb3SwL6+X4urluLCodJ9nIiJhVylKV9iSGhafSH8GeR/zVkdPIY2M0OxF82ZML9/XtkVAsaaWdS+8dOkFZ03KchyABP2WdWg9ggCWdkpnLvvcN27t7esD4NjO7FnzSzIDJJZWpA+eJC95RUPp3ClLPv2FvGmzF2zfWeMyMrJzSyeVnbritFnTqhzHwaBA3TG/JxlMokkAcSGuYRXi3rgdILYCbIdUv2MUkTm+qiI0lK0FgU3k5BdM+/o3v93T03NYmY3DU1ZWNr001wF7R/rgVSYY1MIDSAip3n17Vj/3XE8sSSI6kD116fyTZ1dZOkAiEJAM5bD6wLcHY0MgECguLi4sLJw/fx6zSQ7Ddb1SVliWFQ6FwuGwEwh4/V3frA3kQZRSCxcuXLhwofcWNaw/7FAOa15e3rXXXptIJIgoEMiwdFrcZSh36HgzbD0jgCghAUs6NjE46yPF6Xj0wd1W4MHqiDfSADwSiIxmXTll3tIVi59ZuzWaVEb1P7l69aYrr8hfPtvSECWBkVwR3hMVFeWVkyenRfWFPEE7ev2r4MWTiUgpVTG56oabPtQT7WOWQDAjHIlorS0apaqotGiTHZg0de7pZ6eynKAOZE6vmjiaY+LQ6J+VlXX11Vd7T6qjbGHMzCMfMRqKYQlAqYHYs0//Y8vefYYtIpVVUHTNlZcX5GRSWqmJvPD2uF2/jj6+PRgDRLxyJ6+DugoEgsFgaKibugxLdPQcnHL0QmNDrxz6rqHnD5Y1aB0Oh9P1Uhi2ah9dCEIigBHjxqIDPb3RvmgskUyIiO044YxITk5uJDPTK4hQ6cUAI62cRyNUzh0FKRIrnFV0wcqVj/7juXWb9xiY1tptd/3qtzOm/Ud1SZBgWXw4CREQ6eGCD0QQZqgRjmG6syYRSNnBUEEoPOx3x71Fl1d5LgQxTIRQRuS893xw+vkfCVFKSIdyitVYnHcZVOl9a/pIBw/p4Od5Tw/lGom4B/a8+uCqR+o7BhiuCmQuXX7O2StOzrBFs1Egz+XqMxzfHowBIzb4HZbN8trncaRy80OfqbV+3TPDGWkuNjhd8jiiWp+3hzAbV2sNkZSb2rdv7+bNr2xYv76lpb23Nxbt7x9IxFmMtgKZmZlZ2TlTqqdfcOGFc+fNd2xK11EboyyL3l4ZVbp/gLbnLzjzpg9ft/eb369vT2jue2LV/Q+effZHrzkj01Eu1KE3iVe6PEKc+TDKE0NnXECk1VD/zMFmmsd3bj64gmFlWQC0sjILK6rJsZEkgUuOGt0aXe8KfDsmcCTZPk+/S3F6seYmY9HH/7n66fWvDqSMtmhi9exr3/e+KZNKbGEiT63dXxy8Ht8e+AwxaAfo+BsEMal4rK6xce2L6x5avbq2dm9TU1NLS0syYYi0ESavU5Bnp5QOZ2T+5f77L7l05fXXf6CqqiJoaTWsKuktQ+x4QXLbzrnq/ddu3Pzy7/74z2ifG+9u/sNdv1o8o3zZwmlKH2Hf5+FtGN9ofB/8nefsGrWBWA52ciZi2BogUYBY4NHcjuMNQUgMuYlN6164+577m3v6QOJECs+79MozV8wP2F5Kthe18rsfvB799a9/fay3wWeMGdI/Gmwv63Ecx4d4f8+ffn/Pl7/ylb8/+OBLG16u21/f0xeFsksnlc+ZO2/a9OmVleUFBTmccgdiMQCplNvW2vrq1q376hsrp84oKixQCmpoxv2Wt8MQdBLQYLIzAiUFubu3b93V2G7Ejba29sSsGXPmFhVGjjj9c2hQPezr6TUqEQdlqEcD8pRE0luohQVqqGbl7bndxgPpimUSwI3veGXDt7/+/17YuG3AkBUILL/g8s995pZpZQU2aZAn666RPibyBo2A3m346wOfMeh/kkz2172yftuW7QPMhpQtjsnJOu200z9wzTVL5s/NyYwwpzo6Ol9au+bu3/x60ytbEoZdkZ6OtsdWryqrml0+uaI0O+S5xN9WbxMFwAaUaBEKzZx/2sduuaW+67vbttQm+vseefA+2zZf+tJnpleVB8AkKWgvC0epEers6MjcemM16tJw1wilHfA0FKs6sYyBDAULRIwYUgQQCSl2xU2+tPaFH976vWfXrut3iazQshVnfPFfPzO3usxKN7T2Gn14nzQGgZPxjL8+8BmCRm3Smhjo3vjPvz3zys6kQCgQdiZcdO3V//G1/3v6imUlBbk52ZnZ2blFRaXz5k6rrpxcs31bY1MLiwCUSiTq2/oXnbJ06sRi7bVzoMFy6beAF6L21hkMywlNqphcUjhh/YvPR/tiiYHErl07t+3cNqlySmFxqdZawVVgLxd2pPn0ER66sRqD6DWdcYaaA73WVJwgDO/aQCReWYPrJmKPPbL6m9/61tPPr+2Ns9jBU5av+H9f//qyJSeFHUuRUZQu4RwqpD8B9/044tsDnzEgGevd8PiDT79Sk2BSKjxv8Rn/+YPvzJtWEdCkxPVuWpCybVVcXJSMxzZv2tQXSzBAQr2x1IqzTp83vcrRQ4PasbmlRcR2glVVUxbMnVlbs7Wnq3Mg1l9bu+ulzRsHjC4onRwKBWywEoLSJ7x/5cSG0+eemQyT4VQy2lC/9647f/ODH/745Vd3xAw5kZwzzj7v3//9q6csXRSyFYEB8uoVfA6H7y/yGRMcl21tOw6pwqLSD3z0xulTSm0yJKy09mZwAjIgJ5K1dOniqvLipo4+w6QIJhlrbG5JuUZsi0DAyAmhR4vnNCMgFMw88+wL8/Ky77nnzodWPdnQ0L1j44YfHfj6s08+ed4lK885bdmcyRP922ZsIS+HVoRgjBmo2b716Wee/uuDq17euKW7Z0Ds8JRpMy69/Ir3X/vemdOqghZZJKSI/aXAm+Ff2D5jQCAQWXLGJZ8unOWKTMgvvuCiUxwSDcLB6ZvXXoxEWQX5uZOKc0mRQAu7MImkK4aF0goIxyBFJG0MiMCAsArQvMWL/6209OSlZz368KMPPf5ErKPh2dV/Xbd1J4Jfq6qYmOl7GcYcISEGGcPxZ5555Ec/vmN/YydDF5VOPvu8C1de8Z7FJy+dkBcJaKj/n703j7bjus47v2+fU3XvfRNGgiBAcAJnEpwlSqIGS6JkyrIk2/IkD7IdxavjIY7diZOVrO61srrb3XaSdtxtp+1lR3EcW4psWbI1UZZFySRlUpxFgjNAEiCIgZgfgPfevbfqnP31H3UfCOI9WjQFAlhO/VYtYL33blWde+rU2fvsswel0QZDu2/87WjlQcspoOx13/GhH7z+A4GWjWWYZEiOeFx8kChmGKHSXHSwIAnVL6+zdUJdBptCEjSGsdVrLvrQj6x7y3e9+f0P/OCdX/nirV+7I43Fi85ZFyy0NbVOMfKmlo4QQ9E7e936zsSKteefccst73vvze+59pqrzjhjRYiEiU0KLXyHcYv/o9DKg5ZTgXmYmJyyYMjZLWMmsne8MIAIZkHy4WAw2vUlIkKn7MHmI1FPbEwRkyh6j4CsDqFcdc6Ft6y98B1vf+vP/uKLew/PXnH1JeWJu1vLa4QZoGDZrbDxt9z0nt/7g8sml55x1urVUxPdaKKGkEOFaA4aFo8fbDmOVh60nApYzjtshmiImEQ4Wl9XRzV+l1Fz21/csXXXNCrCkoJPLjv/qnUXlp0i04JyY2c6cUTOx4wZCqAIAALKFauXrFh9QV2bmdHZZkA7tbBDIAAWTNLUylVvXHFGEwTexD6D3dEHWznw96GVBy2nC/OBoy8ZgATkmX3fuveubS8eqBEhl5XX3PiGSy8+rwMREqGRQeB1bhspKcZ4SsI1Wl6Joxkb24dyQmjlQcvpwyjFqo+y3MtYbXnysa98+bbdB2cdBRknV629+f3vueDclSWbYukU3U5KuYB2xjkNeSkx1HyWxkWTg7W8Slp50HKaILlEOuHZAyWlw7u2/eeP/9E3H948dAtU6HTf/Z73v++Wd3W6TjcdTbFxsmgnmtONYxP3tg/oO6c1g7acXhAIdNPw0N4df/aJP/7cl28/3KcY1em+9Z3v/MV//DPr16wAUy2jaGongJaWE0a7Pmg5vSAE+Myh/X/1hc/+3h/81x0vHgSClZ0r3vjWX/rlX3nzhks7IdUQSIfMwZHzSEtLy3dKKw9aTgHz7vs+/xMAZDLmSoz9evD12776W//P7z2x5QW3kMLExVe96Vf/5b9+19tv7BUO65VQU7vglH6JlpZ/aLTyoOUUsEjJHyBkdws+OPzQ7X/zm//ht7/1xLOgeRy/dMO1v/Irv/jBm28qi5wZQpuDrKXl9aGVBy2nBAEQ7GWVd5Sr2cMPf+O2X//f//19Dz7lLBQn1l+24ed+8Rc++D3fNVFmSWjzkbW0vG608qDllNDIAwpwyQSjhsPZ+2//2m/82v91x32P1OgqTq675Jpf/pVf+oEPvmfZVEcQgZNc2bGl5X8oWnnQcoqhy5Q8DR/85h2/9uu/eed9m7JCLHDWZdf86r/+Vx/50HsmO07IEYyZ8te72nBLy/+wtPKg5ZRBQFJARuo//tD9v/XvfuPOex4YqItiyQWXXPILv/wLH/ngO8a7kkQxMAPWFkBvaXn9aFWtllOAQAfpmYSn4eaND/3G//F/fv3Oe5NnK4q1F1/7M//0f/7RH7h5SVeBTgsEKBeQQcklZAhyAUA+1d+mpeUfCO36oOUUkCQKJno93LLpsd/5rd/82lfvnMsxx7hm/RU//0s/95Ef+u4VkyUtGgAoEy6TnJAcmeZEQHKVxsSTkq+ipeUfPK08aDkFBMDkifHQ7hf+9I9+/5Nf+no/K6Ncue6Sn/tnP/ezP/mBJZ0SBJEBCEGeAxxpuGff/j37Dg1t4oL1azvdZnXbGpBaWk4MrTxoOQUwu4P17PSXPvupP/7vf35griZt6ap1H/2Zj/3UT/zAVBfRXTAogybKSHqePXzgjz7++7fd8cBsueI//t//9g2XnW+CYK1AaGk5IbTyoOUUQDKl9MRDd3zik594bveMECaXLf/+j3zkYz/5QyvGgpGimWpAgiABnuv6wfvv//NPf+bhJ7YW51w7V2fBDMqwdhOspeWE0MqDllOB6gO7tvzhH338gcc3Jw+E1p2z7vo3bDi4f9vM3mRmogCHmxlz9v7c7M4Xnv/TT/7xps1bPHNy5ZrO+JQDJrUZ7VpaThStPGg5BdRzM3d99S//7PO3HugjKiXGHTt3/MHv/8cxQycVppTCoLYiJDOj1/XskUMvvrjrwMGDdS2gkxG9iW2WS7HdQWhpOSG08qDlJOCNZ7Nyosk97dj2yH/5b382c6g0VZkw4fDuPd/a/eK3vRAZQK5du3y8jBlWcDZzvN1Sbmk5IbSm15aTCQHUdfXAgw8/+fSmrKz5/BOiXsXpTQUsrV6xdKzbIU52PZyWln/YtPKg5eRBmgTPmj7cr50uF3x+Qn9V8kAE4F2mAjIADPbqTmxpafm2sKk72tLyeuJoKiK7S8q5fvapjY8++tSRysXaVFBBVuFVhJVJELnmog03Xnvl1FgRUGcUobUXtbScCFp50HISGMmDXHsIkJxwKOZAoArqQFCoiPLbXkiQi05QMDjpgLFd5ra0nAja/eSWk4eZSc2GQXCakPlSrTS9GtVEEOAxQzAzSMZXufHQ0tLy7WjlQctJgKM5nyIpmAQSRiMiARBEfJV7wwTZ1NEZfb41FrW0nBhae1FLS0tLC1r/opaWlpaWEa08aGlpaWlBKw9aWlpaWka08qClpaWlBa08aGlpaWkZ0cqDlpaWlha08qClpaWlZUQrD1paWlpa0MqDlpaWlpYRrTxoaWlpaUErD1paWlpaRrTyoKWlpaUFrTxoaWlpaRnRyoOWlpaWFrTyoKWlpaVlRCsPWlpaWlrQyoOWlpaWlhGnRb1MIRERApibQoiAAwawKa5LAQLs+MqIGv3D+Z9IyJ0muAmUyRYvpygAcAKAafQjCHH0P0Rw/rcLzhUzYIJTgXA1t2vKPkIGg7jwPIdMEo1yJymSWYBgzV0MkDfneTYSMLjDDMRrqmLnhKEWCsqbSpUCAYnEMb22qFKg0SHAARI0b76mAwTMRBzTLCccIhC08Hrz5S2PfpxHy/IReMWenn8uxzyhUaMMyEBwZiGGRVovJwmnJAZvnjLdoablBJxuJ1YfEgSINWBE+HtU8pRACebIBoNAUeYCCApOsfnNfOVRvvLYdIIQxebFEDX63DG/keiAhGgO0DOtGa8mABIdCqQvNjSOq6fYNMRNLgaAhAsuBJMDBrojCJmjAXPsqQASEAAKefSKIyz8TqMvBaiZAvxV9awIRwoKAJ1OOBEgihJENDVbQXGRyy0+FAW6AImiAIUF82czIx3tczT30tEnNvpP9JeKyOLo1HHqOS3kAZXlUQSRiQAZmNB0OAlCcCATxXEnCk44cwThzFSEM4Wq9NLEzOxopt1Fb+sZmQgmg5DMo1sjfITmLcwEmxf7WBIT4FQQZA7AKCcAGp1uWc3IW0BGNtCF4A5SHgiDyTSafN2UIUpREMwAOGWNbHtNPesE3E1BEshMAQYiuIjR7G7JFhnW8vk5u5lBqAAfydxmMhUCoZdEggO0o6LxWKj51wACsyBTJJg4etUNpBYrnzyS9Y0QGknMZtJt5i1YDQBcMIyFDBlycGWzzNxRhgcFHJ3DGqH+mrp1UVwQPJglR8wIZB0WjNhXIDuMDo1EZpLM5VSgCBpckBq5QR4Vj4vIMyFLMBUACKcTYGoe8UjJEZA9F8YqW1MvV4kolMUk75AEMxQABxdePwmEQjOPjlQqGDx7AIjgkHlWpJyih+zNOAcXDgwomhwQnSBli0s4IQFRaMYdkelxMf3ouHM1mh5kSAEGD4qUNwodEZwONe/Bwmv58deWICMD1WhnFLDIWy6ISXSHQYFARspUVBFlhIM1mKTey5pLB+x0EAmnhTxA7lBIsQYRcjABNtIpmAlDNmZDudiZjV4Kc1k2OVAmzhU05hgUU8imhRoHRAkpKkPItGTIqHPoRGWDOwsRiw1OCMqoDKUJQQCUjM46eAxOCMGDQnYsMskG5MxOHq1zcjILIkXKKSeZmGvmgBBzEUcvvbnVxSIa96skwDs0ic3rCxlc2bymmVgCip5gxzfVIQEmmgMgLLt5pgWIXgAIITsdMlGCNxND9FEfHX+1ZuU26j9jM23NCw4DkZu7LGjGS8qbjfQpwekiANJhbnBfbNal0QE6CzFHVMDQ0Yu5mFfcPDhP8PKAFBFSzwhfRB94hbOgih5gRkQ3UCCzJVNk89zFZO5MgQzZAIchAxnsLriaCS66ZUOCHCgSY+bA0S0ULQGAW6CDXsaizsEpK5TMa1idrAAtKAJwxMUWeqKMotMzEhjhwQCgyHTAg4LlEkRmt5XTpwAAIABJREFUgDngZA7ePLvjJ9kBLdADaAgAjDURj3vtKAqhZiAUMHSjs4iLv5ovH3kicvCYkwmQoaDgBsLNCziCMYeUFcIiNeSPb6rTRZtfzNZC4GITCx1icAPAIKcUREdBENYsSwooGuCWm7csAHbsauGUQi3SFyedGk6v4tDBgJIAkRrNkYAhSCYwLlQgXRk0OZizuSknMqYANmM0yBKoxRYWcMEkQG4OkdLA6lJFgGeWAGKzXl9EQ0piBJ0cgMgoa1SGaDDATIFwcJEzmwWC04MDzBVzo+gSwTyYqJASakOn0WMzs6CM1NXCF/9V4RxCXTADnkHAHBXgHQ9ESGYCoot2/Oyleb1sfukihzsYYFBBMjSqamOAahRPJKEmDeocfzX2BQIGGBHNR+uKZsUuc7cK8ICxBR2WCFpjOWyMHchELWQAQEEP9IWrdkiN3SY4JOSYI1EPQh29DCoaswh1Ys1FksNtwNwDBSaDga9KLEgZYKabgiiIZDYPTiS6IEcGUgGjDEwGCAVULjCgNgqSstURiUJiSIid3Eg/WgoAclDFqpMKY3LLTkSPyAbLVTAgFAKgzAXyebTEkxOQhJSYBUaVmXDkCEUv6KQNnSVYN/0iZqq7sLuJDEUAYkU4FGHh+HnRAVcVHWBEJVmilwvG2KL96hg6HSgCZF6AWbRmeeCjtU4iQtRiqubxz0hgAiE1KkXmYjpqwhwB80iVEGBCBpweUwoZMEMwmViNrOGgQBFEaNcHI1LMQooeHCar5MkQzQOoxoBj81POAphMJjfR3S0jFxW9Yxar2Lc8HjMRErhA6YAM7mYQmBJhKbOMFb1wJngMERK0yIKZ8KKOIFWkDpBkXmTzIkGBsmRDklHFIq11kB6zMjOFAsrm9IJuFkxBRCwVoeyszaMRNRNlidVRrVvzpviFLJTsxDAjR3Uyh8xdGQNrKWQ3yigwsKYtfBuoo1Yak5dQNqag5BYMDiFZCHCnmrUNGmuPGSBhuKBhUXBnIhCQhUBRRjcX3GDBI2WL2dia0ykpKbklQOYmNls9VVCPvtiqnU5kIQJDSrWXdbRCsWadWEeUcoN5FF/JmPj3xaWspJxgFTwFWSbCq5AHkpSyMxtDwtBYSAy02iqIli1bMijmSBhYAESorFmVLbh8MoCkUyjkEJyscirIWmY5Bow2JXI/1J1UmphjlRWcJEpTNg7FEgJRScXx/SM46FBMRCZKVKhc7kGFd6LHHLJH0j0pC/0ij5ksBwnZUB/31R3DAiEoUJZBNwYt3CUEkKIcCHKHlwWHKRw/xhYZ/yTRvMbFAIcILxQN7gyQU1kShcCcbLj4FTC/K9ksKenuFWlUCZVkuVCfCN4Ba1hyuStIymGYi1oOuc9bOlmqMMXgkQjNPmdc7GuffE4PecAUM6LHaR7cNHv/tL0Y2O3liTXd888K53XSuKgcUlxMzReqqHJP2vpUejBkDOuZCVuzwd4apNoUkwm2yP6QXBwkWFQJhBf1wtPpMaWDjl6P8cLOG1dgNSwTC9QQIkVkU4Bls131ls39jWCtxHN52fp4ZQpKyCGXC23a2eQY5uCPzN4+G4+YW4avwtmXdK+KPtHMq6YgZCAxl7M88HR1/2HMhqMmmGMH7MKJbMFwpqmj8qru+0rLGXlLvXnf8LFE92xrywvO71xWpLHa0kL7u9MpWY5COITDz84+eiRuz8hdLL2qc+Okr6zLIZ0QZsPhLcNNB7Sr5sCEqHDMwmjUHgOdciBYWaI7XixZzbOmsIxeRpaQ5cagu2BgWGNUFgQhpBpzL9bbnx9sqUINcCnD+vK6lVyDxQYGYRSNUh3miuHTwzv6+Ug/zHZz79LOtSvDugyLJ278O31L9dy29LSYjJy0ZRd2rlqOFX/3WZKS6ifr+/amXSXi0IaXFzesLs5VZmV1Vx26nug/uBvbolho4tzuNWfGNWU2mTwoLBzXqFgHQ9jPXVv6T87ygEFdW3pRcfnSfJYMmR6kmPzeuVtlLOHDYsA00YtjaztXn5XXBA1zlGhhMcNBzWw5WNCL9vzW4RNz+ZBgkgdpQ/cdZ+hsmsBMFLv9xeequzNClDsJMSgv+Prei91xW3pG59wxX9JBETAm2bFCSIQsC9rrL27q31ubRWUd3Zo+6hixYPALcBam5OgMuO+sePll8Q2dzKqoOirg/lj//v1hR3TOL+N0jKnz6PVJgOSEwmRYsbR7bscnO8wFkyksFMgOmiKRk3Jtg1k/9Fy16Tl/+kB6cdYO1JgzsLQi2JLVWndxcdW5dtG4raCKV1J4TzKnhTyIijGZI78QN32p+qNNnQcG7hPV1Jvy+z649GfW5gspJvrCthKIynRtDY99YvAf5tJMTkcuw3vWj1+5AstnozJNKBa+NkCAOmAVPNReP1Hf+9nZ/29n7wWgWNlf9v361bd339/laJ/n+DMlkxvyERs8qK99bvgH02PTZR6/pf7xs5ecD0RJlhfrWtZueXva8alDv7NtapMzyOfOP7Thn6z7txfouqAIVmLOsAAHsN02/cXwdzeVm4xpEav8q6Cslq6eXXbRmnf06jAbZ2+vbn2g/2f9cqbM8QZ/94/0/tnK6txucbyptHGkMA/ITHG4JTzx5/3/9PzU/bPQqrl1v1T+xgatFCqkXsw41Nv1lek/fqx710x3X1SIXuRRh730TjMz0505KLCOvaq3BKvOxWVvHbvlCt44npenmGurA3rHd5hs5BZjSqgHOnL/9F/fxj+b7U1DOnNmyYem/sWbux8cW0QeGBQAmAflol9uv2P69x/uPT30uVWHz/7BsZ99+5KVpU+80orkNZAw/Nbw87fyjwe5joYzfdXHwv+2rHjHfF8s8qpLklRrePvgM4/k+5LVucBPpn++iueFZF5I0CAc/srsn36z+1cW6sn+ylviP7m5/IEV9TLCPXhY8AUK1siWoE3hkb8c/u7OYnPMxQX5moni55endSjdw5Aqny9e+G/93zw8figiDzAsfel5Myt+kP/8LF8DBUQ6GDwu1H+ddUxhiLkH6q99vvrD6e6ekHqJ9dJB90ctvH3sw6UjpFKqd+QnPn/kP+3t7svhCGSOuGAMM1bjNSo3nVGtujK96cax924o3lKie2yPCZJYmR7PD//32V/fP3HIgMCFa+HjffBEREfhWT4ZmW/yH7vUrrJqLBcD0eZs9i+mP/7YirulXCzydEa/yTmPWmJFJ3VW7V91Ca5/49R3r4/XTWLpUS+5o62tjdGjwQ7anvuq2/62/4Vt4amZOD0o5moOEQEEOcbqXmm9Jf2V5w2veMfEB67pvm0ZVi22PX2yOS3kAUmU2QnW2Ftu3TX+nMSZXvfWI9OrfP33+Vm0buEJ7GC0Fw9gZEMKKnNUnfxg3Lt3Yksmzp7dWReVGMYgs5ecFl9+SxGhVA+QFxrktK+3a8/k893E2TJ+ov536+y8S/LltISRhSRmAqginNYVA4BCGNjhHRPPHu7OTKXxubDbTV31IutF975Bec535y9tWfHgTHGgQsjwQeh/c3Dnuu4VghfoJM1Fjknjuagt257u7v3ls3mBY4ZoRR3mysrhE1WnCqQNqOPHU5n39nA5stOK0o500nDH+JaZ3t5uNXlxfajjJYrsISy0ogfAAz1k86Ljce/4szvLF2pTgUzMeSd3MM4CiFXI5aHegW2956rOjAkFQoYfVZ2cED0BhmSNR0+HCFZ62Ii7bp/7/I8U/9P7wkenuCSk8UUGo+gmcwKh8HKvdt828cXnyqdhRyrFnZ3iguFXr7EbI84BGLObZXgXJiMyzTxnxtBFiXrb1KEd3WfAahAOH0zTFTFmdqKMRU1TD3YPvRC25ZDK3D8y3PP7+nf/Kl+0PK6kWEDmxcjxcOSeYhRlaehHjsR9z089PAjViv7q4FJRMcYJFDBk9/1jWw/0XshhOGMHgvW7ighyYzHvm3wsjp51BGSruK+3fVfnmSpgYmapibmTA0NA6SQ97Z3curt3cCyjirDOjrm5qZ228fLOTd28NAhkjSAuGMdF7qZumvPDz/vGreOPTXeOTNSogg7HlYATya1rajZBhtundr1YPE9WHoLJBZIBMmneO2yiLlMYGvbg+c31A3fOfv4DxT+6efL7V/h5ZSrAVEcYGVCaBn2b3jm5baZ7WPCxOlRFmjUvhPH+kumxwwGKOs4mjCLLDfDx8bklQxuoGCCW41pKVRV919JnD3a21absRVFHlTOkZ0DejTZSklx55AxKFjV3dR/fqG/ePvf57yk/+r3Fxya4tKCxondJmYhQpxTStLZ9qv+7t+kzVW93bcFRZclCgGie3fPhshJn9hUv7glbH9Tt39v/2PuLn1oRlpcqlHp1yY4jsAK//cbGieW0kAcLyVSfgzS++0tH/vPF49ddEi4tXlIe553Qm5f5xG2Hm+CIOYQD1TOfPfQ7/3jq36zG+UDtkGBUMHWA6jWv6uiaxoGtw4fdWBWOZi825McHdxwqPrQinO/yqM68qzOIWFQTJaY8pAVNZT/M1fBO7oFlL7H0bm1HNf1RE0MuY4o16+RLXMi0HKrvoIeORwgiwDrQg7PrcaxeYUymQJlgMgmy1PU4rENdCymlGOrahqD3457PVX/iZfE99mMrrLuIfsQacDESEIdP1/fvr7apqNjs5wmPpod3aecSv4DMMAABbMTOyVa1CDVux07UQexU22c331Z88oPxo0vrFSocVkEd6mi0xSmFDkUwu9EpIFchPz238Z2Tw3kR6Vh0D8wqk0/nnZvzY4oWEGtz4HhDkNMAgcmYI4nheJnNrSLjyDsfAFBZl/Ku21yY8Wh7Jp//zOxv14fmvnfynyy31QFmWtxRazrEpdWSiMrkZbV8wkLgkEeNR6OZgfIOw5wh9FBEUQscnAAAtSEv4RqrJ0wuGbyLONv8rTnFPc/GQeGhT8jSrrFn/rT/20cw8+Huz67yNbRSyGjc7cxn8r7Pzf7hHfzL6fHtBak8VuaJZVg2VU0Wih584NVA033sn+nm2VLggS8Pfmc4N/0jU/90eT6bIZcarW1OfrTwaSoPBNT0XPa32gNf6P+XZeO/vEbnKNjRmK8TKQeOva/KOg7T2PRDw1v/tn/194x9dMKnAHdmemDjgvxaL+6yLdq4jU9VQSbrqDewYV30X8gPP5nuucnOswzS4JRlpy/BylvGfniG77YFL0Vlw6/7n2/W4xEk0vXhPRfbFWM+2fz1aAtT0JKxyUmM02JGhwqLGoVfM2p2w1hFuss61dIb+b3X2FsMZiO/EYjyYFEOt1kOt9nTz1b3bykene1OD3PeMb75trlPrC+uuMHeXGLJ8TdgIgyU3GftwL3VVwe9A7Jq2WDptGVZ/UJ3y91zX7uo+6bS5ZGOYMiAYxHT+uuNmpWroIpIxZx6O78694n15QVv0fvppYdMvNY4khNPNhVEzs3EDVSxfnL48EFsn8CZos8HhC4kycMWPvF8fDqHOiiPwmdejjNIErMxw+NyrX6zvessWwsE0DCKZNRhDQ6l3Xux40ndfyTsM+rg1I6/mv3EsnrNLcWPRY2LQA4LX/Zz6tXvjz89npfK+iiX1jY0zc2HPY5iu0RWRSeqLhxFjOfZVWNpaqEXj3kYGy67Of7Q+bh4AmNOz0GZjUeru7uZ1XX1gm/ZVN27zR6b7s7UHFa9A3fVn75scPWKzvvA0gFAEe6cuUdf/nr4wsHuQRhiLi4ZXHdV9y3n8tIz0zkd9Wob9uPsNHZtTg9/Y/Yr23rPBePhzsFvzH7urP557y8/VlinkAMhL/BlOQmcpvLAhAI0R7b8EP/iimrDqvJHqEmAZOOA6MdEJp8Y1ATWMCXDbDH7jf7nLqivuMbeXlRl6CagBopkKF7rlDqIRx4b3rfLtlacGUvL1vnF28NTR8qDh4rd9/ptV+VbVmKVh0SZ0wlbhbNvKT9SpjDXOf5rDjW3ZWbTC2FLZS7HdfG7bgk/EXi8/d0UCg1jnkCsxZrIL3u1FphcF0KAoxioRSOAzFiIie5m1sXEpeGGd5bfFxEpI0eRdjXGCvQL1XXWXDm3p9h2W/XpLw7/66Fipky2O2z528EXrxy/utDUAgNOAQWAQ84+k55+Ij8ysJng4dr8XRvz4/u6WwdhcMfgi+/t/fA5PM89GKOYFk66BBf1HTmBzK/pRGbBhnAr5w5oy62DT57dveLsfCFQCAlBC43+rx6SfBVP7eXNetmPGrU0wxlBGqKHwovK0oudHQ/2b1/Vu7xkICK1SIgg1Z1j//7q7tl4KIdBIfdmVGnU603ku4+0Nm9CEJdo+VuKD22IbyaMaDwOHIDyoB9n5nDgMdz7ydnf3dl9Nrjtmdh219wXr403nYvLa1TBIheo9avyylt6P7zCzvEwmzDeBN/leQF2tNGGFFWYOCj6ZhiFqR/fpV4oXF28+Q1873g96fQ6ppc8OJp2RsxqZjruurP+i8/N/cnBsW1maZ/2PlrddW3vxsk8aQiOLOR9duDO6kuHu7srO0Lh+rnv+fGpf7mOF417p1AJEqZkyjls6LzvMrvpz/b+v1smNs0Vhw+O7f/87Mff1Hn3WbgUDK8sj19fTtP8RQR6NXq5NJaz5f6/GX7qybRRzGAW3NG0/EQ33ousfvROT51a8dn46N+kz+yIW7JRIpjAnF/rTSXt8R2P6565zpEY4pSf8Vb7wFl5fZG6gyI9zod3+jOZlSNlJkOIXpjHTp6gdcc8Hnd0JHIYvCYUPPZkHe8s/BhZkuOpqKAm1imncPzS/tvzUlD9ItgoB0Z0CkK3HiM6hm5zBPQMvRI0BGdkGBvX6nPsmvf3Pnbd4F1iisYq6uHZbw5xZLHLR4pwzHD6ztm/7o8fpmysWnZT8YHLdWPIRtiO3tP3DG/tcw4I8+HLcaGrxkmw0TiNyAEp5qLj4yEj2fCheNft+tzhcr+pxrwyftJYIMU131QXPHgMsnHvTQxWhmT92L+n+soh2w05vZAdb6VsrEgv2vOP1xsdXnqcGi476j9wLESmmmAs1EEh21g91kHsqtNR2fHY9bLnsbSl3XDmWl55S/XRD3T+0VS90q0uUjyA3S/o+RREZHARC2fWmWO+tEAsvRtVdtUZ82Iyx+aYGB3FWO6W6gTGEpOlxkJeRBKbSqgTvCcgF5VZKuERveYIGgsaixrrcsV5+fL3xR9/c/meInezDKZnsHFn2gYmCoRl+mHtfXaw8QiP5IA1c+s/0vvlS/zqcV9i7OQSOTKzNO9a4EqNvcnf+5PL/s3y4RlgcvqOySc2zv6tU84AcWFM3EngtJUH7GkypomEYWV6Ljzx1/V/H6RZjZYFwMjb9ESuD4gA2JI01ctjdaxmirn79Ff3VrfOxrnR2m0xD7NXQxP0tztt3apn3FKSn6nz39R513naENWZo+3FvmfTI7WaOIMgMJty4d7EFbM47nCLDjM3ZwowqnTrLvxYQA451KAQBROkE2q8NimocfeICTkzBZjBmiAyEw0MTS4KlMAYVUJmDGdq7Xt7PzFeLRnYIIfqcHf/3rxv4fUdCXCwOpC3PcpvJM5EhBV57Xnxqjd23jmexsWkOHzEv37IDxPG0U7lKRjVgjkioSDv5KKbJjupVwUdKfb/Tf3pZ6v7icpRU0GnQQioADAFD3SM+9iqcE7HywR/Ljyxy7c2kSeOReRBbUeeGtx9yPeKGK9WruUGy+MLP2bKQQAirKiYgVyoNHWIGBQNkYpQGSsUHpwiiyvsjWfhnDl4FXTI9vV9WsqCL+ZXiAI5SjICHTZJWFAeN/jF6CgEkrmJcmiC0RZ0RZ14pAQjAhSkjnQ0LlKECCc8eBiU9TKuvdLeusTPquQe8sHixf3cY5aYwcyMvL+/jZ0+zHv1xEVpw7ryogJloSKgMBVgzIY6gPJSY2PqXm5XX16+sZM6ScOY+RyfGmCYkZHtFEiD00QeHDupN3nkzLnC116Sblgyd0a24Wz30H3+pb8ZfGqoIyEhQ7mJFlOTg64ZENLfZ6vu6E2bEGEKQO549xJctX6wwZKcmI57vlR/8mk8KK8THWqy7kmjkN1GP15cJgnuSC5PnjPzwOfuSl+bxf6YERGv9pvWaN2VfFP0JYQnGzyQbp/ltCM1yQgEik4bEE3w1csPCbRkDEjOlJiN9cKPFU5YLhBgNKQghPwqM+polB0CakxFC32c5vNJ5MKZyQwEd40y9DWeRfAm9QUB0ZwmN2aAQeWZxfljuWOQmIH6cN6n0Wz+0o0MlQsDO7Kx/saBcqsD5nY5byht8uJw5bp0aXDWyFux6Rl/zFVnet3Y8xYfB8duOy2ajuS1Q1j0EFwSooorcOMZeb07Armz2PzlwR/ts90Og6hR0qBRGLXLTqjd89gsacfmAWx2OEaJE01RoNMF0aeus5u6VTdK08XBh6u7KpsFlOEONXnv3HONKin3MXd//9Zh5wDdLsvXL01rm3wwx7RfkJxq1AXmEGQ5DGXJWTtTtuzmsixLuUC2lKgUucyWLbcVBWMfycOcozIlQzGftMpHOzR00KP3h8FrRhmJipToYD7uEJEsj3JiIiQ7Nm5BhEDVwQdFMvOIAC8AN1SN8UfIahLYAUVmoQKIZ+icHpZ60CCmfqiGHAqgucGJcECHsg1N2ekWswO5STzFWhwaqtLRSQBjsuAsxrT86vimFUfOLqslS2bPzH2rkIMcNrBTodacFvLgKMcO3om85Lu7P3TR3AaqI9mBzp4vzH58qz9ZWZ0wcFZQk0buqDwYuZG+ZohcI61KZ71/7MfXDC9A8GzcGZ/9/OHfnY57iFKOUPtLxmJ8m7yEjgyBtKy0m9u+NfgmmAN8rF52w/hbCoxfOXbVZF4dHY70VH7oeX/YRcIN2QRDUBNJzeMPA5uEEzbybPDgvvBjQHDz0KTKYnoNK9AmQvyVFhZqEkOI2bKIwmNQCJBBQaLL3E2KGYRqS3VwwIoUo/dqrz3JyCJ3jfRFp3BBskM+/Xh1X7ahELo+taG8cQyTK7nq8vCmsbrrsMM8+Fh194DTkDma/COvoBi8br49hIgkNEny7DJe8TZ+by93oyPZzIO8/SuH/7TGEbEWcmZupjfBiVontmUvzXnNJY9NAIx5J5wgultyeWTn4njFUlthYI75icH9h3AIXhvK+e2GkfB05O319i3pkSrMdvL45d1re1oK1Hhpo6EZEWq2c0EXVChA1kQXmmDzubQIBqWux0KKtQ192MfQiOhlrMvIXpCVCsnyfOOPfh043VFAsMygwNzELb7soBiUIxIlKIM5oD6mm5sUp4i5mBxMllWHskxko5MmUE6JTjZqpuXgBY2VkhR76gVPyCi9HKmTlCFMFSvonaDxTG2qn9yRtiZ6ZsVcWN2TdxJYB5DDIASZh3Bl8aaf6v2L/7X8g/9lyR/+6JKfX14ttVS6vUJi5teZ00sevIQY1LvAN/zI8l86Y+488zIX/sLkps/OfXwHtzUuYtlOsPUjm8NyN4/d4O+6OfzoRLXMUGbOPdb9+l/PfPaQz6aYXu2ev5p0jjI3czmG9/Rvm+5uk1k2Xc7rzsL6yN5qrL0WN5bey5aP9HbfNvfpWoleUiDcQS0eyHC6EJSBkCxkywZZ7tK7QgDCfBJvEwLCHJiDYkB0KsV+xUOPztw9160GLjDH3D2zuHDh9bNKE7bVz74QNg1ZR4SzdNF6XDmlZUuw4jJev9RXR6Aqqidxz05/zuAlZCfaLPbqyG5VbZQKkGfojO/rfPSawTtjPe6GA2OHvmR/8lS+p8IQcIM7fZS22RZJvfB6IxiYTUbG4L7KzjqnuJzoAWlX+dzW/pamZeGYEIfoyKgeru7tjx1y5ZV+1jq7uJPHudg2A+GCZUO2HFxF6sEDGhfkUarWkW0PMBEpzG7Cxu35ec+ghdU8/2yszzCwDr7IoxwWw+Cjd5FeYpRpj8cemZwLwyy6d8QAhZA7WKB0J8v9YnikrAfMsEFwWo6O4CgchTM0xyAgm8/y4PPhvr3cXBk9pyW+ZImWkwEKIqlwXnntVHVmcA8+2Ldk21/O/PundPdem54Oh6pizjAIdhjcC1RiErzIxTl+ybvGPnxTcfMVfPvKcl0uj6SY4Z2wuHfs68tpKg8II8oUeAPe9d7iwx3vheTDTv1Qedv91V+7hqHqwmH+998dfWUk9nKHjD2bel/3I2+sbi6y5ZAPlwf/hp95gvcM2ffjzXp/97xDQK56P3fcW3/1SLmP8KJe9vbi/VNcaV70fOV3F9+zdLAqcTCMc/fzruf1WBLgRiUhOyAu8r69BvgKbf2OJk7KETMp5GYZkVBBNZGgGshgApKraGxGUnLNVT5zn3/1K/yTQZztpcmQwkXcMMHlC6PDakONmSdx/27bXlsuU3mhrl9VrCsUDd3zy0vO4PlRGNpwqz39BB6oOQgpiuRJX2sT1iQA76Qgp8CVee2PTf3q2uGGnMvKwp7eji/MfmKndkIhpkA0Gd3LrAKvbOF6PXGgeUS+gmdezBu69STJvXHnZt84sCGQIAguQTJln8beR+2bR8JcgXK9Xb3WL42v0GyTGvfbRCcgYhj6FYc1q8qq2oa1VTXrxNznkTn1H7Jvfj19el+5I8AmhuPXprefw0tS8IxyYZQlAKqUDTOPVGE2sa5CP1uVOTz2cA6DZNkT64qVWLnlhf3c5NnNzE3osFvOoTYka5Jlw8UsVoZqDjOP1vd/c3DbTHHYORz33jn5wuVcBYXGPmviMl9zXfftvRxkqBDu7932e7P/8lPDX7ur+szm4cb9OHgE6qNI6NSGOiQARpQoimwxdSx3DCVgsAQOXpfH/ndymvqbEjB3gdG6by2/99nBk4+kr8905vo6eGf9p1cUG67QO5DcyxxO3JZykbuAyVINrcQ5N5c/sD098mycm4t5qzbe2f/zi4orxsPZR33WSL7iziABIXh0y7WGTw4feKF4Iocc1D0/X31F5y2Fgjybddbb1VfpDft9e2LNC8R6AAAgAElEQVSYifu+MfjimvHLluYllgFL8yaF7/QxaZQd9GXNnV/ifwdO8RxtDkQww4ad2cO2+zAOFChABoSmbEhCLtWjxzk7uNU3bh5+607dunX8kcaLYkV/zS29j4xhrJEHx0qFGmkW2zfmO2fikejdKa24wq7vcSojgWF5PHt92PBUfc9sOTsbDz2Q7nh7+MAyrHaUdgqSwZAqTAgSEauQhiFdrKve1/3hfXnrwbBXud5Y3nln/cWpzo+fUa8gMyjJksrm+ZzMbWaiSbsJoywXJSYv4Q2r8tptPNC3mc18cJ8+sBpnAVFIROkkLG1JTzxvj9TUVL3kUrt+pZ1NG2Lx+TpQClKWGOxwOPjI8M4D1S5DJAyyJlYjWd5p2w/k3Y/pGy/EJwrVRV1eVb3r5qnv62BccvPols0X+FsPBxvtG4WXHmR5wsOwzMcbCQUI0TzUpjPj2vPiRU4UC1obFLq519fBWe4x9UT6qEqPqUkfDs+qX0zbH60fvTt/ZlNxf6QN8qCntVeFty4NqyxTodkvQxf+7s4Pb5975p5wdw7VTKye6z28vX7sLqxYgXPWVheeg4tX2drziotXlusmfKrMRY7KCjAE1oYQPLKxpWGBm/nrz2kqDxoxHjzWMa7Fxe8NH9nV33q4+Faw3pZy4xf6f7xq/IJl1WrQTqBfuYBMF50kLVzeecO76g/vn/vDPeO7qjj30PCrV6U3v638/iVa+qpaT1kOVezXmHusuv9I3GMiU+9ae9tyrSUlywh111dcF975wNxXpscqK/WtwTfekT8wzms73guqErFoaZ3ThAQTae4hUxYOxwPfGHzmMd0dFeg22uSnhkrRYpWqmTx9OOyZjfsPl4ciAmrEuncD33t1+K7J4eRiyQP1XHjkucFDuYuY4hmDdZdNXVWoCIIzdH3pDcU7//bQZ4dFv7LhU/0HtncfH7elxUmP8j+6P5kRPFSdPMpzXDK+0b7riere+/zWquxPa88dg09d0Dn3rXYL0Wm6x06FtxEFZ3QyMBvK7PE8u/TsfOHzepRKz+vJXXzmTKyFBCQiZIQU6ufSYwexC/QVWndRuLpEN3taGBzQyIMgle6mOPS8L+78oj6e6UQ8Jo2t921uUNRBWTmJcFXX8B0/uOwfn5nXG0mXM+fFqlQ8M/XI7wz/TeE2YLY8JcxFz46XypJhtFVi5mWnKt7JD69Z+gvRxxdmIBc0KGa/MvzE3f5lUykbEGI2wBwmylEPhjP74r79ne2zcTYzxxQ7mrxC179x4j0dTiIDsTYQCLHmRcUbvn/sF4aH4jOdb6bikJvPduuD3LHdd232x3q510V3or9sVX/tpXb1tZ33n20XTmlpUMea3K5MkDSSmif+0f/dnIbyYBRbmM2yxeAc1/Lry5se97ftrJ+YKeYicPfwr67tv+1t3e8vNCHUmp93XksugJeSrmFYDLrDcSjmXNEwgZXv6fzwEzMbD+srkO/v7vjMwd87s3fh9boJtKOhkK/g86pMjwqOtH+47/m0OXWqUuU4l19UXNVDmYgiaIhBgYm13SvXDM6dxeY5pn14Ycvco+vGL+/kHgVjOKGhti/z5GpCzb6NpYIvbUeO0kjymKUFCDklZaFQv+g/mx6Ziw9QwdQUD4HgYgjIoZPqXGd6MjOFMhVnVGddx3d/YOlPG3qeakN5dOezqYwQnPdN3z7oTQMm+sXlVavC6ugBYsgB4oXh6nPL9QfyzmGRh+HwXQe/fPHSG8W6CXp6mdMLXuGHE4SYxZSN2byT1U1Fx8bd4opy3Tv54R2DTY93HgmIu8vNdxz6i0t6163i+Q43OI/61y9SGuy4PzSuXpzfIv62w+KlRZJe/uNRFwySYEzEKi67oHPpPQhC3p9f3FFtvqr39mYh0fh1z9RHnh9uzr0qGFbZurXF+QQQCl/Mvg/EAASpYATzbJxOYToRZFNGZuRc38kWczpU5hzR9XLt3EVXx3cu0cSAsZOIci5hLM6XCH3Z1VPcU7xQuvejhzCpMBcgvVxwjJziVHTrcHh4UHmM6OJ48SXA+3b4cd057CTXeEDVSaHqOmCOALizVi97thDqXt2FoafedfndP1/+2jKt4Wgl6lAQPXJsyHQ9bp5asvov+h9/ov76geLFygZEQMj9MFPHmSOJuyd2bsvbHuDffmr4XzdU131f+dNX21vGuNIJMBtLKhMZJ3378PSRB3xJusMgmlLhg0hk8x4nPxx+bsvcI09i40xnVuO7Pn3ot1YV6y+J1wIM6jgxiEMn46suTHU0iqFxWpUpuoZMCSxiKBUFLo/rPzD2088Nn9jRezY6d00+85m5317ZOXONn+900Jycr2rz8otTBL0YFJ4fxr1b4lO1pehjl6eLL4hXpZDLNJZjTYyLfo6fdxHfsllbzYvZ4tC36oeu0/smyvFsFRHma0i/tk7VfO2fICAy0ClGsAnzKUAuLkKbmp9CpgQ3qpCSOQWNoktFICCZZhxFXZTiEQJVGMgEIEOkC5XgVDcz15bdVKZyPI+vSGet1TnX87vfMf6hM3CWoWvmWYn6/9t7z2C7ruvO87/W2vucc+99CZnIDIgkSDCJUcxKlCiKlKwsh3bZ4+muDjXl6a6pmm+umS8zU1NdpXG53O0qty25bUlWMCUrW6IkBjGTYAAIkABIkAAIIr1wwzl777Xmw7kPAN97lGGKlujq88Mt4BXeu+/ee8Jee6+91v8PMgFZAjHHg7b3Uflh5chbtahaenn2YY+RxGAoBYDMaHBb+uQz6emMte/LR6of3x7+1Sq3hak2Wq2dOK0u8hx6kwwbV4ZFn2+XpJ0Zs5GzqERMmijWewlO2tv9da8MfuO17sFj7UN9V/4o++Y6u/QT9nvOMmjuUNCwC3zW2ZVs1qW6fn+eagUtIuVB7QtCMCwgb1q3BBPq6l9wIiMwiBKG7j+sUKLIVCgNLCmkkkEOJ8iuxnu+2f9vh9tHqTjx1ODBm1sfzni9wAcWCdVrtnePezKwdsrxK3HLKC2DViWi5wLom+qZo3HiZIkqJkFF1FaFr0SECEKQ2ehkYlmUbhHADFIcbB34Qv//fSz99G7377a764qUS+3ACQdi1FNmMEyjJKc5KdiMrQ1TsTMbeofn1EeG+TywpxwIoLzOKTGGvhfDVm+BmgDJUQlocBoBcBlR5GaOqkTemLIwtjytWq3rr8XtN7c/6WjEIwNKeDMtlEszdWQCduQ30/n/tvNHL4RP7LAfv9TbfZBeOswHZvgEC5HSwPX6rg+rWkV6PP3wQNh9U/rUe9t3rsOmIoyBQyWls5FGv+g0p0cpY5gbzRZ/mv+Xz8/8Uc8/E1lfGn3hu4O/WN1atYzPsaSsBAKp0LxU4y9DZvl2f/1H0mf/uv8nA9+vqHrOHrg//u1d/n9q60gSMq5FIOZSmx4R3PE080J8YiC9RCkzWppdULi8Qj+SI/SgTil10Nngt02ksWP+yED5pf6OV2zPElrktTAyUJyv7/9LQKdKLGb7N37BspROVa0POz3mftcZiBAFyRnnsVhersmsQ1Sbt1jSalB2D7WPCnWjwhEtCSPX0gff5T54Pl+8nNewOZARAuAZahxJGSbCsdTyfv37KX4NTM6K87B9pduclJVKpcBcEbGDXzN63nivXfrJwOmkP3J//Pu7svMdHL3hff56ZIOUYklV20Zu6Xx0T/fpe/G3anA+/WjmLze1Lrosu4UQFzJrrKE3/IM5C5s3e1atDkSzn5nm+cUv/EQCVuTnrrHzXrfDbO6F9OTremycVirYQftuclf51Ov2Mpm1MLGl2M7GxpqlLGQL9A8PC8dVgpmjuFxXXs/vX4F1RDJrBGYgi5ROxMmTeni/vrDXP6sy1XP2hPws9Wcy+U8XyU0FwnyNVQDL+utubN3ujCtArKPo5Wd8zFOrINacjNXZhXylIzfrYj/vkysv0wvYOGOq3TQD4on0etd6Met6JSIdrxbfSndcwTevl8vOsY2cPFwwqMEZiBHZ1AwqkigRg6w9psV2uum8fOt0fvxEPHJQ971kz70Udx8JB15LL5dSmVDXl+LSa+7lb1R/dnzqxc+N/29reZNDEmsDvwZZxnduPABmC/2NHOUJcQtdc2t+91er/VN5t8flQ/zdC6tLPtj6NDMnLYuyPV1MBVfOs+f6JSBtYez64q49g2cfjj/pcphqHbp38NVNtP0qej+QzGTYLzPneUZQBbvX5PAz8WeDvEvMbMXB6rUfDL7ojNQWCbSyiKKXD+iQO0CcKYNdOuz3PB0e2JxdkukYsQHx7R3N6oa/uqttqNn0i3982CA4u2y3M7JHqB3GKqfJiNvl2C3ZJ27IPwI4gpgZkUZXfV+/8Wjv7462DpzMeiey7itTh65ttyey1XmVMRdqzBwSh9orEmSWYLBJOfpg755eNojGpkVp8aETXysgylRKSYm8euPY15PS8QoOUvXy6UfL79xsd7doo2KO09avISQE1lw9wZ2D8+5u//6+7q4DnT3K3aPF3u9Wf7XUr10j69QWuF5pWNF/uinwjZ01Zm+SpqRTNw0MtcDsbIQ446cWSPmzySgWXyW3PqePGIcT2ZGHe/eeP7KVNWOjaZl6zH46yE6KFptx9Sq6wKlEIQdasI25dkSFSTIGymXV6pv8x7ZmlxMc4ZTtsHLSXh6T9U7Y5D/gS9/tfvHw6Cv9UD3jH//B4Evr2lta5frYcvNnQyur9Z8e/XcZtZTAvq1SZio6ewhO6xd5E0UphkS51d7Sc0dYpxjvL7m78web7PJxtIwsOJ+n9Locerz68Q+mv3FiZH+S0Jfunqk9WyduGJPxPFlCJbFIEpSEoIIEdWSOWDNTgJXEJHjmMZsYs4n1tPUSubHLM8fp2FRx8mTY++Dgh7vjQ4eyF/tFb8BcZcfv8/d0+st+a+Q/TehiUJLg38554Nnxjo0HRCQKA0EYUHYolMsb/Qf2lo8+rA8c95Ndd/IH/a9t8Fs34SqTyMaR4i+5vUxEBDKzeqPaLBpkHOtv8nft7e+a6hxV4GXZ+/309bXZhR1dxpYl8rP3Lp2RjSdDnLHuk+mBg36/8oCNA53YId96jr5JRoqcjANL6aqOc2Rp2nXZi6LsFlNP9e67pbi7Q0slshGfnQvvP/7RNCUaKtRZtKCmZuA3M+qz+i9LpkqqqixO1axuPuahGLCRY6a6Y62lnVV63gXYwpQBAiJA4XRDtf5n+YavDP5sPz/Zp/4zY49Ozfyfv5n3r3YfyFOeAUkJImYR5GCiXEVLO8tHjuJQ5VQlmdoue/DV9DSQKtFKAgnylLNRcjqwGBEixYHaUby6q//4sva5bDD4YWHVXPcLOr3r+M+A2bAP1ptnpShKwCZc9sHsM1+s/p+TRbeXVzvsJw9WF99V/C6bzLYrv6HEaHZ2DyKuB7lkagwjszNzq/PPGsFMlaIiMmNoE37qe3OKcKy2DCVAHbIb8zu/Of2Xr7VehNgD8Qfv1U8ui8uM+QiOPRsfMYdOOXZLdlduHaeSCIkj1aakPGdWoQoiIiEmilkoCp4Q6tQGwhi23CO5VMBncdmiqlqc/2vH8cvVn7GiFHsq3vcSHl2GC3QhZbfU7rV0vMMTDAO8qrHNrTFWsgoDx97XzgimlBisc0q5IlEJdw5v3oKrimigKhGVki+izRfkl27H+/7LzP+xe+SxxGHHkseO9E5WDrfKnY5HAlJWB26KSFDl4MA0qJvTJHg2Uh+cCUEgKtBRao1iDbCmm22+1N84Ra/8eOqr9/S+fLQ4BpQDVz2NB54LO66y23LPC9kR/bPzDu0/GLYy0fC+IoMY5TS6ms5/j/vk8v76emzbx7u+O/jKcXeIiSrfU44+vp0hlcxL5YrU2uquvyH/8EgYE5bSlY/g3p/ol0p3gqhSiwvGoMh2XA4+VH6vzAIDPjlJErk/WVQzWXWyfXyqfbRfvF66menWVK89KZw4aQAqSgd017PVQz1MGtnbs2Y0wMz7bJg5p2SkSnE2o77AE4jqJLbFFIySscIgInTKdqJ2G0I9A/V1G6jTzIatpAQwIIDAda7J7rg9+9xEb4OFdqDugfbOrx79LzvDg8r9IGoESWQgNQJIuerKyR3xwSnXS5RY1acYpX+8c/xE5/hk+8RUa2q6mJlsnTjROXG8c4KIvZIASVyXejv0kZN63AhW/766I/dtlbo6SziRMgA1mJBcld98pd6SlZ2+pZPZkfvKe/ZUO3rWmz3kc55Np+b7BJgpkYWqeqMQxTzIQEgcI0KwmCwlS8zMJLODoM3bU63/NyVghW7YRlexumBhP3buo52gapqmHu3f2y0mnWbrq/Mv9NcI5ZhtRF6w1UMQlBikzgxEgYIBAhYTNhHj2jNZzLvEkZEybtHEDdnH1w62gCuy/hQfe7p6LBTTfq7rMgCYxYpDIDNKygNAbXhVn34QNLOs9ssVU6UY3cDmXe3OyHHptafoJpeMciAvgI75ibjoKr7uE+3fO3+wgUl9wHG/9+vpTx62H0ocFKXCmGBsgLrA6XXa+0LYuaN88tHqp4fsRSNEQNmULZElIgUrRCG55W2MrNALP9r+j5/0/+vqsDy4fg7X05NH0gE4VVB8mxqP/km8Y9cHmL1Bhm5obEYpZ9A2d+M16fHXBy/38smp4uh95ffX9y5emi0BmVcXZYGr5y1TsWbEBQnRytvcZ16c2fGY/bDvy+PZyz+Y+e8X6sXKU8Rh/pakApHw6mDXi/S0kXOmXnnCrR+pnMaWs2qg5mPBRkoV0SCSiLkTdPRgdkgpxmzysekfX5Xf2uGCbK6K9VugHgmyzJvWFh/c7c1YJxnU3tTSQUFqhjL0q1iiBVM6HQ+Gg6yB6mDtA/cjIoOHs9nTaSXWVBTsr87uOKRHvxn/c3D9SGHfyFPfmPqL0cUTm3AJaxucFAyKSEjiTsQDe/W56fZx1qyV8qVYmcWxxIFAFEkhktjBAmvpkjPfdYeSHhkIutn08+Vjr4WDi/IVb/FYmeFNHC7/qSQfRD0gZhWzLaO1t7vP7e8/vzt/BOD9+fP3DP7ijpHfHL7uPDvJeiqfZxkTAUxM/V4fLbJfEA9gIE2IZRxEC0ogGJP8ol6Z+ml1kQyyS7ObHtC/60psYebZ7kOXtS+dosmf97+dxtUl2lZsy6njkIOjkknyC5i0AWIpEZSiAAouZRC5JJvNf9WCVlSntKJLrjJX8WAJr1kaVz0vO2oVltfiFDQSL6CX1yo72oYZ1/1idZHPnMhEMCgFCQ4lWSaWGS+Qek1klQSGZqgbmEEukYLJIKIWr7b3HqOXv1K9MiPTXrNX3K7vlH91bmvLetrKtbqMERJVbnrvzIPfiV+YZAs2eI//8B3tPyi0zWZGTLN1K7UoOkwNZuzaGLuB3reL79+PvdF63fz4tB4hjqS5t1/DdP0dEQ+srj8jJRjVmz4UCSFHZqYEMk5U+6uwjNOSO/Pf2nd0z6PuBwOJrxevfnXqT9/nPpDYQKkTz/YQ1lZWpzQMZy/WM3TuACMHjlAypNXY8JHR/3Bg8tnX/EFN4fnRfX9dfn4tX+RIco2BY+JUi3+JSiknKlT3977TG5sCDSj4G2c+8xuL/mfJCGAmKIE8c3TRdb2WkTuJ7PGZH30Bf3Si1e3mU0+kH++wZ9+N1cUvoYRuII5Zcn0YB3bn8YV5pTGScTyA1yftxASWcPT1VD5yMBjDsbKRITrjINDXeW9feqRwassGa1ynZZwMzpAgmkdJFKLrtiDElqhSqpN89RBkAOWiZvliWvsb2W+/3n/2Pv12lF7Ijz+e7l1VXbCktWYJe0mOHZJliBCmF+ypl+i5AmUwOq+69rf9H67y5xqbAkTOTs3361GOuvsGz30B/9fzI7sjyUt+1w66f7NtBkYJHBmSRoNUUWIRWk6ZER0kMvy84qqIBDIfGEQmXUVb9Cw7QGY1gkyo1v8nYzgwGATJALRRbC3edVv81L6426RbuZM/p29xiiezEwxlGMwlTqQERWB2Jkq6erCxyPKQVdF0l9sd9USelhO5KCpGSkmRADj1pGwskc0MR+TlSUzmcSxJXEQTY7TMQIhWOeXZSDPcQxouxh2RVZQ2yCXn9q7Y3XlgpojPzDxwDB/dF559OX++gi7rr7mofds4Oagai8E7i1TvRZ265Ib5SCYYKIGglitH5aRUK93SqWDLiUpHOZAZSjjSvENjReJuVhaJNSUBR0pv8GmrV5CoFH1oMuTKJiBlndNXSSAx9QFIuXkECc4i29AuXEEKhgmTAYhMps5YQcZgE3C9tCR0GO/PPvlid+fD+T0nucdZegr3fm3wJ7+b/d8dNhezJEZeCXrEjj7R2cE61QefUy6/le7sYF1JlSBnywEYolEy82KcJGUpKtOYX7E2bs7helwZxZLLiEGeOqf3WX6FvCPiwXzsDO2tWdFTMlYQQLJE1ty54rOHJve9NLo717xXHP5e9TdalJo0OMYv4wj5xuGBYebUkhDMm22Sbbe1P/s36fOlKFv5jHtwf3W0X/TolOwblAwwJtBBfWF3ei5paWx5LK5Z9N7z+SIMC/6HBXfIXMQg41ghrxAvGa2Wn9h4Mt+pFgeu9+TMvVePXJ+jILTeerJ7dirJ4MXZynZ/0aRMKclMcfil6rnVfgM4QpTAomwgGyaFyep5d5x+Oe3q84kMo0rlRL5iMZ1T65TVf8hqDbN6S2HB0ngCMpXgjMbdkttGP7V/Zu+L7acJiK3eIzM/2O6uvprfw8IgKChm6NqRZ+IjXTlpRnkavYAuOT+/eAlW1BGOzmg5qqlcciMj66a3v6j7lCzK4Nnpn31o7OPCbYYRXJQolbH6RKqkpFSr38xXo3LGaoiOIing3S9nxHfG1uZwh6mFiZtHPrzn5KP3Fd9UDsEPnuzdNyLLAoEUbKA6mVMLRRC1rL0mPz9ScMjJ0yvh2dftcNtWqVMiCqgIJCakBFJz0VTMqr71dsVd3WyGJXrIYlrZ5g4nzFaxniowm/NuBUgTsnit37DPHu2hfwyv7K527AyPqw+Z0crW2iWyhuH49LlOpzvAzvh1RgKYgWdFOXIv2amjceqgBBedcZJUScXwJY6cCIdiO5qKkR/BhKUMC9h7Q3lxbqOeDZaUyKR0xmQeZ6TZQNZ3A0DIR4KIeY4eMm89Y8NNFRsm53S44z38RMygUbfkPaOffunozu6iFyrt913/salvX1bcdA3uIDFBHjl5zlfIOkWIBAheHDzzih0b4TVF7BCTcqW1bBQINEiWqXk2K6mEWdCuS1kHwcdW5kQUysHI/+o7Ud+x+wcLMDSohfjYuVxvujW7a1F/aeJel3svdw4elxkW9/bqmAmSkqqr0506US19n/vNy+N7XSo8uOdnXs53RjaDA2pd0mHKL0KfKn92aGRf9AqzNbRlI7ZLKpzmornTYvbhPNqcOl5bLW0vt3WXuZuz0Fb44MIevv9wejHSW9domi1RISHNzHUwsV63uTgSOPWLww+VPzyeXqtrdcmYVDixJBYVgilChep5fuwpeqDb6g20L6FYwxvH0xKAGenszScMMKgoi/mLcf1N7qPtsMQFn1AdaD/7nfBXR/hVsmGKKXB4jV580u5LWWUmi9LKbbhmxBY7K5y2fMqd+jkPTu0xO+divnWkHDPSxPFFeWyXPlFaLSuYFIGVKXElZekqpWQUQWlWjfP0Y3bHNRWa8uSdJn1bLUbNeHlaf1f7d86rLsxTRxIfbx06hJcqNtbcqRGSkYJqbdvkU35usXXMlgSEknpHWvu/X319MjsMVD3rieYuZZzccD6ORAgci31hx359LLi+wUarpat1Q46CT+/rLHDiDLWfAI/bkg3u4iKNstlkduTn9sMd8mDk/kiUc7F1sVtNNhsMSIGEha7PRMxGpD4SzGKecq8ZDdvfTkUiMygnMcsy80jVc/H+g7yn5AqUJLbWZ+czFaILjFGVr8SMKBopjBUOkKGw6bA62gBraZZrDqggCsV/yk7crL05DOYY2SV09Yc6vz3aG2cVo3Rw/NVvd//8lfS8YaBQhjO487NLloRlLhEhHmm9+pX+nx6w5yNHIyIQm2N1ksQpmyGSRkiWWvux83l7XM3IZDS1l2ClqBC9rdJsZ82/pHggSQzKxp78iC65PvvwNrsKagqpiBIJ4OZbe78FqE5DEFhZwGwkmpl4MC+3NR+Uf3VudSFBOGSQatapbXauSRqhr+PwTn10Mjs8oNCK7Sv4liV6Tq3+fObDKJLVVU3GiOM0cUXr+sXVmFJIFF6TvU9WP+//claPxjAIYF65pRNbW9e6MJoHNieP5N//+/SXR3AgIERUiSJYFckscoyayoP08o/6X3qV93ASUFoRz9tslws5SrxQNpqGSsfzZ9R15sRYNBuJ49flH7o0XS9GpjFJ9Yi790eDv+vZJCWQmoCfDA8ekQMwMOScau3WYnuGfLgLSgs8HFsbxfb2u1b21yImRTyZv/a9/pf7PKPGtfgA4OsMIakjcgEKJVKb+zAl1Ft/UjHBEBYUZHjLp4MSkVvnL74p+8hYGAdQkfaKk5HAEKoXXjATFZN6Gr4Uq7aH6+tB3zC4L3314f73pvVYYYmoDwxA0UiDaQD3aGYX7v9q+NNJ//JIclLli3TFxvzSzDIAIOIzBHzeuM6iRCBwK41t4kuWptV58NN07FG+dz8/r1xNpEUX0rs6mCBzbMMyWJDN2/ZAnY1hQy0/DqhyVApQhSopyIYi0j5yoBS418PMc3joW9UXj7pXTKOQrdE1m90W5YCFjGEkDQDjlMPgFM4SKZ0K67MA9S4A4II3hb5hM5l+oTHRqU17ZvIOWQftd7fvvpxvakcStcq5Xfz0/eFbfZ1WC2LMyJa6VbfSx3LNjUM3n37U/93XZz6/V5/sY6qPQUSglCiSVd5F8YaBm3lJdt0z+POd/MhAepPZYAXWnyeXgTJayMrtV8A7NF/0ZtDwOkOQsBZb3599dgl8AiwAABfuSURBVG/ceTTfkyX1BJ+4/5bdjd/4Mqe/UqnXHEoSXAmEC93lN4S7vzHYd7L9WmA4BFOCeYLAOHGsOLxYPbtf9yonBpZX6y5xV2bS4XnpCaNawr2W/VVn2Vps2UwXHrdD0apSZp7Q+y7TD43QCMze0g5nMhLAGUUyytDa5K5anu55lY6Vpq+5A/d0/+uBtPeT/G8WF4sK6mSUKbREf2D9ndUD35n+8uMjP6kwaFk7R3FZvGFLe3uy5M2b0RzFODpTaX/u4SQyMw6UfGS/mi64Uz61Lz71ut+fkpTU/07vi1uXbL7EbiRkMzZ9f/+HZVGJSqGtbXzlMlnGIEUCRzY/fxLDNGDDObTiCnfTK3F3381ULj1R/WyfPn0xXUswMQGxUXAqLmXTNn0QezuYAM+tPiBQHbp8yqZ9f6ktTaAco/+kg76w1zQAwCVC5MItuTp//z57+h/063AwMjYDpcQWUCs0JjJvUBVt2eh7Wx97aubxg6MvkvH+kZ3/rftHz/eevLP96XFe69g5iCF2Mdm1qSfC/ffO/M3OzjOlBDZrqbtcb1wtFwwdjYeqOKcLV05dU1RPtQxkbo1sOlcvPlTt63UmX6UXvRa5unPixi2tKxyy4bbt6XO9cN1rvYIgMgc3nR0/nO0Z5zGCAHWcU4KZDU6QHa527x488TC+vzd7LsqgZXkxNXKlu3E1nydshjT/jOdp6lV6bsLWKauoB6KA5qykCeS1DaRkZcb5NHcXxXM6PHbqgw8znQvfVbOX8/Cuk0To2OoPdH738PSTL2CnIz/TOvaz7j3b/OWX8M1K4tQltjuKz+2YevQZ+wlr7NLgx/5vX+m98K78lmvy969M52bkUkYKF6uqSlNPlA9/K3xpf/5Y15808u3KX4Jb19JGkIdB9FffjvYvKh5ESWysrGSsxGJ0Od98Q3nXN+0/t7yLXKllb7NkOKsZpboG0uBVIue58U3tD+059tCD+beJK4KCDclgTk0CaR9TB8Lu1+2wmGTq1qXN67JzAyVnc492HWkS1+lsUaPFvOoivu6J/hP94vWSB3vx+Kt4+nysf6sruWQkda80EWC8lS97n33s64Pjx1ovGfJefuI+/soT3Z+tqc5dZxd0bGRGTr7uXz2oR6bskHZ6KqWLRSSs6W94b/vucR6T5IxTZPLpbOMTQZVgIDEwQZS3+ZverR/7WvgTuIGzeLT14j2T/3X5+LplWPVU9dN9bl/yZkiLZyauGbvZa0FgIuibpM4MjpRy6lzdvv0H0/cM8l7iWGX9Bwff3ta6WNFOAFsksHI4OXL4K9N//OXJPxbh+eomRjDW5KbbgwkfW3848vlL5d1v5yqajRQtcmtpy23ut17ov/AqPxt4oKTgWLEGODWQIZEmMmfCcJv8Je/O7vqa/pnXckDxULb/W/rnP5359gq3YZktXxIWGcIh2befdx2XIzpiihTJijixfeb6jy/+/TEsrsVth4M00oIiJVa7YUsc0cWb6bIn8aN+mjavgdNoObpOL1/EK+X08G9DH4WFjg4hGZFyEhipO8SvfH76f09kTK5esdazbxVKHIHBwJWlV+LIcFkYvXBwy7UTd+a0nEosqPL50MTjz0/+Tjt2yqzLKkR9Ua9z3gnBWAzmNHUGedsv/czIf3y3fOisRtk5TfsGVgHFi+jiG/ynD8c/nvHTSapXZM/3yy+v6mw6x86vN9KW67l3t/9geurYkXx/3+tUduyp1gPPVo98afJPL5Bt59i6FneqVL5SHDg2eP4En5ga7+eV0+Q7cdG1M7e9b+lHx6xDRNEll34Ng/M7JB6YkZGBzWq7VNGhvowBICVjIyNKYlmCmsFbFim0efwDnY+/OPPw0/xz5cSkXklZarc/BgFqC8+s6x2kyKRQMhOGueSdiiixulprWqGAo6FIOkE9GZz5lbTqQ0t++8D0vn2d58hVopYlUTOAktFMOrGrfKpsVyAeHYyc7y8azZYZotFcAU8Cs2HYYkAMoKDOBW776v7653Ekkk3ba7t6D1zbvs1TbiY0u8JIZErRJ1LK2cwQ38QBhmb1KAiAEzcaxt+b3zVdTv7DzH8/URxSimx0YvTlaRzalR4iZQaMtO8CxLJETsVVExvSZZ8pfmeLv0zgHGqndSKCQZUrJWP1bCxwgJEJzUlVUyR4A5lToUTkYOO3tT7+dPfnL9JDyVVwvBOPPNb92dXtmx/u/7CfdxMFp63Netk57nxoweZgSqIL61ibAyDk1roLNvlLHtZXIkUX3Avp8cPZgZVuixERokFdEiKt8slIgWA2Pxdhwuaj75aAS92ezIAGmK+8Ov8tkEWOouzJoE6F55e6A4ikPjMCieXb+bpb5WPf7B080TqaRI2gRGLQWZcYAggs5FpY8oHWp7r97pPhH14d2UsuRu0dGNkzXb26B2AvERYpmihgjExTXFyNbU/v+eySP1wZ1yt7Y1OtbUVARJGikfkoCmKoQZWodi9KDE/uwvblrek2zPuoUbQ1GL24c5U3YWIjAymZJZBR5gzOfJbqTk5GnXSDKUXAvDoVG1gvtPrqlGqneBs6wsU6wavqWEhbBvgqP4+23zbx6Q3+csARO1NVTmQmda81wMaMbLrzWmlSuRLqicL8y98IFZyCRONom0e1ZPZ1YRoZkYKIvWaJo9OMTQymUNiwxW7ujWSamxFn24r3P9r/6VNynyYJEp+s7n2oe9X7279XMBQJTFfSNd3O73+//Oo+fdpyiepL0ap9fAceesYek2SOUsnGRQlFTkZi49XSK/R9n1ryr9dgrQzbe349/mjviHjAyUyMLBlUUptS0YpFZzDOLacEQnJJoqhDBoKA63edwSvpGtv4sc6/OT559EjrJTJXWvTlIso5SZK6Q314Ccx9UQMMCYhQ70NntD/RkuMuFjx0Cq5gLaZTK2pXz4TqCJNp5wrccEf26b/u/X8z+XExjISlDrkQEvRQuXcPP6Oau6q9fLB808jVYotz8wt4qxETwaFu93X19891m7aFS18ud6oksmJH95GeOz6aLyYUNDttMZOszCd4dNqHPJF3zOYXuIDIz76moBYaFlma1t8x8ntrqo0PDP52Fz08k3UdTBHUDRufYJqrsELJn9PbdB3dfmNxx3nuogITtfw2wWX13lNykRWW5WUnV9cpJ6RwtSQRoDhdMZfN7mwzwAKAqvNsy2/4f/uF/skjfh/MHXflfTPfY9C+tCtLaqE1Wi6+xd1JKBTOFMQVKRlhfnAXizBnJmO29EZ3+96ZR0+2jovRUbz0bPXUSmzNkPnUytOpTg4Ty+vjOPeAwdgkhnaeMhdGkXE4a8FxSdlInOi5Sa9j4FwXXu87Q7Tk1A/a5m7u3L1/asdD6XsaDUYj1cQo5y6vJ9J1tx88vNnEeso/Vfz+Jtr4k+639vinSj85oRTyUi3VZsVkRCZZyr1iedhwQ/bx6zofWY8tyq1hC3qd5jEDvCArylHWqnLBJSGypEJQGCixUrUGmzbiitf1WBFGEqWV5YYti7YXqQN2iWEonbpo4sPiMR2xNnUGhRYgqhuemRN7lU45muLSyfZxZwURJM5NMOaaGQWC5qHdKZcs8asv9Tddnt+6SS8rUivKIDhwdOoUhjwVvhrJpBQznXXWzUILMEB4XrGYARkcJweNGciTTzJdyyEbJ9UBVDphYiDTrcpLoWaVUuaST5yGF+kZ7zU49cGp6Xm8+QPyucOTu48U04B2+eRPZr6wzl+5Ta7w5pQsx+Kb/CfW2pYHy3t+3v3O4fzlyofEFCiSBeHhNKGizFjHB/n5vYuuyj90U/HRJbLC4GAEOKkXa7/ymPCOiAcEMagRT9A5V8p7xqeXj9P4BW7zGC+24TSfF7QJU1IfOtvl1k+0pl4YPBVJBylupEsLGgGY1SkHXUg/vV4gODggCWGVnHstfXjD4JWkrc3ZtZkVgAzzpAs0sCBJKlJxW/YpDv5gb3+Vk4udDe4KgD1Zlvj6dFuovFg6J01szC4pypYocBaNZQQap5XXdT5qZbSSQGMjGNVIXLgz6nmssOIKu3VJubSLKo9ynrtYND+LWSwSWeVsuS67mT9yUfuGffbYrt53HpIn+lU/IdZGsaQ8QvlKWbmRtl9Z3H4uX9rm8WHp4Jx3q26EFl2vt6/Xcy3oiC1bLZtn9Q9+0aVMqkXVuszfelwmDwyeZKRY8UiaqPpymd120eDqUnojadGWRZd1MOqIyCnIYO5NTqaBKjHLy5GL3S0fwKHDg0MtM0e6JHUcR6+dK/XD66e3Dl99VlxhviOhcqVcBs6KyjO11saN4kbP5q70lm/Ta2LZnbaTo2nV+bzNu2L+jwmURAEICGQrdP3HRv79oqllZgRjr+1z/RavOc2RXiLyWqyzi1Zlm65079tJDz46+Mm+uHsSh2rxOlOQcu6LtVi/3d9w+cj7FttaR51oiH6QnXHlEZGZrUirbgofr+wkknX4nHYadaYRCjOCMypa4JvanxqfWaGU1PTCkcsX2UpEZxnIwHAEdSZb/eUUPzbTLzPrrOZNpM7IweArW5k2Xhc+GqrJnp1gzbKU5+kN2gEGlKI5cxvZmva5y7J1E7RyebqgHdsgVKJq3huLEkcHwjrbeGv4aLQ+oC0dfqIztoRpzlaAkZWSOFHiMrcsQ3slbTQHjgRCmzvvwi2D8pIu9zLNztFVmVACDEy2YFoyqDhFGk1ylXt/T6ZfDbv71gsc26Kh18eIkwpOObWSobXFX7vWb70ad+zSJ17o7zg8eP4EHRxkZSRRyzmFcay4wG3a7i/dtvjdS9KFHfYOTEazcU1tgZnPPzv0q3RlejPUECmxEhsPZDqi79WXXHZssZJ6E06+cjGbF70iIiUish53ffJI2vVTINe2cSLKQxZ9pYCv56dvwGAEBVAq04DSAK+300hfshayosrMhURe5q8sDEHLvnQLtF1ZDFzfBDCNGoUtQ+ZjrtJNiAonMFAgXQQToiTyj080DRZUo5V9ebWti4BRl7SerBA5pvoIWIT2MJkpB2hmIpJDC3c2aW4DogEhERs7RSi5N43XFLGfZpIG5sxz4Slr28iIThDnCUkUPjnzPDfzlgYARdKAKlkkeM+5h0Pdf/rmZtNmRmoBcUCaqYmF0g8UkeAleWIFICknGHNO5EAVkGB5vTyZ/9uUlNGj4JTohPSUaFHwbFA/iFRkg6xbRJmXwPGnlH1mv1BQoBCplWnXOI4MxpEVeDOJpzeeuIFNk1UV+q24mDiHsJtfQQAlBGiuULOKUqGpjPnAjIKkvnWX6yqFssjcCy8BCQOuSBiqA5maxLEK3SrGur+x5ToembPxThppWZbYjI2BZCnneTMFDZPoesBHHng3ojlZCo58JChHz86si4FTK6VnlLLYatFYJCU2UYEpKFTgigcBJzJdNGBbrGMULTkDsViMQY7nx0ZVwKWkjoHB6Y2HAgMqBZnT3FvmiGGoeGComIjRRhImkMWhiiJZVyZ9zOaq8wGndFxPq/nV8QBGhooHLWupUieOhazMQl6fh5PFkZZKnziQLasmzBAykLFRyGie7I2VVuVwKcq0ItMY2EhdmUzFnNPFxDExkZmDM1jJSaFZItZUUa/isstTPZsK1FMLS2lNpou9jWREzli0MFY71ahXC39hbsnGr4B3RDww1cQRqLXvlY0oOgBgJAkEZpXAyc9bfhtSnRCqODLYqSMzGCcBSCVykqBEb1Q/nn2qGZTBSaGknhLAMYojUrZgNMxyzD8lhtIUXOUQCz5ExBzCmtWOaDCJFEQFlFgFlJSckgJwZ5d4qBXjlIyTi5KA5Ge96U8fMMBAohY5sYpyTMjOYnkAGJIaKIqpwUVmUPJJlINRUiQCkzlAakEBRgSlRIiQ+QuQiKQwMQZFMmV4o1MX8S+6lBNAFlk1kdQaBgZiUiRvbIkrUafMEgEisNbJaLKs1vOfQ1Unp1Cxoo7BhoLUwUwlABknUyGbV4ts82ZgAiVUltqEUllhNGBrWfGPFndZPa9BqniQh06QlDgVCy3ZDJFUoBTFYNGhUm6xMoDEkU0SVYJszoWXoAnRWyRjs8zIwFU0qycsDGE4Ug5EkdQDPhkoGojMG8+T3zA148jRKQdmoJ8ZJ3KiAoThbRFzc5YkEpiTKKdE6gBWDwM4mhGpQGGSopAgkUWjWvG3ZO1ENqcKHhicmpvX/gYJYqJJQkJicL1DYCCyYaYxsgImiIY630mcxBhpfln5vBNEgCQAGiU6LWBIXAEsyRkHAislTqzMRlGiA0OZ2QyI4PnxICZzjEgwwBlSZGMjUUPyIKjrB2oJugyCOcCnuifJEgHKYkCCYvhIbF7IkdU1u8yz2YgzRHr+h40HVtVtvSAa9nUZaukVqg/ncDicP9sySgqzJIhETkXi8J4mNkoJRInB4HlH1mCmYCOwRRipigCgWNtGAZTIFnoi6o1mUsCloTkARZjAnLGBEurCALLZHCAZWSI629ycJnBUZKZUFzfJ6WnmaV0Aq1uQrN56CgonZ7G+rPVKAY6kgsqZkuUwh7r8HsP8vA3vTCMoCBGIxO15h2KASiBO63YESyI0t9xkNtH7RpKCLLFGFYqciUJU68qTJIkBMknOJM1K3gwF82nBeyQaEpWCpObZxFktd+mhSZmUzVmE+YWU++bFltp9KLIxlJMZwUjmj6cLH1pEKAAXJbjKiLKFBIvr1QyUyUipUi6zNDo8VKQmUaGMfM7njLCA5KGsTHBU1y5YsqHQCrMx6tGcNDIR1EFMOTK8zV3YRahTjlyxZoAlHjh4wMw8UDEMigQvVrcq1pOuaARnBvNDsSNLMIfaE6rWDqiF3uuKr1O+GWbKC+ix1kruYiazdZ82q7KkDMDYCMpKHLnu+ZV6JxuA8dzsMS3gzwEYK8VZI526roEMQtQn9VA39BiopRQ5KRnDkcoCWcmIygFQMRUlwEpJmTqFACYUMDRoY1KBwYaeTVAyBRH8MNaZEVJgYqurSLTe25a6L4RQlyHQ/BqnXwnviHiQkFiFrPYPjISUoApk6tlcEk1Qb7LQPRnVDObJoFwmApAbBt5yJqiVnDykLtWYMz8yQCsSApzFRKGEELxHT+BgORnqxt1558SQVEkD9x3aogxDlErBbJlTmPQotqKLAEdUAvEqgCQ+y9UBYBEcars+VmenW93OEE8wJCJF8Oojk9T5krN5gaHaby1XPTu6Egyms4e3LjihYVm8JACoBGEBZTE1RIq+jp5GZG9cxZ16w/NuL0sKSQRDMAjBGEGNayHMkdBR0VhXK4Ko3ss5FVkWuAqSEZNScJWSZSlPogrOdJAoixQZ5MzP71WcP4AoIoElSZRoiKxeKm/5WTR/GGBWcXTmWU05clxQvz7VXYiGmMUchoE3gTFUhgtWDB1S5153ZqbDsR8ESkrK0YOhVG/k1rEsoDavJqhUgHAS47nvPwLOykgJKJzqsKeSS9XcOEgiI5nhMgeJ+UTRgFwV5gA1lkgiBkKZyCo4BhwCWwEj1NpcBqMo0ARjdUaRgQW8i5WNeHa2l0AGY4OB6ppbrm9Up1KLeCnBSNl4vgmVzT+bBkNSCqJ5Ikcwlww2VKUW9QYrucfwDDLLCcTDZahfQKFSUTEyNSM1ExehWa8uZQYqj4otg2UAIiPBGCZ6alNYmWPd/a7wMJY6bBsTOa6LAI1mg0H91cKbl//cvCPiQUPD/4CcuvXeLs/OhoZfkiYeNDQ0NDTgX5h+UUNDQ0PDPx9NPGhoaGhoQBMPGhoaGhqGNPGgoaGhoQFNPGhoaGhoGNLEg4aGhoYGNPGgoaGhoWFIEw8aGhoaGtDEg4aGhoaGIU08aGhoaGhAEw8aGhoaGoY08aChoaGhAU08aGhoaGgY0sSDhoaGhgY08aChoaGhYUgTDxoaGhoa0MSDhoaGhoYhTTxoaGhoaEATDxoaGhoahjTxoKGhoaEBTTxoaGhoaBjSxIOGhoaGBjTxoKGhoaFhSBMPGhoaGhrQxIOGhoaGhiFNPGhoaGhoQBMPGhoaGhqGNPGgoaGhoQFNPGhoaGhoGNLEg4aGhoYGNPGgoaGhoWFIEw8aGhoaGtDEg4aGhoaGIU08aGhoaGhAEw8aGhoaGoY08aChoaGhAU08aGhoaGgY0sSDhoaGhgY08aChoaGhYUgTDxoaGhoa0MSDhoaGhoYhTTxoaGhoaEATDxoaGhoahvz/r1ZFuaZ3ToYAAAAASUVORK5CYII=;" vertex="1" parent="7">
                    <mxGeometry x="480" y="80" width="270" height="168.68" as="geometry"/>
                </mxCell>
            </root>
        </mxGraphModel>
    </diagram>
</mxfile>